<svg xmlns="http://www.w3.org/2000/svg" xmlns:xlink="http://www.w3.org/1999/xlink" width="500" zoomAndPan="magnify" viewBox="0 0 375 374.999991" height="500" preserveAspectRatio="xMidYMid meet" version="1.0"><defs><g/><clipPath id="4c47fe90e3"><path d="M 169 194 L 239 194 L 239 272 L 169 272 Z M 169 194 " clip-rule="nonzero"/></clipPath><clipPath id="bca4a7fe98"><path d="M 167.164062 194.296875 L 253.339844 197.867188 L 249.769531 284.042969 L 163.59375 280.476562 Z M 167.164062 194.296875 " clip-rule="nonzero"/></clipPath><clipPath id="7a9b35f642"><path d="M 252.988281 197.855469 L 166.8125 194.285156 L 163.242188 280.460938 L 249.417969 284.03125 Z M 252.988281 197.855469 " clip-rule="nonzero"/></clipPath><clipPath id="42202c2d56"><path d="M 252.988281 197.855469 L 166.8125 194.285156 L 163.242188 280.460938 L 249.417969 284.03125 Z M 252.988281 197.855469 " clip-rule="nonzero"/></clipPath></defs><rect x="-37.5" width="450" fill="#ffffff" y="-37.499999" height="449.999989" fill-opacity="1"/><rect x="-37.5" width="450" fill="#112241" y="-37.499999" height="449.999989" fill-opacity="1"/><path stroke-linecap="butt" transform="matrix(0.864618, 0, 0, 0.864618, 92.139087, 47.431905)" fill="none" stroke-linejoin="miter" d="M 239.020871 233.206519 L 239.020871 72.464428 L 172.508461 72.464428 L 172.508461 138.07326 L 85.403497 138.07326 L 85.403497 72.464428 L 18.891086 72.464428 L 18.891086 233.206519 L 85.403497 233.206519 L 85.403497 167.710634 L 172.508461 167.710634 L 172.508461 233.206519 Z M 240.606652 234.792299 L 170.922681 234.792299 L 170.922681 169.296414 L 86.989277 169.296414 L 86.989277 234.792299 L 17.305306 234.792299 L 17.305306 70.878648 L 86.989277 70.878648 L 86.989277 136.491998 L 170.922681 136.491998 L 170.922681 70.878648 L 240.606652 70.878648 Z M 240.606652 234.792299 " stroke="#0477bf" stroke-width="1.592786" stroke-opacity="1" stroke-miterlimit="4"/><g clip-path="url(#4c47fe90e3)"><g clip-path="url(#bca4a7fe98)"><g clip-path="url(#7a9b35f642)"><g clip-path="url(#42202c2d56)"><path fill="#ff4f81" d="M 232.347656 240.472656 C 232.453125 241.324219 232.511719 242.199219 232.523438 243.09375 C 232.535156 243.988281 232.464844 245.042969 232.320312 246.261719 C 231.734375 245.625 231.238281 245.089844 230.835938 244.648438 C 230.429688 244.207031 230.070312 243.789062 229.757812 243.402344 C 227.875 241.066406 226.1875 238.628906 224.695312 236.097656 C 223.199219 233.566406 221.800781 230.953125 220.5 228.261719 C 219.679688 226.488281 218.859375 224.691406 218.039062 222.871094 C 217.222656 221.046875 216.402344 219.226562 215.585938 217.402344 C 215.324219 216.921875 215.085938 216.441406 214.871094 215.964844 C 214.652344 215.480469 214.414062 215 214.152344 214.519531 C 212.921875 212.398438 211.121094 211.570312 208.75 212.039062 C 208.039062 212.148438 207.496094 212.386719 207.128906 212.746094 C 206.761719 213.109375 206.566406 213.640625 206.535156 214.34375 C 206.488281 215.472656 206.453125 216.601562 206.429688 217.726562 C 206.410156 218.855469 206.445312 219.988281 206.535156 221.121094 C 206.78125 225.460938 207.058594 229.804688 207.375 234.148438 C 207.6875 238.488281 207.96875 242.828125 208.210938 247.171875 C 208.339844 249.714844 208.378906 252.246094 208.320312 254.761719 C 208.261719 257.277344 207.875 259.765625 207.164062 262.234375 C 206.71875 263.90625 206.042969 265.480469 205.132812 266.949219 C 204.578125 267.820312 204.019531 268.3125 203.449219 268.433594 C 202.878906 268.550781 202.183594 268.332031 201.359375 267.78125 C 200.671875 267.328125 200.007812 266.839844 199.371094 266.320312 C 198.734375 265.800781 198.167969 265.246094 197.675781 264.664062 C 196.773438 263.683594 195.898438 262.671875 195.050781 261.625 C 194.199219 260.574219 193.394531 259.496094 192.640625 258.382812 C 191.355469 256.449219 190.191406 254.449219 189.148438 252.378906 C 188.105469 250.3125 187.15625 248.203125 186.304688 246.050781 C 183.445312 238.917969 180.851562 231.691406 178.519531 224.375 C 176.1875 217.054688 174.234375 209.617188 172.664062 202.070312 C 172.425781 201.027344 172.222656 199.972656 172.054688 198.90625 C 171.890625 197.839844 171.710938 196.785156 171.515625 195.742188 C 171.441406 195.3125 171.277344 194.941406 171.03125 194.628906 C 170.785156 194.308594 170.332031 194.253906 169.664062 194.460938 C 169.386719 195.488281 169.261719 196.53125 169.285156 197.589844 C 169.3125 198.648438 169.351562 199.699219 169.40625 200.734375 C 169.699219 203.855469 170.144531 206.941406 170.75 210.003906 C 171.351562 213.0625 172.039062 216.09375 172.808594 219.089844 C 174.0625 224.082031 175.433594 229.011719 176.925781 233.871094 C 178.417969 238.734375 180.054688 243.554688 181.832031 248.335938 C 182.726562 250.632812 183.71875 252.863281 184.804688 255.023438 C 185.890625 257.1875 187.121094 259.261719 188.496094 261.25 C 189.429688 262.558594 190.425781 263.808594 191.484375 265.003906 C 192.542969 266.203125 193.707031 267.296875 194.980469 268.292969 C 198.082031 270.726562 201.523438 271.714844 205.308594 271.261719 C 208.527344 270.828125 210.738281 269.179688 211.9375 266.3125 C 212.78125 264.136719 213.363281 261.949219 213.691406 259.75 C 214.019531 257.457031 214.199219 255.15625 214.222656 252.855469 C 214.246094 250.546875 214.191406 248.238281 214.050781 245.925781 C 213.804688 242.765625 213.570312 239.601562 213.351562 236.441406 C 213.128906 233.28125 212.894531 230.117188 212.648438 226.953125 C 212.652344 226.859375 212.671875 226.742188 212.699219 226.601562 C 212.726562 226.460938 212.769531 226.253906 212.832031 225.972656 C 213.140625 226.453125 213.414062 226.902344 213.65625 227.3125 C 213.898438 227.722656 214.105469 228.121094 214.277344 228.503906 C 215.449219 230.953125 216.703125 233.332031 218.042969 235.648438 C 219.382812 237.960938 220.878906 240.1875 222.53125 242.324219 C 223.957031 244.265625 225.574219 246.121094 227.382812 247.890625 C 228.375 248.875 229.464844 249.566406 230.652344 249.96875 C 231.835938 250.371094 233.109375 250.507812 234.480469 250.375 C 235.660156 250.28125 236.554688 249.976562 237.164062 249.464844 C 237.773438 248.945312 238.199219 248.082031 238.4375 246.867188 C 238.722656 245.703125 238.816406 244.53125 238.722656 243.351562 C 238.632812 242.171875 238.46875 241.011719 238.230469 239.871094 C 237.234375 234.371094 235.941406 228.988281 234.351562 223.722656 C 232.753906 218.457031 230.792969 213.28125 228.460938 208.191406 C 228.03125 207.28125 227.539062 206.394531 226.984375 205.523438 C 226.433594 204.652344 225.867188 203.804688 225.289062 202.976562 C 224.664062 202.105469 223.902344 201.546875 222.996094 201.296875 C 222.085938 201.050781 221.109375 201.042969 220.066406 201.28125 C 219.589844 201.402344 219.289062 201.613281 219.15625 201.914062 C 219.027344 202.214844 219.015625 202.765625 219.125 203.570312 C 219.5 203.585938 219.863281 203.589844 220.21875 203.582031 C 220.570312 203.574219 220.984375 203.554688 221.453125 203.527344 C 221.714844 204.058594 221.976562 204.574219 222.238281 205.078125 C 222.5 205.582031 222.761719 206.101562 223.019531 206.628906 C 227.324219 217.488281 230.433594 228.769531 232.347656 240.472656 Z M 232.347656 240.472656 " fill-opacity="1" fill-rule="nonzero"/></g></g></g></g><g fill="#ff4f81" fill-opacity="1"><g transform="translate(250.323617, 246.101489)"><g><path d="M 20.15625 -28.171875 C 20.15625 -28.171875 20.394531 -28.234375 20.875 -28.359375 C 20.957031 -28.066406 21.085938 -27.757812 21.265625 -27.4375 C 21.441406 -27.125 21.554688 -26.804688 21.609375 -26.484375 C 21.546875 -25.703125 21.488281 -24.898438 21.4375 -24.078125 C 21.382812 -23.253906 21.265625 -22.445312 21.078125 -21.65625 C 19.929688 -17.101562 18.023438 -12.953125 15.359375 -9.203125 C 14.179688 -7.597656 12.789062 -6.28125 11.1875 -5.25 C 9.582031 -4.226562 7.804688 -3.484375 5.859375 -3.015625 C 3.429688 -2.441406 1.226562 -2.675781 -0.75 -3.71875 C -2.738281 -4.757812 -4.320312 -6.535156 -5.5 -9.046875 C -6.863281 -11.859375 -7.664062 -14.691406 -7.90625 -17.546875 C -8.144531 -20.410156 -7.875 -23.269531 -7.09375 -26.125 C -6.144531 -29.75 -3.84375 -31.671875 -0.1875 -31.890625 C 1.269531 -32.015625 2.484375 -31.65625 3.453125 -30.8125 C 4.429688 -29.976562 5.007812 -28.785156 5.1875 -27.234375 C 5.332031 -26.347656 5.363281 -25.445312 5.28125 -24.53125 C 5.195312 -23.625 5.078125 -22.753906 4.921875 -21.921875 C 4.128906 -18.253906 2.472656 -14.894531 -0.046875 -11.84375 C 0.296875 -10.726562 0.789062 -9.832031 1.4375 -9.15625 C 2.082031 -8.476562 2.785156 -7.898438 3.546875 -7.421875 C 4.453125 -6.898438 5.335938 -6.597656 6.203125 -6.515625 C 7.078125 -6.441406 7.929688 -6.710938 8.765625 -7.328125 C 9.429688 -7.828125 10.113281 -8.390625 10.8125 -9.015625 C 11.507812 -9.640625 12.109375 -10.300781 12.609375 -11 C 14.242188 -13.144531 15.632812 -15.445312 16.78125 -17.90625 C 17.9375 -20.363281 18.785156 -22.976562 19.328125 -25.75 C 19.441406 -26.15625 19.578125 -26.554688 19.734375 -26.953125 C 19.898438 -27.359375 20.039062 -27.765625 20.15625 -28.171875 Z M -1.5 -27.5625 C -2.289062 -25.882812 -2.679688 -24.164062 -2.671875 -22.40625 C -2.671875 -20.65625 -2.257812 -18.597656 -1.4375 -16.234375 C -0.757812 -17.640625 -0.3125 -19.019531 -0.09375 -20.375 C 0.113281 -21.726562 0.1875 -23.144531 0.125 -24.625 C 0.09375 -25.175781 -0.015625 -25.722656 -0.203125 -26.265625 C -0.398438 -26.804688 -0.832031 -27.238281 -1.5 -27.5625 Z M -1.5 -27.5625 "/></g></g></g><g fill="#ff4f81" fill-opacity="1"><g transform="translate(274.443933, 232.776269)"><g><path d="M 19.203125 -37.546875 C 20.347656 -36.734375 21.007812 -35.757812 21.1875 -34.625 C 21.363281 -33.488281 21.300781 -32.320312 21 -31.125 C 20.707031 -29.789062 20.335938 -28.460938 19.890625 -27.140625 C 19.453125 -25.816406 18.945312 -24.554688 18.375 -23.359375 C 17.207031 -20.859375 15.863281 -18.460938 14.34375 -16.171875 C 12.820312 -13.878906 11.160156 -11.691406 9.359375 -9.609375 C 8.609375 -8.710938 7.769531 -7.851562 6.84375 -7.03125 C 5.925781 -6.21875 4.921875 -5.300781 3.828125 -4.28125 C 3.828125 -3.65625 3.816406 -2.890625 3.796875 -1.984375 C 3.773438 -1.085938 3.785156 -0.164062 3.828125 0.78125 C 3.796875 1.96875 3.789062 3.140625 3.8125 4.296875 C 3.832031 5.453125 3.78125 6.613281 3.65625 7.78125 C 3.5625 9.695312 3.128906 11.019531 2.359375 11.75 C 1.597656 12.488281 0.132812 13.003906 -2.03125 13.296875 C -2.726562 12.785156 -3.160156 12.160156 -3.328125 11.421875 C -3.492188 10.691406 -3.644531 9.953125 -3.78125 9.203125 C -4.644531 4.785156 -5.515625 0.347656 -6.390625 -4.109375 C -7.273438 -8.578125 -8.125 -13.03125 -8.9375 -17.46875 C -10.851562 -27.5625 -12.765625 -37.632812 -14.671875 -47.6875 C -16.585938 -57.75 -18.484375 -67.835938 -20.359375 -77.953125 C -20.835938 -80.429688 -21.269531 -82.925781 -21.65625 -85.4375 C -22.039062 -87.945312 -22.421875 -90.472656 -22.796875 -93.015625 C -22.972656 -94.347656 -23.035156 -95.585938 -22.984375 -96.734375 C -22.929688 -98.128906 -22.03125 -98.863281 -20.28125 -98.9375 C -19.125 -94.34375 -18.023438 -89.734375 -16.984375 -85.109375 C -15.941406 -80.492188 -14.882812 -75.898438 -13.8125 -71.328125 C -12.75 -66.679688 -11.722656 -62.03125 -10.734375 -57.375 C -9.753906 -52.726562 -8.738281 -48.085938 -7.6875 -43.453125 C -6.707031 -38.828125 -5.78125 -34.1875 -4.90625 -29.53125 C -4.03125 -24.882812 -2.929688 -20.25 -1.609375 -15.625 C -1.410156 -16.144531 -1.207031 -16.679688 -1 -17.234375 C -0.800781 -17.796875 -0.617188 -18.367188 -0.453125 -18.953125 C 0.335938 -21.378906 1.296875 -23.710938 2.421875 -25.953125 C 3.554688 -28.203125 4.9375 -30.359375 6.5625 -32.421875 C 7.375 -33.429688 8.257812 -34.375 9.21875 -35.25 C 10.175781 -36.125 11.296875 -36.835938 12.578125 -37.390625 C 13.640625 -37.847656 14.742188 -38.1875 15.890625 -38.40625 C 17.035156 -38.625 18.140625 -38.335938 19.203125 -37.546875 Z M 14.515625 -31.65625 C 14.441406 -32.03125 14.289062 -32.394531 14.0625 -32.75 C 13.84375 -33.101562 13.570312 -33.570312 13.25 -34.15625 C 10.976562 -31.382812 9.195312 -28.578125 7.90625 -25.734375 C 6.625 -22.898438 5.644531 -19.914062 4.96875 -16.78125 C 4.875 -16.320312 4.78125 -15.859375 4.6875 -15.390625 C 4.601562 -14.929688 4.5625 -14.460938 4.5625 -13.984375 C 4.519531 -13.546875 4.625 -13.171875 4.875 -12.859375 C 5.125 -12.546875 5.617188 -12.460938 6.359375 -12.609375 C 7.753906 -14.679688 9.117188 -16.8125 10.453125 -19 C 11.796875 -21.1875 12.914062 -23.523438 13.8125 -26.015625 C 14.15625 -26.878906 14.421875 -27.796875 14.609375 -28.765625 C 14.796875 -29.734375 14.765625 -30.695312 14.515625 -31.65625 Z M 14.515625 -31.65625 "/></g></g></g><g fill="#f2dea2" fill-opacity="1"><g transform="translate(66.729756, 257.194281)"><g><path d="M 81.234375 -74.28125 L 47.453125 -72.984375 L 42.359375 -28.453125 L 83.953125 -29.859375 C 85.828125 -29.785156 86.765625 -28.847656 86.765625 -27.046875 L 83.953125 -4.5625 C 83.804688 -3.039062 82.863281 -2.097656 81.125 -1.734375 L 14.328125 0.4375 C 12.742188 0.4375 11.953125 -0.25 11.953125 -1.625 L 30.734375 -165.9375 C 31.023438 -167.457031 31.96875 -168.289062 33.5625 -168.4375 L 93.0625 -170.5 C 94.875 -170.28125 95.78125 -169.300781 95.78125 -167.5625 L 93.0625 -145.078125 C 92.84375 -143.273438 91.90625 -142.300781 90.25 -142.15625 L 55.28125 -141.171875 L 50.609375 -100.78125 L 84.046875 -101.96875 C 85.929688 -101.894531 86.875 -100.957031 86.875 -99.15625 L 84.046875 -77 C 83.765625 -75.332031 82.828125 -74.425781 81.234375 -74.28125 Z M 81.234375 -74.28125 "/></g></g></g></svg>