<svg xmlns="http://www.w3.org/2000/svg" xmlns:xlink="http://www.w3.org/1999/xlink" width="500" zoomAndPan="magnify" viewBox="0 0 375 374.999991" height="500" preserveAspectRatio="xMidYMid meet" version="1.0"><defs><g/><clipPath id="2b7f4810f4"><path d="M 20.320312 52.976562 L 358 52.976562 L 358 333 L 20.320312 333 Z M 20.320312 52.976562 " clip-rule="nonzero"/></clipPath><clipPath id="76f5f7d4f1"><path d="M 346.984375 52.976562 L 30.820312 52.976562 C 28.035156 52.976562 25.367188 54.085938 23.398438 56.054688 C 21.425781 58.023438 20.320312 60.691406 20.320312 63.476562 L 20.320312 252.410156 C 20.320312 255.195312 21.425781 257.867188 23.398438 259.835938 C 25.367188 261.804688 28.035156 262.910156 30.820312 262.910156 L 72.3125 262.910156 C 75.097656 262.910156 77.769531 264.019531 79.738281 265.988281 C 81.707031 267.957031 82.8125 270.628906 82.8125 273.410156 L 82.8125 327 C 82.8125 329.125 83.964844 331.085938 85.820312 332.125 C 87.675781 333.164062 89.949219 333.117188 91.761719 332.003906 L 195.324219 268.40625 C 201.175781 264.8125 207.90625 262.910156 214.769531 262.910156 L 346.984375 262.910156 C 349.769531 262.910156 352.4375 261.804688 354.410156 259.835938 C 356.378906 257.867188 357.484375 255.195312 357.484375 252.410156 L 357.484375 63.476562 C 357.484375 60.691406 356.378906 58.023438 354.410156 56.054688 C 352.4375 54.085938 349.769531 52.976562 346.984375 52.976562 Z M 346.984375 52.976562 " clip-rule="nonzero"/></clipPath></defs><g clip-path="url(#2b7f4810f4)"><g clip-path="url(#76f5f7d4f1)"><path fill="#ffe98c" d="M 20.320312 52.976562 L 357.078125 52.976562 L 357.078125 337.5 L 20.320312 337.5 Z M 20.320312 52.976562 " fill-opacity="1" fill-rule="nonzero"/></g></g><g fill="#ff578e" fill-opacity="1"><g transform="translate(55.850357, 188.109819)"><g><path d="M 29.28125 -88.71875 C 31.5 -89.8125 33.457031 -90.179688 35.15625 -89.828125 C 36.851562 -89.472656 38.117188 -88.457031 38.953125 -86.78125 C 39.359375 -85.9375 39.632812 -85.066406 39.78125 -84.171875 L 41.546875 -74.671875 C 41.921875 -72.835938 41.859375 -71.40625 41.359375 -70.375 C 40.867188 -69.351562 39.875 -68.472656 38.375 -67.734375 C 36.9375 -67.023438 35.65625 -66.785156 34.53125 -67.015625 C 33.414062 -67.253906 32.289062 -67.988281 31.15625 -69.21875 L 27.203125 -73.640625 C 26.367188 -74.566406 25.65625 -75.101562 25.0625 -75.25 C 24.46875 -75.40625 23.566406 -75.191406 22.359375 -74.609375 L 12.921875 -69.96875 L 16.3125 -51.765625 L 20.265625 -53.703125 C 20.691406 -53.910156 21.113281 -54.492188 21.53125 -55.453125 L 23.25 -59.65625 C 23.78125 -60.863281 24.285156 -61.8125 24.765625 -62.5 C 25.242188 -63.1875 25.960938 -63.765625 26.921875 -64.234375 C 28.003906 -64.773438 29.03125 -64.925781 30 -64.6875 C 30.96875 -64.445312 31.671875 -63.878906 32.109375 -62.984375 C 32.222656 -62.742188 32.335938 -62.359375 32.453125 -61.828125 L 34.921875 -47.515625 C 35.203125 -46.023438 35.0625 -44.75 34.5 -43.6875 C 33.945312 -42.625 33.160156 -41.84375 32.140625 -41.34375 C 30.460938 -40.519531 28.78125 -40.769531 27.09375 -42.09375 L 24.015625 -44.484375 C 23.140625 -45.191406 22.253906 -45.328125 21.359375 -44.890625 L 17.859375 -43.171875 L 21.9375 -21.484375 L 29.84375 -25.375 C 30.976562 -25.9375 31.863281 -26.65625 32.5 -27.53125 C 33.144531 -28.40625 33.703125 -29.660156 34.171875 -31.296875 L 36.65625 -39.890625 C 37.113281 -41.378906 37.664062 -42.5625 38.3125 -43.4375 C 38.957031 -44.3125 39.90625 -45.0625 41.15625 -45.6875 C 42.476562 -46.332031 43.707031 -46.554688 44.84375 -46.359375 C 45.976562 -46.171875 46.84375 -45.476562 47.4375 -44.28125 C 47.664062 -43.8125 47.851562 -43.203125 48 -42.453125 L 49.859375 -32.09375 C 50.316406 -29.476562 50.132812 -27.414062 49.3125 -25.90625 C 48.5 -24.394531 46.894531 -23.046875 44.5 -21.859375 L 1.609375 -0.796875 C 0.359375 -0.179688 -0.710938 0.0820312 -1.609375 0 C -2.515625 -0.0703125 -3.144531 -0.46875 -3.5 -1.1875 C -3.664062 -1.539062 -3.757812 -1.972656 -3.78125 -2.484375 C -3.875 -3.265625 -3.734375 -3.960938 -3.359375 -4.578125 C -2.992188 -5.203125 -2.773438 -5.582031 -2.703125 -5.71875 C -2.023438 -6.78125 -1.539062 -7.773438 -1.25 -8.703125 C -0.96875 -9.628906 -0.96875 -10.90625 -1.25 -12.53125 L -9.234375 -56.734375 C -9.378906 -57.628906 -9.613281 -58.40625 -9.9375 -59.0625 C -10.289062 -59.78125 -10.691406 -60.328125 -11.140625 -60.703125 C -11.585938 -61.085938 -12.148438 -61.445312 -12.828125 -61.78125 C -13.753906 -62.300781 -14.332031 -62.796875 -14.5625 -63.265625 C -14.65625 -63.453125 -14.757812 -63.8125 -14.875 -64.34375 C -15.019531 -65.238281 -14.753906 -66.054688 -14.078125 -66.796875 C -13.398438 -67.546875 -12.25 -68.316406 -10.625 -69.109375 Z M 29.28125 -88.71875 "/></g></g></g><g fill="#ff578e" fill-opacity="1"><g transform="translate(116.174996, 158.464544)"><g><path d="M 49.015625 -39.484375 C 49.003906 -39.191406 49.117188 -38.804688 49.359375 -38.328125 C 49.554688 -37.910156 49.820312 -37.628906 50.15625 -37.484375 C 50.488281 -37.347656 50.832031 -37.367188 51.1875 -37.546875 C 51.90625 -37.898438 52.363281 -38.515625 52.5625 -39.390625 C 52.769531 -40.265625 52.96875 -40.75 53.15625 -40.84375 C 53.457031 -40.988281 53.789062 -40.910156 54.15625 -40.609375 C 54.519531 -40.316406 54.835938 -39.898438 55.109375 -39.359375 C 56.023438 -37.648438 56.285156 -35.675781 55.890625 -33.4375 C 55.492188 -31.207031 54.398438 -29 52.609375 -26.8125 C 50.828125 -24.625 48.316406 -22.734375 45.078125 -21.140625 C 41.128906 -19.203125 37.535156 -18.570312 34.296875 -19.25 C 31.054688 -19.925781 28.660156 -21.773438 27.109375 -24.796875 C 26.015625 -27.023438 25.328125 -29.78125 25.046875 -33.0625 L 23.640625 -48.453125 C 23.546875 -49.378906 23.382812 -50.078125 23.15625 -50.546875 C 22.769531 -51.335938 22.210938 -51.832031 21.484375 -52.03125 C 20.753906 -52.226562 20.023438 -52.148438 19.296875 -51.796875 C 18.160156 -51.234375 17.269531 -50.140625 16.625 -48.515625 C 15.976562 -46.890625 15.863281 -44.734375 16.28125 -42.046875 L 16.1875 -42.21875 L 19.5 -21.203125 C 19.675781 -20.390625 19.894531 -19.707031 20.15625 -19.15625 C 20.539062 -18.382812 20.988281 -17.847656 21.5 -17.546875 C 22.019531 -17.253906 22.65625 -17.023438 23.40625 -16.859375 C 24.039062 -16.648438 24.515625 -16.453125 24.828125 -16.265625 C 25.140625 -16.085938 25.332031 -15.757812 25.40625 -15.28125 C 25.488281 -14.351562 25.171875 -13.488281 24.453125 -12.6875 C 23.734375 -11.882812 22.441406 -11.023438 20.578125 -10.109375 L 0.078125 -0.046875 C -1.472656 0.722656 -2.734375 1.023438 -3.703125 0.859375 C -4.671875 0.703125 -5.238281 0.144531 -5.40625 -0.8125 C -5.53125 -1.644531 -5.210938 -2.578125 -4.453125 -3.609375 C -3.796875 -4.535156 -3.328125 -5.472656 -3.046875 -6.421875 C -2.765625 -7.378906 -2.773438 -8.679688 -3.078125 -10.328125 L -11.453125 -61.90625 C -11.535156 -62.519531 -11.664062 -63.007812 -11.84375 -63.375 C -12.164062 -64.03125 -12.59375 -64.488281 -13.125 -64.75 C -13.664062 -65.007812 -14.3125 -65.21875 -15.0625 -65.375 C -15.882812 -65.550781 -16.519531 -65.753906 -16.96875 -65.984375 C -17.414062 -66.210938 -17.695312 -66.671875 -17.8125 -67.359375 C -18.132812 -68.921875 -16.835938 -71.050781 -13.921875 -73.75 C -11.003906 -76.445312 -7.691406 -78.707031 -3.984375 -80.53125 C -0.503906 -82.238281 2.382812 -82.835938 4.6875 -82.328125 C 6.988281 -81.828125 8.695312 -80.4375 9.8125 -78.15625 C 10.46875 -76.84375 10.894531 -75.445312 11.09375 -73.96875 L 14 -55.765625 C 14.832031 -59.972656 16.253906 -63.3125 18.265625 -65.78125 C 20.285156 -68.257812 22.828125 -70.25 25.890625 -71.75 C 29.546875 -73.550781 33.039062 -73.894531 36.375 -72.78125 C 39.707031 -71.675781 42.242188 -69.359375 43.984375 -65.828125 C 44.898438 -63.960938 45.503906 -61.988281 45.796875 -59.90625 Z M 49.015625 -39.484375 "/></g></g></g><g fill="#ff578e" fill-opacity="1"><g transform="translate(180.008007, 127.095155)"><g/></g></g><g fill="#0097b2" fill-opacity="1"><g transform="translate(97.062378, 230.319667)"><g><path d="M 70.203125 -77.734375 C 70.515625 -77.023438 70.628906 -76.394531 70.546875 -75.84375 L 54.171875 -1.890625 C 53.941406 -0.628906 53.195312 0 51.9375 0 L 36.046875 0 C 34.472656 0 33.6875 -0.742188 33.6875 -2.234375 L 33.21875 -8.015625 L 33.328125 -8.015625 C 33.328125 -7.859375 33.40625 -7.78125 33.5625 -7.78125 C 33.800781 -8.007812 33.765625 -8.242188 33.453125 -8.484375 L 33.21875 -8.25 L 32.75 -13.1875 C 32.90625 -13.269531 33.21875 -13.3125 33.6875 -13.3125 L 34.859375 -13.421875 L 32.75 -13.890625 L 32.390625 -18.140625 L 32.5 -18.25 L 32.390625 -18.25 L 31.796875 -26.5 L 26.859375 -6.59375 L 25.671875 -1.890625 C 25.441406 -0.628906 24.695312 0 23.4375 0 L 6.359375 0 C 4.867188 0 4.082031 -0.742188 4 -2.234375 L 1.40625 -38.15625 L -1.171875 -76.5625 C -1.171875 -77.34375 -0.976562 -77.929688 -0.59375 -78.328125 C -0.195312 -78.878906 0.351562 -79.15625 1.0625 -79.15625 L 14.84375 -79.859375 L 15.078125 -79.859375 C 16.410156 -79.859375 17.15625 -79.148438 17.3125 -77.734375 L 19.4375 -51.828125 L 25.90625 -78.796875 C 26.144531 -79.972656 26.894531 -80.601562 28.15625 -80.6875 L 36.625 -81.03125 C 38.90625 -81.1875 40.734375 -80.554688 42.109375 -79.140625 C 43.484375 -77.734375 44.328125 -75.8125 44.640625 -73.375 L 44.640625 -73.265625 L 46.640625 -55.46875 L 51.828125 -79.859375 C 51.898438 -80.484375 52.226562 -80.988281 52.8125 -81.375 C 53.40625 -81.769531 54.019531 -81.890625 54.65625 -81.734375 L 68.671875 -78.671875 C 69.296875 -78.515625 69.804688 -78.203125 70.203125 -77.734375 Z M 13.421875 -68.546875 C 13.816406 -68.546875 14.015625 -68.703125 14.015625 -69.015625 L 13.421875 -69.140625 L 13.078125 -68.78125 Z M 8.953125 -43.21875 C 8.867188 -43.457031 8.671875 -43.578125 8.359375 -43.578125 L 8.015625 -43.34375 L 8.484375 -43.21875 Z M 13.3125 -33.921875 L 12.25 -34.03125 L 12.71875 -33.796875 C 12.71875 -33.796875 12.738281 -33.773438 12.78125 -33.734375 C 12.820312 -33.703125 12.84375 -33.6875 12.84375 -33.6875 L 13.078125 -33.453125 Z M 32.390625 -32.265625 C 33.097656 -32.265625 33.644531 -32.304688 34.03125 -32.390625 C 33.957031 -32.390625 33.898438 -32.40625 33.859375 -32.4375 C 33.816406 -32.476562 33.757812 -32.539062 33.6875 -32.625 L 33.328125 -32.75 C 32.941406 -32.75 32.75 -32.707031 32.75 -32.625 C 32.75 -32.539062 32.628906 -32.421875 32.390625 -32.265625 Z M 36.046875 -32.390625 C 35.890625 -32.304688 35.648438 -32.265625 35.328125 -32.265625 L 35.453125 -32.03125 C 35.691406 -31.800781 35.8125 -31.6875 35.8125 -31.6875 L 36.046875 -31.796875 C 36.046875 -31.796875 36.125 -31.796875 36.28125 -31.796875 C 36.28125 -32.109375 36.203125 -32.304688 36.046875 -32.390625 Z M 38.28125 -31.796875 L 39.34375 -31.6875 L 39.453125 -31.921875 L 38.28125 -32.03125 Z M 45.234375 -30.859375 C 44.835938 -30.859375 44.441406 -30.703125 44.046875 -30.390625 L 44.875 -30.390625 C 45.1875 -30.390625 45.382812 -30.347656 45.46875 -30.265625 C 45.46875 -30.503906 45.503906 -30.625 45.578125 -30.625 C 45.578125 -30.78125 45.460938 -30.859375 45.234375 -30.859375 Z M 40.75 -30.390625 L 41.453125 -30.265625 L 41.453125 -30.5 L 40.75 -30.625 Z M 46.640625 -29.6875 L 47.46875 -29.796875 C 47.226562 -30.109375 46.953125 -30.382812 46.640625 -30.625 Z M 53.125 -28.96875 C 52.488281 -29.601562 52.015625 -30 51.703125 -30.15625 C 51.546875 -30.15625 51.46875 -30.035156 51.46875 -29.796875 L 51.359375 -29.4375 C 51.117188 -29.832031 50.800781 -30.03125 50.40625 -30.03125 C 50.332031 -29.957031 50.296875 -29.84375 50.296875 -29.6875 C 50.296875 -29.601562 50.332031 -29.5625 50.40625 -29.5625 C 50.40625 -29.40625 50.484375 -29.328125 50.640625 -29.328125 C 50.640625 -29.242188 50.71875 -29.125 50.875 -28.96875 C 51.113281 -28.582031 51.585938 -28.503906 52.296875 -28.734375 Z M 43.9375 -29.09375 L 44.171875 -28.96875 L 44.640625 -28.859375 C 44.953125 -28.773438 45.265625 -28.890625 45.578125 -29.203125 C 45.347656 -29.597656 45.234375 -29.875 45.234375 -30.03125 L 45 -29.921875 C 44.914062 -29.921875 44.851562 -29.898438 44.8125 -29.859375 C 44.769531 -29.816406 44.710938 -29.796875 44.640625 -29.796875 L 44.046875 -29.6875 Z M 36.046875 -28.734375 C 36.203125 -28.972656 36.160156 -29.09375 35.921875 -29.09375 C 35.679688 -29.164062 35.679688 -29.085938 35.921875 -28.859375 Z M 42.171875 -27.796875 C 42.242188 -27.796875 42.28125 -27.753906 42.28125 -27.671875 C 42.28125 -27.515625 42.082031 -27.4375 41.6875 -27.4375 C 41.375 -27.4375 41.21875 -27.398438 41.21875 -27.328125 C 42.550781 -26.929688 43.335938 -26.65625 43.578125 -26.5 L 43.9375 -26.03125 C 43.9375 -25.875 44.015625 -25.71875 44.171875 -25.5625 L 44.875 -25.4375 L 45.46875 -25.671875 C 45.382812 -26.066406 45.109375 -26.363281 44.640625 -26.5625 C 44.171875 -26.757812 43.738281 -26.859375 43.34375 -26.859375 C 43.582031 -27.328125 43.582031 -27.5625 43.34375 -27.5625 C 43.03125 -27.5625 42.875 -27.71875 42.875 -28.03125 C 42.789062 -28.113281 42.789062 -28.269531 42.875 -28.5 C 42.945312 -28.582031 42.90625 -28.703125 42.75 -28.859375 L 42.046875 -28.96875 L 41.6875 -28.03125 C 41.851562 -27.875 42.015625 -27.796875 42.171875 -27.796875 Z M 46.40625 -28.96875 C 46.164062 -28.96875 45.929688 -28.851562 45.703125 -28.625 C 45.460938 -28.382812 45.109375 -28.265625 44.640625 -28.265625 C 44.953125 -28.109375 45.226562 -27.910156 45.46875 -27.671875 C 45.695312 -27.441406 45.945312 -27.304688 46.21875 -27.265625 C 46.5 -27.222656 46.757812 -27.242188 47 -27.328125 C 47.070312 -27.398438 47.226562 -27.4375 47.46875 -27.4375 C 47.15625 -28.144531 46.800781 -28.65625 46.40625 -28.96875 Z M 39.6875 -26.03125 L 40.046875 -25.90625 L 40.28125 -26.390625 L 40.046875 -26.5 Z M 36.515625 -26.140625 L 36.15625 -26.390625 L 36.046875 -26.265625 L 36.28125 -26.03125 Z M 43.109375 -23.90625 C 43.578125 -23.59375 44.085938 -23.554688 44.640625 -23.796875 C 45.109375 -24.109375 45.460938 -24.265625 45.703125 -24.265625 L 45.234375 -24.734375 C 44.835938 -24.734375 44.441406 -24.613281 44.046875 -24.375 Z M 47.9375 -24.375 C 47.78125 -24.375 47.582031 -24.492188 47.34375 -24.734375 C 47.113281 -24.492188 46.679688 -24.257812 46.046875 -24.03125 C 46.203125 -23.632812 46.398438 -23.398438 46.640625 -23.328125 C 46.878906 -23.085938 46.84375 -22.8125 46.53125 -22.5 C 47 -22.5 47.347656 -22.300781 47.578125 -21.90625 L 47.578125 -21.671875 C 47.421875 -21.515625 47.148438 -21.4375 46.765625 -21.4375 C 47.234375 -21.125 47.582031 -20.925781 47.8125 -20.84375 L 48.640625 -20.265625 C 49.035156 -20.648438 49.234375 -20.882812 49.234375 -20.96875 C 49.304688 -20.8125 49.398438 -20.632812 49.515625 -20.4375 C 49.640625 -20.238281 49.703125 -20.0625 49.703125 -19.90625 C 49.703125 -20.144531 49.78125 -20.300781 49.9375 -20.375 C 50.09375 -20.457031 50.171875 -20.578125 50.171875 -20.734375 C 50.796875 -20.734375 51.269531 -20.769531 51.59375 -20.84375 C 51.507812 -20.84375 51.390625 -21 51.234375 -21.3125 C 51.148438 -21.394531 51.109375 -21.472656 51.109375 -21.546875 C 51.109375 -21.628906 51.03125 -21.710938 50.875 -21.796875 C 50.5625 -21.953125 50.171875 -22.109375 49.703125 -22.265625 L 48.40625 -22.609375 C 48.40625 -22.535156 48.347656 -22.457031 48.234375 -22.375 C 48.117188 -22.300781 47.976562 -22.265625 47.8125 -22.265625 C 47.8125 -22.421875 47.734375 -22.5 47.578125 -22.5 C 47.503906 -22.414062 47.425781 -22.453125 47.34375 -22.609375 C 47.65625 -23.160156 48.085938 -23.632812 48.640625 -24.03125 Z M 34.984375 -24.140625 L 34.984375 -24.375 L 34.390625 -24.5 L 34.390625 -24.265625 Z M 48.765625 -23.796875 L 49.46875 -23.796875 L 49.578125 -24.03125 L 48.875 -24.03125 Z M 40.515625 -23.4375 L 41.109375 -23.5625 L 40.984375 -23.796875 L 40.515625 -23.671875 Z M 50.40625 -23.203125 C 50.25 -23.117188 50.171875 -23 50.171875 -22.84375 L 50.53125 -22.5 L 51.46875 -22.375 L 52.0625 -22.609375 L 52.0625 -23.5625 L 50.875 -23.671875 C 50.800781 -23.441406 50.644531 -23.285156 50.40625 -23.203125 Z M 42.875 -22.609375 C 42.789062 -22.765625 42.554688 -22.921875 42.171875 -23.078125 C 41.617188 -23.242188 41.34375 -23.328125 41.34375 -23.328125 C 41.34375 -23.085938 41.222656 -22.847656 40.984375 -22.609375 C 40.753906 -22.378906 40.640625 -22.222656 40.640625 -22.140625 C 40.867188 -22.140625 41.0625 -22.179688 41.21875 -22.265625 C 41.457031 -22.265625 41.65625 -22.300781 41.8125 -22.375 Z M 37.6875 -23.328125 C 37.289062 -23.003906 37.289062 -22.570312 37.6875 -22.03125 C 38.082031 -22.03125 38.554688 -22.144531 39.109375 -22.375 L 38.625 -22.5 C 38.550781 -22.65625 38.394531 -22.613281 38.15625 -22.375 C 38.082031 -22.613281 38.046875 -22.734375 38.046875 -22.734375 C 37.890625 -22.734375 37.925781 -22.890625 38.15625 -23.203125 C 38.15625 -23.203125 38.132812 -23.222656 38.09375 -23.265625 C 38.0625 -23.304688 38.046875 -23.328125 38.046875 -23.328125 Z M 52.765625 -21.671875 L 53 -21.796875 C 52.21875 -21.398438 51.828125 -21.125 51.828125 -20.96875 C 51.828125 -20.8125 51.90625 -20.734375 52.0625 -20.734375 C 52.132812 -20.734375 52.25 -20.65625 52.40625 -20.5 L 52.765625 -20.5 C 53.003906 -20.570312 53.046875 -20.765625 52.890625 -21.078125 Z M 37.578125 -21.671875 C 37.578125 -21.429688 37.613281 -21.3125 37.6875 -21.3125 L 37.6875 -21.078125 C 37.925781 -21.078125 38.082031 -21.117188 38.15625 -21.203125 L 38.625 -21.4375 C 38.394531 -21.4375 38.238281 -21.472656 38.15625 -21.546875 C 38 -21.628906 37.804688 -21.671875 37.578125 -21.671875 Z M 39.921875 -20.734375 L 40.046875 -20.96875 L 39.109375 -21.078125 L 39.109375 -20.84375 Z M 41.34375 -21.078125 L 40.984375 -20.734375 L 42.046875 -20.609375 C 42.046875 -20.765625 42.164062 -20.882812 42.40625 -20.96875 Z M 44.515625 -20.265625 C 44.515625 -20.578125 44.4375 -20.734375 44.28125 -20.734375 C 44.050781 -20.734375 43.972656 -20.65625 44.046875 -20.5 Z M 35.328125 -20.015625 L 36.046875 -19.90625 C 36.046875 -20.144531 35.96875 -20.265625 35.8125 -20.265625 L 35.328125 -20.609375 Z M 51.828125 -18.375 C 51.984375 -18.6875 52.375 -19 53 -19.3125 L 52.40625 -19.3125 C 52.09375 -19.3125 51.898438 -19.46875 51.828125 -19.78125 C 51.671875 -19.863281 51.429688 -20.0625 51.109375 -20.375 L 50.765625 -19.203125 C 51.160156 -19.046875 51.515625 -18.769531 51.828125 -18.375 Z M 37.21875 -19.90625 C 37.6875 -19.351562 38.078125 -19.117188 38.390625 -19.203125 L 38.390625 -19.3125 C 38.390625 -19.394531 38.429688 -19.4375 38.515625 -19.4375 L 38.15625 -20.140625 L 37.453125 -20.265625 Z M 40.40625 -19.78125 L 40.75 -19.671875 L 40.75 -20.265625 L 40.515625 -20.265625 Z M 48.296875 -20.015625 L 47.578125 -20.015625 L 47.578125 -19.78125 L 48.171875 -19.78125 Z M 47.9375 -18.84375 L 47.9375 -18.25 L 48.765625 -18.140625 L 49.34375 -18.140625 C 49.425781 -18.210938 49.546875 -18.25 49.703125 -18.25 C 49.703125 -18.40625 49.742188 -18.484375 49.828125 -18.484375 L 49.9375 -18.734375 C 49.695312 -18.960938 49.578125 -19.273438 49.578125 -19.671875 C 49.191406 -19.203125 48.921875 -18.96875 48.765625 -18.96875 L 48.40625 -18.96875 Z M 41.109375 -18.96875 C 40.554688 -18.570312 40.28125 -18.253906 40.28125 -18.015625 C 40.28125 -17.785156 40.515625 -17.472656 40.984375 -17.078125 C 41.453125 -16.679688 41.847656 -16.445312 42.171875 -16.375 C 42.171875 -16.53125 42.207031 -16.609375 42.28125 -16.609375 C 42.28125 -16.679688 42.320312 -16.71875 42.40625 -16.71875 L 41.8125 -16.953125 C 41.726562 -16.953125 41.609375 -17.035156 41.453125 -17.203125 L 41.453125 -17.90625 L 41.578125 -17.90625 L 42.171875 -17.78125 C 42.171875 -17.78125 42.484375 -17.46875 43.109375 -16.84375 C 43.109375 -16.914062 43.304688 -16.835938 43.703125 -16.609375 C 44.015625 -16.453125 44.171875 -16.296875 44.171875 -16.140625 C 44.171875 -15.984375 44.050781 -15.785156 43.8125 -15.546875 C 43.65625 -15.304688 43.421875 -15.066406 43.109375 -14.828125 C 42.796875 -14.597656 42.484375 -14.40625 42.171875 -14.25 C 42.015625 -14.09375 41.851562 -14.015625 41.6875 -14.015625 C 42.238281 -14.015625 42.632812 -13.894531 42.875 -13.65625 C 43.101562 -13.34375 43.140625 -13.03125 42.984375 -12.71875 C 43.378906 -12.71875 43.65625 -12.757812 43.8125 -12.84375 L 43.8125 -13.546875 L 44.40625 -13.890625 L 45 -14.25 C 44.675781 -14.5625 44.515625 -14.875 44.515625 -15.1875 C 44.835938 -15.34375 45.078125 -15.503906 45.234375 -15.671875 C 45.460938 -15.742188 45.632812 -15.816406 45.75 -15.890625 C 45.875 -15.972656 45.972656 -16.015625 46.046875 -16.015625 C 45.578125 -16.015625 45.144531 -16.128906 44.75 -16.359375 C 44.363281 -16.597656 44.128906 -16.757812 44.046875 -16.84375 L 44.171875 -17.3125 C 44.171875 -17.550781 44.207031 -17.671875 44.28125 -17.671875 C 44.28125 -17.671875 44.300781 -17.6875 44.34375 -17.71875 C 44.382812 -17.757812 44.40625 -17.78125 44.40625 -17.78125 C 44.476562 -17.78125 44.515625 -17.820312 44.515625 -17.90625 C 45.378906 -17.90625 45.929688 -18.097656 46.171875 -18.484375 L 45.703125 -18.609375 L 44.515625 -18.84375 C 44.515625 -18.21875 44.28125 -17.941406 43.8125 -18.015625 L 43.46875 -18.375 C 43.46875 -18.613281 43.660156 -18.847656 44.046875 -19.078125 L 43.8125 -19.078125 L 43.703125 -19.203125 C 43.546875 -19.203125 43.46875 -19.238281 43.46875 -19.3125 C 43.300781 -19.15625 43.0625 -19.078125 42.75 -19.078125 L 42.046875 -18.734375 C 42.441406 -18.335938 42.640625 -18.140625 42.640625 -18.140625 L 42.171875 -17.90625 L 41.6875 -18.015625 C 41.613281 -18.015625 41.5 -18.09375 41.34375 -18.25 L 41.34375 -18.609375 Z M 51.234375 -16.375 C 51.234375 -16.601562 51.253906 -16.816406 51.296875 -17.015625 C 51.335938 -17.210938 51.316406 -17.390625 51.234375 -17.546875 L 51.109375 -17.90625 C 50.640625 -17.90625 50.289062 -17.828125 50.0625 -17.671875 L 49.9375 -16.953125 L 50.171875 -16.953125 L 50.296875 -16.84375 C 49.503906 -17.082031 49.148438 -17.160156 49.234375 -17.078125 C 48.921875 -17.160156 48.609375 -17.160156 48.296875 -17.078125 C 48.523438 -16.835938 48.523438 -16.71875 48.296875 -16.71875 C 48.140625 -16.5625 48.0625 -16.40625 48.0625 -16.25 L 47.9375 -15.78125 C 48.5625 -16.019531 49.191406 -16.140625 49.828125 -16.140625 Z M 36.515625 -16.140625 L 36.859375 -16.015625 L 37.09375 -17.671875 L 36.75 -17.671875 Z M 52.765625 -17.078125 C 52.679688 -17.316406 52.5625 -17.4375 52.40625 -17.4375 C 52.25 -17.4375 52.09375 -17.359375 51.9375 -17.203125 Z M 34.859375 -15.421875 C 35.097656 -15.585938 35.097656 -15.785156 34.859375 -16.015625 Z M 41.9375 -15.421875 L 40.875 -15.78125 L 40.640625 -15.546875 Z M 37.34375 -14.84375 C 38.039062 -14.601562 38.429688 -14.367188 38.515625 -14.140625 C 38.429688 -14.054688 38.390625 -13.859375 38.390625 -13.546875 C 38.390625 -13.078125 38.742188 -12.878906 39.453125 -12.953125 C 38.984375 -13.421875 38.75 -13.851562 38.75 -14.25 L 38.984375 -14.71875 C 39.140625 -14.875 39.21875 -14.992188 39.21875 -15.078125 C 37.96875 -14.921875 37.34375 -14.84375 37.34375 -14.84375 Z M 49.578125 -11.546875 C 49.816406 -11.546875 50.015625 -11.503906 50.171875 -11.421875 C 50.171875 -11.421875 50.148438 -11.441406 50.109375 -11.484375 C 50.078125 -11.523438 50.0625 -11.546875 50.0625 -11.546875 C 50.0625 -11.546875 50.375 -11.859375 51 -12.484375 C 50.21875 -12.953125 49.785156 -13.226562 49.703125 -13.3125 C 49.304688 -13.695312 48.914062 -14.007812 48.53125 -14.25 L 49.703125 -14.375 C 49.703125 -14.53125 49.625 -14.644531 49.46875 -14.71875 C 49.226562 -15.113281 48.757812 -15.113281 48.0625 -14.71875 C 47.820312 -14.488281 47.625 -14.410156 47.46875 -14.484375 L 48.53125 -13.546875 C 48.914062 -13.078125 49.304688 -12.722656 49.703125 -12.484375 C 49.703125 -12.242188 49.523438 -12.023438 49.171875 -11.828125 C 48.816406 -11.640625 48.445312 -11.503906 48.0625 -11.421875 C 47.582031 -11.265625 47.226562 -11.1875 47 -11.1875 C 46.601562 -11.03125 46.40625 -10.875 46.40625 -10.71875 L 47.109375 -10.953125 C 47.191406 -11.035156 47.3125 -11.078125 47.46875 -11.078125 C 47.625 -11.078125 47.820312 -11.15625 48.0625 -11.3125 C 48.53125 -11.46875 49.035156 -11.546875 49.578125 -11.546875 Z M 52.296875 -14.140625 C 52.453125 -14.296875 52.332031 -14.410156 51.9375 -14.484375 C 51.625 -14.566406 51.390625 -14.488281 51.234375 -14.25 L 51.59375 -13.890625 Z M 37.6875 -14.015625 L 36.984375 -14.375 C 36.742188 -14.050781 36.703125 -13.773438 36.859375 -13.546875 C 36.859375 -13.148438 36.664062 -12.953125 36.28125 -12.953125 C 36.59375 -12.953125 36.828125 -12.992188 36.984375 -13.078125 L 37.6875 -13.1875 Z M 51.234375 -13.65625 L 50.640625 -13.78125 L 50.640625 -13.546875 L 51.234375 -13.421875 Z M 42.640625 -12.015625 L 42.640625 -12.359375 L 42.171875 -12.359375 L 42.046875 -12.125 Z M 41.9375 -11.1875 C 42.09375 -11.03125 42.304688 -10.875 42.578125 -10.71875 C 42.847656 -10.5625 43.101562 -10.441406 43.34375 -10.359375 C 43.425781 -10.671875 43.601562 -10.867188 43.875 -10.953125 C 44.144531 -11.035156 44.4375 -11.09375 44.75 -11.125 C 45.070312 -11.164062 45.3125 -11.1875 45.46875 -11.1875 L 45.46875 -11.546875 C 45.382812 -11.617188 45.34375 -11.734375 45.34375 -11.890625 L 44.40625 -12.015625 C 44.164062 -11.929688 44.046875 -11.773438 44.046875 -11.546875 C 44.046875 -11.390625 43.929688 -11.234375 43.703125 -11.078125 C 43.378906 -11.390625 43.101562 -11.546875 42.875 -11.546875 L 42.40625 -11.546875 Z M 40.984375 -10.953125 L 41.6875 -10.484375 L 41.9375 -10.71875 L 41.21875 -11.078125 Z M 48.296875 -8.953125 C 48.210938 -8.554688 48.445312 -8.320312 49 -8.25 C 49.3125 -8.632812 49.585938 -8.828125 49.828125 -8.828125 C 49.585938 -9.066406 49.46875 -9.1875 49.46875 -9.1875 L 49.109375 -9.546875 L 49.703125 -10.015625 L 48.765625 -10.25 C 48.679688 -10.320312 48.285156 -10.4375 47.578125 -10.59375 L 47.234375 -10.015625 C 47.617188 -10.015625 48.050781 -9.9375 48.53125 -9.78125 Z M 44.28125 -9.890625 C 44.125 -9.816406 44.046875 -9.660156 44.046875 -9.421875 C 45.066406 -9.265625 45.773438 -9.226562 46.171875 -9.3125 L 45.46875 -9.890625 C 45.070312 -10.046875 44.832031 -10.203125 44.75 -10.359375 C 44.59375 -10.285156 44.4375 -10.128906 44.28125 -9.890625 Z M 50.171875 -10.015625 L 51.234375 -9.890625 L 51.359375 -10.25 L 50.171875 -10.359375 Z M 35.8125 -9.421875 L 35.6875 -10.25 L 35.328125 -10.125 C 35.171875 -10.125 35.015625 -10.046875 34.859375 -9.890625 L 35.09375 -9.65625 L 35.09375 -9.546875 Z M 38.15625 -9.1875 L 38.515625 -9.65625 L 38.15625 -9.78125 L 37.8125 -9.421875 Z M 40.984375 -8.359375 C 41.535156 -8.203125 41.929688 -8.203125 42.171875 -8.359375 L 42.640625 -8.359375 C 42.085938 -8.515625 41.832031 -8.726562 41.875 -9 C 41.914062 -9.28125 41.9375 -9.460938 41.9375 -9.546875 C 41.382812 -9.546875 41.109375 -9.425781 41.109375 -9.1875 Z M 36.515625 -8.953125 C 36.429688 -8.953125 36.390625 -8.929688 36.390625 -8.890625 C 36.390625 -8.847656 36.429688 -8.828125 36.515625 -8.828125 C 36.515625 -8.828125 36.53125 -8.804688 36.5625 -8.765625 C 36.601562 -8.734375 36.625 -8.71875 36.625 -8.71875 L 36.625 -8.828125 Z M 46.765625 -8.953125 C 46.765625 -8.710938 46.566406 -8.320312 46.171875 -7.78125 L 47 -7.78125 C 47.382812 -8.164062 47.617188 -8.4375 47.703125 -8.59375 C 47.546875 -8.59375 47.390625 -8.671875 47.234375 -8.828125 C 47.148438 -8.910156 46.992188 -8.953125 46.765625 -8.953125 Z M 51.9375 -8.71875 C 51.382812 -8.476562 51.109375 -8.28125 51.109375 -8.125 L 50.640625 -7.421875 L 50.40625 -7.53125 C 50.40625 -7.695312 50.285156 -7.78125 50.046875 -7.78125 C 49.816406 -7.78125 49.660156 -7.695312 49.578125 -7.53125 L 49.46875 -7.1875 C 49.539062 -7.03125 49.8125 -6.890625 50.28125 -6.765625 C 50.757812 -6.648438 51.234375 -6.59375 51.703125 -6.59375 Z M 40.75 -7.65625 C 40.988281 -7.8125 41.109375 -7.96875 41.109375 -8.125 C 40.710938 -7.8125 40.359375 -7.8125 40.046875 -8.125 C 39.890625 -8.207031 39.769531 -8.285156 39.6875 -8.359375 C 39.613281 -8.441406 39.5 -8.484375 39.34375 -8.484375 C 39.414062 -8.398438 39.488281 -8.28125 39.5625 -8.125 C 39.644531 -7.96875 39.765625 -7.851562 39.921875 -7.78125 C 40.160156 -7.382812 40.359375 -7.1875 40.515625 -7.1875 Z M 37.453125 -7.0625 C 37.453125 -7.375 37.53125 -7.53125 37.6875 -7.53125 C 37.6875 -7.613281 37.609375 -7.65625 37.453125 -7.65625 L 37.21875 -7.78125 C 37.132812 -7.78125 37.015625 -7.859375 36.859375 -8.015625 L 36.046875 -7.421875 C 36.046875 -7.421875 36.023438 -7.4375 35.984375 -7.46875 C 35.941406 -7.507812 35.921875 -7.53125 35.921875 -7.53125 C 36.546875 -6.90625 36.976562 -6.632812 37.21875 -6.71875 C 37.375 -6.875 37.453125 -6.988281 37.453125 -7.0625 Z M 48.765625 -7.890625 L 48.296875 -7.78125 L 48.296875 -7.53125 L 48.875 -7.65625 Z M 48.0625 -4.234375 C 48.84375 -4.390625 49.3125 -4.429688 49.46875 -4.359375 C 49 -5.066406 48.765625 -5.421875 48.765625 -5.421875 C 48.523438 -5.804688 48.265625 -6.019531 47.984375 -6.0625 C 47.710938 -6.101562 47.5 -6.003906 47.34375 -5.765625 C 47.1875 -5.535156 46.992188 -5.34375 46.765625 -5.1875 C 46.679688 -5.1875 46.640625 -5.222656 46.640625 -5.296875 L 46.53125 -5.421875 L 46.28125 -5.421875 C 45.96875 -5.421875 45.734375 -5.378906 45.578125 -5.296875 C 45.578125 -5.296875 45.34375 -5.21875 44.875 -5.0625 C 44.632812 -5.300781 44.476562 -5.421875 44.40625 -5.421875 C 44.25 -5.578125 44.128906 -5.65625 44.046875 -5.65625 C 43.890625 -5.65625 43.8125 -5.734375 43.8125 -5.890625 L 43.8125 -6.59375 C 44.601562 -6.988281 45.269531 -7.066406 45.8125 -6.828125 C 45.34375 -7.066406 44.890625 -7.285156 44.453125 -7.484375 C 44.023438 -7.679688 43.65625 -7.78125 43.34375 -7.78125 L 42.640625 -7.78125 C 42.398438 -7.144531 41.925781 -6.828125 41.21875 -6.828125 C 41.53125 -6.828125 41.847656 -6.671875 42.171875 -6.359375 L 43.109375 -5.65625 C 43.347656 -5.5 43.546875 -5.265625 43.703125 -4.953125 C 42.835938 -5.179688 42.207031 -5.21875 41.8125 -5.0625 C 41.8125 -4.988281 41.867188 -4.867188 41.984375 -4.703125 C 42.109375 -4.546875 42.285156 -4.46875 42.515625 -4.46875 L 46.28125 -4.125 Z M 34.859375 -7.421875 C 34.628906 -7.265625 34.375 -7.066406 34.09375 -6.828125 C 33.820312 -6.597656 33.6875 -6.441406 33.6875 -6.359375 C 33.84375 -6.597656 34.078125 -6.832031 34.390625 -7.0625 Z M 38.984375 -6.25 C 39.296875 -6.476562 39.335938 -6.75 39.109375 -7.0625 C 38.953125 -7.0625 38.675781 -6.945312 38.28125 -6.71875 C 38.4375 -6.5625 38.671875 -6.40625 38.984375 -6.25 Z M 46.875 -6.828125 C 46.957031 -6.753906 47.015625 -6.695312 47.046875 -6.65625 C 47.085938 -6.613281 47.109375 -6.554688 47.109375 -6.484375 L 47 -6.359375 L 48.0625 -6.359375 L 48.0625 -6.71875 C 48.0625 -6.71875 48.039062 -6.734375 48 -6.765625 C 47.957031 -6.804688 47.9375 -6.828125 47.9375 -6.828125 C 47.9375 -6.828125 47.859375 -6.90625 47.703125 -7.0625 C 47.546875 -7.0625 47.425781 -7.023438 47.34375 -6.953125 Z M 49.46875 -6.359375 L 48.765625 -6.359375 L 48.640625 -6 L 49.46875 -5.890625 Z M 37.34375 -5.1875 C 37.5 -5.34375 37.535156 -5.5 37.453125 -5.65625 L 37.34375 -6 L 36.28125 -6.125 C 36.507812 -5.8125 36.703125 -5.613281 36.859375 -5.53125 Z M 37.34375 -5.1875 "/></g></g></g><g fill="#0097b2" fill-opacity="1"><g transform="translate(173.724193, 230.319667)"><g><path d="M 53.59375 -82.09375 C 54.375 -82.09375 55 -81.859375 55.46875 -81.390625 C 55.945312 -80.921875 56.1875 -80.332031 56.1875 -79.625 L 55.828125 -65.609375 C 55.671875 -64.109375 54.925781 -63.320312 53.59375 -63.25 L 21.203125 -59.828125 L 20.375 -50.0625 L 44.640625 -51.359375 L 44.640625 -39.8125 L 45.109375 -39.8125 L 45.109375 -51.359375 C 45.734375 -51.359375 46.300781 -51.117188 46.8125 -50.640625 C 47.320312 -50.171875 47.578125 -49.625 47.578125 -49 L 47.578125 -36.75 C 47.578125 -35.414062 46.910156 -34.628906 45.578125 -34.390625 L 19.78125 -30.96875 L 19.203125 -21.203125 L 50.640625 -22.140625 C 51.347656 -22.140625 51.9375 -21.90625 52.40625 -21.4375 C 52.882812 -20.96875 53.125 -20.414062 53.125 -19.78125 L 53.125 -4.953125 C 53.125 -3.453125 52.375 -2.664062 50.875 -2.59375 L 1.296875 0 C 0.585938 0 0 -0.210938 -0.46875 -0.640625 C -0.9375 -1.078125 -1.171875 -1.6875 -1.171875 -2.46875 C -1.015625 -14.09375 -0.664062 -26.1875 -0.125 -38.75 C 0.425781 -50.289062 1.410156 -63.285156 2.828125 -77.734375 C 3.066406 -79.148438 3.851562 -79.859375 5.1875 -79.859375 Z M 20.015625 -79.5 L 20.265625 -79.5 L 20.265625 -79.859375 L 20.015625 -79.859375 Z M 27.671875 -78.796875 C 27.597656 -78.710938 27.578125 -78.648438 27.609375 -78.609375 C 27.648438 -78.578125 27.753906 -78.5625 27.921875 -78.5625 C 27.753906 -78.5625 27.671875 -78.640625 27.671875 -78.796875 Z M 29.921875 -76.796875 C 30.078125 -76.953125 30.15625 -77.109375 30.15625 -77.265625 C 30.15625 -77.578125 29.914062 -77.734375 29.4375 -77.734375 C 28.96875 -77.734375 28.617188 -77.578125 28.390625 -77.265625 L 28.03125 -76.796875 C 28.269531 -76.953125 28.390625 -77.109375 28.390625 -77.265625 L 28.96875 -77.375 C 29.445312 -77.300781 29.6875 -77.109375 29.6875 -76.796875 L 29.6875 -76.328125 C 29.6875 -76.484375 29.765625 -76.640625 29.921875 -76.796875 Z M 47.578125 -77.625 L 47.34375 -77.625 L 47.34375 -77.265625 L 47.578125 -77.265625 Z M 14.140625 -76.90625 L 16.609375 -76.90625 L 16.609375 -77.265625 L 14.140625 -77.265625 Z M 22.609375 -77.265625 L 20.96875 -77.265625 L 20.96875 -77.140625 L 20.734375 -77.140625 C 20.335938 -76.984375 20.140625 -76.867188 20.140625 -76.796875 L 20.96875 -76.796875 L 21.078125 -76.90625 L 22.609375 -76.90625 Z M 18.734375 -76.796875 L 19.078125 -76.796875 L 19.078125 -77.03125 L 18.734375 -77.03125 Z M 38.28125 -76.796875 L 37.34375 -76.796875 L 37.34375 -76.328125 L 38.28125 -76.328125 Z M 24.265625 -76.328125 C 24.109375 -76.328125 24.03125 -76.128906 24.03125 -75.734375 C 24.03125 -75.734375 24.1875 -75.890625 24.5 -76.203125 C 24.738281 -76.441406 24.660156 -76.484375 24.265625 -76.328125 Z M 32.03125 -75.96875 L 31.5625 -75.96875 L 31.5625 -75.734375 L 32.03125 -75.734375 Z M 13.078125 -73.96875 L 13.1875 -73.5 L 13.1875 -73.265625 L 13.65625 -73.265625 C 13.65625 -73.335938 13.734375 -73.453125 13.890625 -73.609375 C 14.054688 -73.765625 14.140625 -73.84375 14.140625 -73.84375 Z M 27.4375 -72.3125 C 27.050781 -72.46875 26.859375 -72.625 26.859375 -72.78125 L 26.859375 -72.90625 L 27.4375 -73.5 L 26.96875 -73.265625 L 26.734375 -73.265625 C 26.660156 -73.265625 26.601562 -73.242188 26.5625 -73.203125 C 26.519531 -73.160156 26.460938 -73.140625 26.390625 -73.140625 L 26.140625 -73.140625 C 25.753906 -72.984375 25.441406 -72.671875 25.203125 -72.203125 L 25.4375 -71.96875 L 26.859375 -71.96875 C 26.929688 -71.96875 26.988281 -71.984375 27.03125 -72.015625 C 27.070312 -72.054688 27.09375 -72.078125 27.09375 -72.078125 L 27.203125 -72.078125 Z M 31.453125 -71.96875 L 31.5625 -71.96875 L 31.6875 -71.84375 L 31.796875 -72.203125 L 31.453125 -72.203125 Z M 24.734375 -71.140625 L 24.5 -71.84375 C 23.875 -71.613281 23.5625 -71.378906 23.5625 -71.140625 C 23.789062 -71.054688 23.945312 -71.054688 24.03125 -71.140625 Z M 29.921875 -70.203125 C 29.921875 -70.359375 29.722656 -70.59375 29.328125 -70.90625 L 28.96875 -70.203125 Z M 34.75 -70.078125 C 34.75 -70.160156 34.671875 -70.28125 34.515625 -70.4375 L 34.28125 -70.671875 C 33.644531 -70.429688 33.328125 -70.195312 33.328125 -69.96875 Z M 26.859375 -69.96875 C 26.378906 -70.195312 26.023438 -70.3125 25.796875 -70.3125 C 25.398438 -70.3125 25.203125 -70.113281 25.203125 -69.71875 L 25.796875 -69.375 L 26.140625 -69.25 L 26.265625 -69.25 C 26.421875 -69.25 26.5 -69.367188 26.5 -69.609375 Z M 31.453125 -69.015625 C 31.609375 -68.859375 31.800781 -68.859375 32.03125 -69.015625 C 32.03125 -69.484375 31.875 -69.757812 31.5625 -69.84375 L 31.09375 -69.71875 L 30.625 -69.609375 L 30.859375 -69.015625 Z M 6.71875 -69.375 L 6.59375 -69.375 L 6.359375 -69.25 L 6.59375 -69.140625 Z M 28.625 -68.3125 C 28.851562 -68.3125 28.96875 -68.46875 28.96875 -68.78125 C 28.96875 -69.09375 28.773438 -69.25 28.390625 -69.25 L 28.15625 -69.140625 L 28.03125 -69.140625 L 27.921875 -69.015625 C 27.753906 -68.859375 27.671875 -68.703125 27.671875 -68.546875 L 27.796875 -68.3125 Z M 46.171875 -69.140625 L 45.9375 -69.140625 L 45.9375 -68.546875 L 46.171875 -68.546875 Z M 28.390625 -63.359375 L 28.15625 -63.359375 L 28.15625 -63.015625 L 28.390625 -63.015625 Z M 18.84375 -63.015625 C 18.6875 -63.015625 18.609375 -62.894531 18.609375 -62.65625 L 18.84375 -62.65625 L 18.96875 -62.78125 C 18.882812 -62.78125 18.84375 -62.859375 18.84375 -63.015625 Z M 18.140625 -57.234375 C 17.984375 -57.078125 17.90625 -57 17.90625 -57 L 18.484375 -56.890625 C 18.566406 -56.960938 18.566406 -57.160156 18.484375 -57.484375 C 18.410156 -57.484375 18.296875 -57.398438 18.140625 -57.234375 Z M 18.734375 -54.890625 L 18.84375 -55 L 18.25 -55.125 L 18.25 -55 Z M 19.4375 -50.171875 L 20.015625 -50.171875 L 20.015625 -50.765625 L 19.4375 -50.765625 Z M 19.78125 -48.640625 C 19.550781 -48.640625 19.394531 -48.679688 19.3125 -48.765625 L 18.84375 -48.875 L 18.734375 -48.765625 C 18.492188 -48.679688 18.375 -48.523438 18.375 -48.296875 C 18.375 -47.898438 18.6875 -47.703125 19.3125 -47.703125 C 19.550781 -47.703125 19.707031 -47.738281 19.78125 -47.8125 Z M 28.734375 -47.9375 L 28.859375 -47.9375 L 28.859375 -48.0625 Z M 45.578125 -46.40625 C 45.816406 -46.40625 46.015625 -46.363281 46.171875 -46.28125 L 46.765625 -46.171875 L 47.234375 -46.765625 L 47.234375 -47.703125 C 47.148438 -47.773438 47.007812 -47.851562 46.8125 -47.9375 C 46.625 -48.019531 46.445312 -48.0625 46.28125 -48.0625 L 45.578125 -47.578125 Z M 29.328125 -47.8125 L 29.5625 -47.9375 L 29.328125 -47.9375 Z M 26.265625 -46.640625 L 26.859375 -46.171875 C 27.015625 -46.242188 27.109375 -46.378906 27.140625 -46.578125 C 27.179688 -46.773438 27.125 -46.914062 26.96875 -47 Z M 29.328125 -46.53125 L 29.796875 -46.28125 L 30.03125 -47 L 29.5625 -47 Z M 22.375 -45.703125 C 22.84375 -45.859375 22.84375 -46.09375 22.375 -46.40625 Z M 20.609375 -45 L 21.078125 -44.515625 L 21.671875 -44.40625 L 21.796875 -44.515625 L 22.03125 -44.515625 L 22.03125 -45.109375 C 21.707031 -45.109375 21.46875 -45.1875 21.3125 -45.34375 L 21.078125 -45.234375 C 21.078125 -45.234375 21.054688 -45.210938 21.015625 -45.171875 C 20.984375 -45.128906 20.96875 -45.109375 20.96875 -45.109375 Z M 26.265625 -45.109375 L 26.5 -44.640625 L 27.328125 -44.640625 L 26.96875 -44.875 L 26.5 -45.234375 Z M 18.484375 -44.75 C 18.410156 -44.832031 18.253906 -44.910156 18.015625 -44.984375 C 17.785156 -45.066406 17.59375 -45.109375 17.4375 -45.109375 C 17.4375 -44.953125 17.550781 -44.796875 17.78125 -44.640625 C 17.9375 -44.484375 18.289062 -44.40625 18.84375 -44.40625 L 19.203125 -44.40625 L 19.203125 -44.75 Z M 26.03125 -43.34375 L 26.96875 -43.34375 C 27.125 -43.425781 27.203125 -43.546875 27.203125 -43.703125 L 27.203125 -44.171875 L 26.265625 -44.171875 L 26.140625 -43.703125 Z M 17.671875 -42.640625 C 17.671875 -42.554688 17.6875 -42.492188 17.71875 -42.453125 C 17.757812 -42.421875 17.820312 -42.441406 17.90625 -42.515625 L 18.25 -42.640625 L 18.015625 -42.75 L 17.90625 -42.75 C 17.75 -42.75 17.671875 -42.710938 17.671875 -42.640625 Z M 16.25 -40.40625 C 16.644531 -40.40625 16.921875 -40.484375 17.078125 -40.640625 C 16.921875 -40.640625 16.765625 -40.71875 16.609375 -40.875 L 16.484375 -40.984375 L 15.90625 -40.984375 C 15.664062 -40.753906 15.546875 -40.519531 15.546875 -40.28125 Z M 17.90625 -39.8125 C 17.507812 -39.8125 16.957031 -39.890625 16.25 -40.046875 L 15.90625 -39.8125 L 16.25 -39.34375 C 16.40625 -39.726562 16.601562 -39.84375 16.84375 -39.6875 C 17.3125 -39.6875 17.664062 -39.726562 17.90625 -39.8125 Z M 12.84375 -39.8125 C 12.601562 -39.726562 12.484375 -39.570312 12.484375 -39.34375 L 12.84375 -39.109375 L 13.3125 -39.21875 C 13.3125 -39.375 13.425781 -39.492188 13.65625 -39.578125 L 13.3125 -39.6875 Z M 44.875 -36.625 L 45.34375 -37.21875 L 45.578125 -37.6875 L 45.34375 -38.515625 C 45.269531 -38.585938 45.113281 -38.941406 44.875 -39.578125 Z M 17.78125 -37.6875 C 17.78125 -37.84375 18.015625 -38.238281 18.484375 -38.875 L 18.015625 -38.984375 L 17.546875 -38.984375 C 17.316406 -38.984375 17.082031 -38.90625 16.84375 -38.75 L 15.90625 -38.390625 C 16.132812 -38.316406 16.347656 -38.238281 16.546875 -38.15625 C 16.742188 -38.082031 16.878906 -38.003906 16.953125 -37.921875 C 16.796875 -37.535156 16.757812 -37.257812 16.84375 -37.09375 L 17.90625 -37.34375 Z M 14.609375 -37.921875 C 14.835938 -37.765625 15.03125 -37.765625 15.1875 -37.921875 L 15.078125 -38.046875 L 14.84375 -38.15625 L 14.609375 -38.046875 Z M 18.375 -38.046875 C 18.445312 -37.804688 18.539062 -37.644531 18.65625 -37.5625 C 18.78125 -37.488281 18.960938 -37.453125 19.203125 -37.453125 C 19.273438 -37.453125 19.546875 -37.53125 20.015625 -37.6875 L 19.671875 -38.046875 Z M 14.84375 -37.6875 C 14.375 -37.457031 14.253906 -37.257812 14.484375 -37.09375 L 14.609375 -36.625 C 14.921875 -36.625 15.15625 -36.703125 15.3125 -36.859375 C 15.3125 -37.179688 15.15625 -37.457031 14.84375 -37.6875 Z M 20.140625 -36.515625 L 19.546875 -36.515625 C 19.316406 -36.515625 19.203125 -36.4375 19.203125 -36.28125 C 19.203125 -36.125 19.125 -36.046875 18.96875 -36.046875 C 18.96875 -36.429688 18.847656 -36.664062 18.609375 -36.75 L 17.90625 -36.75 C 17.90625 -36.59375 17.984375 -36.515625 18.140625 -36.515625 L 18.484375 -36.15625 L 17.671875 -35.8125 L 17.078125 -35.328125 C 17.160156 -35.253906 17.257812 -35.21875 17.375 -35.21875 C 17.488281 -35.21875 17.585938 -35.175781 17.671875 -35.09375 L 18.609375 -35.09375 C 18.921875 -35.09375 19.429688 -35.25 20.140625 -35.5625 Z M 15.90625 -36.046875 C 15.664062 -36.046875 15.46875 -35.90625 15.3125 -35.625 C 15.15625 -35.351562 15.078125 -35.097656 15.078125 -34.859375 L 15.078125 -34.28125 C 15.472656 -33.957031 15.828125 -33.796875 16.140625 -33.796875 L 16.484375 -33.796875 L 16.84375 -34.03125 L 16.84375 -35.5625 L 16.375 -35.921875 Z M 14.015625 -35.453125 C 13.929688 -35.453125 13.8125 -35.390625 13.65625 -35.265625 C 13.5 -35.148438 13.421875 -35.054688 13.421875 -34.984375 C 13.734375 -34.898438 14.007812 -34.898438 14.25 -34.984375 Z M 40.15625 -34.75 L 41.578125 -34.75 L 41.578125 -35.09375 L 40.15625 -35.09375 Z M 19.546875 -34.390625 C 19.703125 -34.390625 19.78125 -34.507812 19.78125 -34.75 L 19.078125 -34.75 L 18.84375 -34.390625 Z M 13.078125 -34.28125 C 12.679688 -34.195312 12.484375 -34.035156 12.484375 -33.796875 L 13.078125 -33.796875 C 13.148438 -33.878906 13.148438 -34.039062 13.078125 -34.28125 Z M 18.484375 -33.5625 C 18.648438 -33.488281 18.890625 -33.453125 19.203125 -33.453125 C 19.203125 -33.679688 19.046875 -33.875 18.734375 -34.03125 Z M 15.078125 -33.5625 C 14.765625 -33.25 14.609375 -33.015625 14.609375 -32.859375 L 15.671875 -32.75 L 15.90625 -33.21875 C 15.75 -33.375 15.671875 -33.488281 15.671875 -33.5625 Z M 17.078125 -32.625 L 16.953125 -33.328125 C 16.566406 -33.328125 16.375 -33.171875 16.375 -32.859375 L 16.375 -32.390625 Z M 19.3125 -32.390625 C 19.3125 -32.546875 19.234375 -32.625 19.078125 -32.625 L 18.84375 -32.859375 C 18.6875 -32.785156 18.332031 -32.75 17.78125 -32.75 L 17.3125 -32.625 L 17.078125 -32.5 L 17.671875 -32.03125 C 18.140625 -32.1875 18.410156 -32.265625 18.484375 -32.265625 Z M 17.4375 -31.21875 L 17.78125 -31.453125 L 16.84375 -31.6875 L 16.84375 -31.21875 Z M 16.609375 -31.21875 C 16.296875 -31.375 15.984375 -31.453125 15.671875 -31.453125 L 15.90625 -30.96875 C 16.21875 -30.96875 16.453125 -31.050781 16.609375 -31.21875 Z M 15.1875 -30.5 C 15.1875 -30.425781 15.109375 -30.3125 14.953125 -30.15625 L 16.25 -30.03125 C 16.40625 -30.03125 16.484375 -30.148438 16.484375 -30.390625 Z M 14.015625 -29.6875 C 14.171875 -29.445312 14.40625 -29.328125 14.71875 -29.328125 L 14.25 -30.265625 L 13.421875 -30.15625 Z M 16.015625 -28.625 C 15.859375 -28.9375 15.820312 -29.128906 15.90625 -29.203125 C 15.976562 -29.441406 15.976562 -29.601562 15.90625 -29.6875 L 15.546875 -29.328125 C 15.460938 -29.328125 15.421875 -29.25 15.421875 -29.09375 L 15.421875 -28.625 Z M 18.375 -28.859375 C 18.769531 -28.859375 18.96875 -29.015625 18.96875 -29.328125 L 18.375 -29.328125 Z M 12.125 -29.203125 C 11.894531 -29.128906 11.78125 -29.015625 11.78125 -28.859375 L 12.484375 -28.625 C 12.484375 -28.78125 12.523438 -28.894531 12.609375 -28.96875 L 12.71875 -29.09375 Z M 15.421875 -28.390625 L 15.421875 -27.921875 L 15.78125 -27.921875 L 15.78125 -28.390625 Z M 16.015625 -28.15625 C 16.015625 -28 16.054688 -27.921875 16.140625 -27.921875 L 16.25 -27.671875 L 17.078125 -27.921875 C 16.992188 -27.921875 16.953125 -28 16.953125 -28.15625 L 16.953125 -28.265625 C 16.796875 -28.265625 16.675781 -28.242188 16.59375 -28.203125 C 16.519531 -28.171875 16.445312 -28.15625 16.375 -28.15625 Z M 17.90625 -27.09375 L 17.203125 -27.09375 L 17.203125 -26.625 L 17.90625 -26.625 Z M 11.1875 -26.390625 C 11.03125 -26.148438 11.070312 -25.910156 11.3125 -25.671875 C 11.695312 -25.828125 11.890625 -26.066406 11.890625 -26.390625 Z M 13.65625 -25.5625 L 13.890625 -25.4375 C 14.054688 -25.4375 14.175781 -25.476562 14.25 -25.5625 L 14.140625 -26.140625 L 13.890625 -26.140625 C 13.890625 -26.140625 13.867188 -26.117188 13.828125 -26.078125 C 13.796875 -26.046875 13.78125 -26.03125 13.78125 -26.03125 L 13.546875 -26.03125 L 13.546875 -25.5625 Z M 11.1875 -23.671875 C 11.5 -23.671875 11.695312 -23.710938 11.78125 -23.796875 C 11.78125 -23.867188 11.796875 -23.925781 11.828125 -23.96875 C 11.867188 -24.007812 11.929688 -24.066406 12.015625 -24.140625 L 11.65625 -24.375 L 11.078125 -24.140625 Z M 14.609375 -23.90625 L 14.015625 -23.90625 L 14.015625 -23.796875 L 14.484375 -23.671875 Z M 12.71875 -22.5 C 12.875 -22.34375 13.070312 -22.265625 13.3125 -22.265625 L 13.3125 -22.609375 C 13.3125 -22.609375 13.3125 -22.726562 13.3125 -22.96875 C 13.070312 -22.96875 12.875 -22.8125 12.71875 -22.5 Z M 23.078125 -18.015625 L 24.03125 -18.015625 L 24.03125 -18.25 L 23.078125 -18.25 Z M 27.796875 -17.90625 C 27.398438 -17.664062 27.203125 -17.546875 27.203125 -17.546875 C 27.441406 -17.472656 27.5625 -17.316406 27.5625 -17.078125 L 28.15625 -17.078125 C 28.3125 -17.234375 28.390625 -17.351562 28.390625 -17.4375 L 28.5 -17.671875 L 28.265625 -18.25 C 28.265625 -18.175781 28.222656 -18.097656 28.140625 -18.015625 C 28.066406 -17.941406 27.953125 -17.90625 27.796875 -17.90625 Z M 34.515625 -17.4375 L 34.75 -17.4375 L 34.859375 -17.671875 L 34.75 -17.78125 Z M 24.5 -17.671875 L 23.796875 -17.671875 L 23.796875 -17.4375 L 24.5 -17.4375 Z M 29.921875 -16.71875 L 30.390625 -16.84375 C 30.390625 -16.914062 30.347656 -16.953125 30.265625 -16.953125 C 30.265625 -16.953125 30.1875 -17.035156 30.03125 -17.203125 Z M 23.078125 -16.484375 L 23.328125 -16.25 C 23.710938 -16.40625 23.789062 -16.5625 23.5625 -16.71875 C 23.40625 -16.71875 23.328125 -16.679688 23.328125 -16.609375 L 23.078125 -16.609375 Z M 27.203125 -16.25 C 27.046875 -16.40625 26.851562 -16.484375 26.625 -16.484375 L 26.859375 -15.671875 C 26.859375 -15.671875 26.875 -15.6875 26.90625 -15.71875 C 26.945312 -15.757812 26.96875 -15.78125 26.96875 -15.78125 C 27.050781 -15.78125 27.09375 -15.859375 27.09375 -16.015625 C 27.164062 -16.015625 27.203125 -16.09375 27.203125 -16.25 Z M 29.4375 -16.015625 C 29.050781 -15.859375 28.859375 -15.660156 28.859375 -15.421875 L 29.4375 -15.421875 C 29.4375 -15.585938 29.476562 -15.707031 29.5625 -15.78125 Z M 12.71875 -14.25 L 12.71875 -13.546875 C 12.71875 -13.546875 12.796875 -13.625 12.953125 -13.78125 L 13.421875 -14.25 Z M 15.078125 -14.25 C 15.078125 -14.007812 15.273438 -13.890625 15.671875 -13.890625 L 15.671875 -14.140625 C 15.671875 -14.210938 15.707031 -14.25 15.78125 -14.25 Z M 21.203125 -13.890625 L 21.4375 -13.421875 L 21.671875 -13.421875 L 21.3125 -13.890625 Z M 32.5 -13.546875 C 32.5 -13.148438 32.695312 -12.953125 33.09375 -12.953125 L 33.328125 -13.3125 L 33.453125 -13.546875 Z M 28.390625 -13.3125 L 28.15625 -13.3125 L 28.03125 -12.953125 L 28.390625 -12.953125 Z M 24.609375 -12.609375 C 24.609375 -12.609375 24.628906 -12.625 24.671875 -12.65625 C 24.710938 -12.695312 24.734375 -12.71875 24.734375 -12.71875 L 24.5 -12.953125 L 24.265625 -12.953125 L 24.5 -12.484375 C 24.5 -12.484375 24.515625 -12.503906 24.546875 -12.546875 C 24.585938 -12.585938 24.609375 -12.609375 24.609375 -12.609375 Z M 14.375 -11.3125 L 13.421875 -11.3125 L 13.421875 -10.71875 L 14.375 -10.71875 Z M 3.53125 -8.71875 C 3.53125 -9.113281 3.648438 -9.347656 3.890625 -9.421875 L 2.359375 -9.421875 L 2.359375 -8.71875 Z M 46.40625 -8.953125 L 47.8125 -8.71875 L 47.8125 -9.0625 L 46.640625 -9.421875 Z M 11.1875 -9.1875 L 9.890625 -9.1875 L 9.890625 -8.71875 L 11.1875 -8.71875 Z M 18.96875 -8.71875 L 18.96875 -8.125 L 19.90625 -8.125 L 19.90625 -8.71875 Z M 25.4375 -8.25 C 25.363281 -8.09375 25.328125 -7.773438 25.328125 -7.296875 L 25.4375 -6.71875 L 27.09375 -6.71875 L 27.328125 -7.1875 C 27.398438 -7.257812 27.4375 -7.414062 27.4375 -7.65625 L 26.859375 -8.25 Z M 7.296875 -7.65625 L 8.59375 -7.65625 L 8.59375 -8.125 L 7.296875 -8.125 Z M 12.484375 -5.1875 C 12.722656 -5.257812 12.921875 -5.472656 13.078125 -5.828125 C 13.234375 -6.179688 13.3125 -6.554688 13.3125 -6.953125 C 13.3125 -7.421875 13.191406 -7.773438 12.953125 -8.015625 C 12.796875 -8.015625 12.484375 -7.894531 12.015625 -7.65625 C 12.328125 -6.945312 12.484375 -6.125 12.484375 -5.1875 Z M 0.703125 -6.828125 C 0.785156 -6.597656 1.003906 -6.5 1.359375 -6.53125 C 1.710938 -6.570312 1.96875 -6.671875 2.125 -6.828125 Z M 5.65625 -6.359375 L 5.421875 -6.359375 L 5.421875 -6.828125 L 4.359375 -6.828125 L 4.359375 -6.359375 L 5.421875 -6.359375 L 5.421875 -5.890625 L 5.65625 -5.890625 Z M 17.90625 -6.125 C 17.269531 -6.125 16.835938 -6.082031 16.609375 -6 L 15.90625 -5.765625 L 15.3125 -5.65625 C 15.46875 -5.570312 15.625 -5.429688 15.78125 -5.234375 C 15.9375 -5.046875 16.054688 -4.875 16.140625 -4.71875 C 16.523438 -4.945312 16.914062 -5.257812 17.3125 -5.65625 Z M 9.890625 -5.0625 C 10.046875 -5.300781 10.125 -5.535156 10.125 -5.765625 L 8.125 -5.765625 L 8.125 -4.71875 C 8.75 -4.71875 9.300781 -4.632812 9.78125 -4.46875 Z M 31.453125 -5.1875 L 32.265625 -5.1875 L 32.265625 -5.421875 L 31.453125 -5.421875 Z M 46.40625 -3.65625 C 46.40625 -3.414062 46.328125 -3.296875 46.171875 -3.296875 C 46.410156 -3.296875 46.644531 -3.414062 46.875 -3.65625 Z M 8.484375 -3.421875 L 7.53125 -3.421875 L 7.53125 -2.9375 L 8.484375 -2.9375 Z M 8.484375 -3.421875 "/></g></g></g><g fill="#0097b2" fill-opacity="1"><g transform="translate(234.606158, 230.319667)"><g><path d="M 51.828125 -43.703125 C 54.578125 -46.609375 56.460938 -49.863281 57.484375 -53.46875 L 57.59375 -53.59375 L 57.59375 -53.703125 C 58.21875 -56.453125 58.53125 -59.160156 58.53125 -61.828125 C 58.53125 -65.523438 57.863281 -68.550781 56.53125 -70.90625 C 53.863281 -75.695312 49.546875 -78.796875 43.578125 -80.203125 C 41.929688 -80.597656 39.851562 -80.796875 37.34375 -80.796875 C 34.820312 -80.796875 32.1875 -80.597656 29.4375 -80.203125 L 6.828125 -77.625 C 5.578125 -77.539062 4.875 -76.832031 4.71875 -75.5 L -1.171875 -2.59375 C -1.171875 -1.800781 -0.9375 -1.171875 -0.46875 -0.703125 C 0 -0.234375 0.546875 0 1.171875 0 L 28.265625 0 C 34.234375 0 39.0625 -0.785156 42.75 -2.359375 C 46.832031 -3.929688 50.09375 -6.753906 52.53125 -10.828125 C 54.96875 -14.910156 56.1875 -19.234375 56.1875 -23.796875 C 56.1875 -27.722656 55.59375 -30.941406 54.40625 -33.453125 C 53.226562 -35.960938 51.347656 -38.316406 48.765625 -40.515625 Z M 49.109375 -72.546875 L 48.875 -72.078125 L 48.640625 -72.078125 L 48.765625 -72.546875 Z M 31.921875 -70.203125 L 31.328125 -70.4375 C 31.015625 -70.59375 30.78125 -70.671875 30.625 -70.671875 L 31.09375 -71.015625 L 31.6875 -71.375 L 32.5 -70.671875 L 32.5 -70.4375 L 32.265625 -70.203125 Z M 32.03125 -66.546875 C 31.957031 -66.460938 31.84375 -66.421875 31.6875 -66.421875 L 31.5625 -66.671875 C 31.488281 -66.742188 31.453125 -66.859375 31.453125 -67.015625 L 31.5625 -67.609375 L 32.265625 -68.4375 C 32.265625 -68.269531 32.226562 -68.148438 32.15625 -68.078125 L 32.03125 -67.84375 C 31.875 -67.6875 31.875 -67.488281 32.03125 -67.25 C 32.1875 -67.09375 32.265625 -66.898438 32.265625 -66.671875 Z M 35.09375 -66.78125 L 35.328125 -66.78125 L 35.328125 -66.3125 L 35.09375 -66.3125 Z M 40.984375 -64.1875 L 41.21875 -64.65625 L 41.453125 -64.65625 L 41.21875 -64.078125 Z M 25.203125 -60.65625 C 28.347656 -61.207031 30.703125 -61.484375 32.265625 -61.484375 C 33.367188 -61.484375 34.3125 -61.207031 35.09375 -60.65625 C 35.644531 -60.34375 35.921875 -59.597656 35.921875 -58.421875 C 35.921875 -57.710938 35.800781 -56.769531 35.5625 -55.59375 C 35.09375 -53.863281 34.15625 -52.609375 32.75 -51.828125 C 30.226562 -50.328125 26.378906 -49.070312 21.203125 -48.0625 L 22.265625 -60.296875 Z M 42.40625 -56.1875 C 42.40625 -55.945312 42.328125 -55.75 42.171875 -55.59375 L 41.9375 -55.703125 C 41.9375 -55.867188 42.09375 -56.03125 42.40625 -56.1875 Z M 20.84375 -54.890625 C 20.84375 -54.492188 20.609375 -54.175781 20.140625 -53.9375 L 20.375 -53.46875 L 20.734375 -53.125 C 20.734375 -53.125 20.75 -53.101562 20.78125 -53.0625 C 20.820312 -53.019531 20.84375 -53 20.84375 -53 L 20.609375 -52.53125 L 19.90625 -52.53125 C 19.664062 -52.53125 19.546875 -52.648438 19.546875 -52.890625 L 19.3125 -53.359375 C 19.78125 -53.671875 19.9375 -53.90625 19.78125 -54.0625 L 19.4375 -54.0625 L 19.3125 -54.171875 L 19.203125 -54.171875 C 19.203125 -54.335938 19.28125 -54.421875 19.4375 -54.421875 L 19.671875 -54.421875 L 19.546875 -54.65625 C 19.546875 -54.65625 19.523438 -54.691406 19.484375 -54.765625 C 19.453125 -54.847656 19.394531 -54.890625 19.3125 -54.890625 L 19.3125 -55.234375 C 19.3125 -55.316406 19.351562 -55.359375 19.4375 -55.359375 L 19.4375 -55.59375 L 19.671875 -55.59375 L 20.015625 -55.828125 C 20.179688 -55.671875 20.265625 -55.59375 20.265625 -55.59375 L 20.734375 -55.125 Z M 53 -51.359375 C 52.84375 -51.191406 52.722656 -51.109375 52.640625 -51.109375 C 52.484375 -51.109375 52.40625 -51.070312 52.40625 -51 C 52.332031 -51 52.234375 -51.035156 52.109375 -51.109375 C 51.992188 -51.191406 51.9375 -51.3125 51.9375 -51.46875 C 51.9375 -51.707031 52.09375 -51.828125 52.40625 -51.828125 L 52.640625 -51.828125 L 53 -51.703125 Z M 19.90625 -51 C 19.976562 -50.914062 20.132812 -50.796875 20.375 -50.640625 L 20.5 -50.171875 L 19.203125 -50.171875 L 19.4375 -50.640625 L 19.671875 -50.765625 Z M 35.8125 -49.9375 C 35.96875 -50.09375 36.046875 -50.367188 36.046875 -50.765625 L 37.09375 -50.765625 L 37.09375 -50.40625 L 37.21875 -50.171875 L 37.21875 -49.9375 Z M 34.15625 -49.9375 C 34.15625 -49.695312 34.3125 -49.578125 34.625 -49.578125 C 34 -49.191406 33.453125 -49.191406 32.984375 -49.578125 L 33.6875 -49.703125 C 33.914062 -49.859375 34.085938 -49.972656 34.203125 -50.046875 C 34.328125 -50.128906 34.3125 -50.09375 34.15625 -49.9375 Z M 20.015625 -49.578125 C 20.015625 -49.503906 20.054688 -49.46875 20.140625 -49.46875 L 20.140625 -49.34375 L 19.4375 -49 C 19.125 -49.070312 18.804688 -49.347656 18.484375 -49.828125 L 19.4375 -49.9375 L 19.671875 -49.828125 L 19.90625 -49.828125 L 20.015625 -49.703125 Z M 36.515625 -49.34375 C 36.515625 -49.34375 36.53125 -49.320312 36.5625 -49.28125 C 36.601562 -49.25 36.625 -49.234375 36.625 -49.234375 L 36.625 -49 L 36.15625 -49 C 35.925781 -49 35.726562 -49.035156 35.5625 -49.109375 C 35.5625 -49.191406 35.660156 -49.289062 35.859375 -49.40625 C 36.054688 -49.519531 36.273438 -49.578125 36.515625 -49.578125 Z M 38.625 -47.234375 C 38.394531 -46.992188 38.160156 -46.875 37.921875 -46.875 C 37.765625 -46.875 37.53125 -46.796875 37.21875 -46.640625 C 37.21875 -46.796875 37.175781 -46.914062 37.09375 -47 L 36.859375 -47.109375 L 36.625 -47.34375 L 36.859375 -47.578125 L 37.21875 -48.0625 C 37.613281 -48.289062 37.847656 -48.523438 37.921875 -48.765625 Z M 31.09375 -48.296875 L 31.09375 -48.640625 L 32.03125 -48.53125 L 32.03125 -48.0625 Z M 14.609375 -47.234375 C 14.523438 -47.304688 14.367188 -47.34375 14.140625 -47.34375 L 13.890625 -47.46875 L 13.1875 -47.703125 C 13.1875 -47.941406 13.503906 -48.175781 14.140625 -48.40625 L 14.609375 -48.0625 Z M 31.5625 -47.9375 C 31.875 -47.695312 31.875 -47.421875 31.5625 -47.109375 L 31.328125 -47.109375 L 31.09375 -47.234375 C 31.09375 -47.234375 31.070312 -47.25 31.03125 -47.28125 C 30.988281 -47.320312 30.96875 -47.34375 30.96875 -47.34375 L 31.09375 -47.578125 L 31.328125 -47.8125 Z M 12.125 -46.875 C 11.894531 -46.875 11.703125 -46.914062 11.546875 -47 L 11.78125 -47.703125 C 11.851562 -47.703125 11.925781 -47.679688 12 -47.640625 C 12.082031 -47.597656 12.164062 -47.578125 12.25 -47.578125 L 12.71875 -47.578125 L 12.71875 -46.875 Z M 18.140625 -47 C 18.140625 -47.070312 18.195312 -47.128906 18.3125 -47.171875 C 18.425781 -47.210938 18.523438 -47.269531 18.609375 -47.34375 L 18.609375 -46.875 C 18.609375 -46.644531 18.566406 -46.445312 18.484375 -46.28125 L 17.90625 -46.640625 C 17.90625 -46.722656 17.984375 -46.84375 18.140625 -47 Z M 47.46875 -46.765625 C 47.539062 -46.835938 47.695312 -46.910156 47.9375 -46.984375 C 48.175781 -47.066406 48.410156 -47.109375 48.640625 -47.109375 L 49.109375 -47.109375 L 49.46875 -47 L 49 -46.53125 Z M 47 -46.53125 L 46.765625 -46.40625 L 46.640625 -46.765625 L 46.875 -46.765625 Z M 37.09375 -45.46875 L 37.09375 -46.171875 L 37.6875 -46.171875 L 37.6875 -45.46875 Z M 35.8125 -45.46875 C 36.351562 -45.226562 36.625 -44.910156 36.625 -44.515625 L 35.5625 -44.515625 C 35.726562 -44.835938 35.8125 -45.15625 35.8125 -45.46875 Z M 48.0625 -45.234375 L 47.578125 -45 L 47.578125 -45.234375 L 47.9375 -45.34375 Z M 30.96875 -41.109375 C 30.8125 -40.953125 30.617188 -40.988281 30.390625 -41.21875 L 30.265625 -41.578125 C 30.265625 -41.890625 30.421875 -42.046875 30.734375 -42.046875 C 30.972656 -42.046875 31.171875 -42.007812 31.328125 -41.9375 L 31.328125 -41.109375 Z M 38.984375 -40.28125 L 38.984375 -40.75 C 39.066406 -40.75 39.109375 -40.789062 39.109375 -40.875 L 39.8125 -40.875 L 39.578125 -40.28125 Z M 31.796875 -31.921875 C 31.410156 -31.921875 31.132812 -32.113281 30.96875 -32.5 C 31.289062 -32.5 31.53125 -32.460938 31.6875 -32.390625 C 31.757812 -32.304688 31.796875 -32.148438 31.796875 -31.921875 Z M 24.96875 -31.09375 L 25.09375 -31.21875 C 26.8125 -31.601562 28.257812 -31.796875 29.4375 -31.796875 C 30.300781 -31.796875 30.972656 -31.679688 31.453125 -31.453125 C 32.859375 -30.585938 33.5625 -29.328125 33.5625 -27.671875 C 33.5625 -26.648438 33.285156 -25.628906 32.734375 -24.609375 C 32.191406 -23.585938 31.523438 -22.765625 30.734375 -22.140625 C 29.328125 -21.046875 27.816406 -20.203125 26.203125 -19.609375 C 24.597656 -19.023438 22.535156 -18.613281 20.015625 -18.375 L 20.5 -30.15625 Z M 36.859375 -31.796875 L 37.09375 -31.796875 L 37.09375 -31.21875 L 36.859375 -31.21875 Z M 10.953125 -29.921875 C 10.953125 -29.679688 10.832031 -29.484375 10.59375 -29.328125 L 10.59375 -30.390625 C 10.832031 -30.148438 10.953125 -29.992188 10.953125 -29.921875 Z M 11.1875 -28.390625 C 11.1875 -28.390625 11.164062 -28.367188 11.125 -28.328125 C 11.09375 -28.285156 11.078125 -28.265625 11.078125 -28.265625 C 10.679688 -28.035156 10.519531 -27.757812 10.59375 -27.4375 C 10.675781 -27.363281 10.695312 -27.285156 10.65625 -27.203125 C 10.613281 -27.128906 10.59375 -27.050781 10.59375 -26.96875 C 10.519531 -27.050781 10.363281 -27.09375 10.125 -27.09375 L 10.125 -27.4375 C 10.4375 -27.675781 10.59375 -27.914062 10.59375 -28.15625 C 10.363281 -28.382812 10.484375 -28.578125 10.953125 -28.734375 L 11.078125 -28.734375 L 11.078125 -28.5 C 11.148438 -28.5 11.1875 -28.460938 11.1875 -28.390625 Z M 10.953125 -25.796875 C 10.953125 -25.640625 10.890625 -25.382812 10.765625 -25.03125 C 10.648438 -24.675781 10.515625 -24.421875 10.359375 -24.265625 C 10.359375 -24.265625 10.476562 -24.144531 10.71875 -23.90625 C 10.71875 -23.90625 10.734375 -23.882812 10.765625 -23.84375 C 10.804688 -23.8125 10.828125 -23.796875 10.828125 -23.796875 L 10.59375 -23.671875 C 10.519531 -23.753906 10.363281 -23.796875 10.125 -23.796875 L 10.125 -25.203125 C 9.96875 -25.671875 9.96875 -26.101562 10.125 -26.5 L 10.59375 -26.5 C 10.59375 -26.425781 10.671875 -26.304688 10.828125 -26.140625 Z M 15.421875 -25.90625 C 15.503906 -25.832031 15.523438 -25.753906 15.484375 -25.671875 C 15.441406 -25.597656 15.421875 -25.519531 15.421875 -25.4375 L 15.3125 -25.671875 C 15.3125 -25.828125 15.269531 -25.945312 15.1875 -26.03125 C 15.1875 -26.1875 15.265625 -26.304688 15.421875 -26.390625 Z M 10.59375 -21.671875 C 10.59375 -21.753906 10.550781 -21.8125 10.46875 -21.84375 C 10.394531 -21.882812 10.359375 -21.90625 10.359375 -21.90625 C 10.285156 -21.90625 10.226562 -21.941406 10.1875 -22.015625 C 10.144531 -22.097656 10.125 -22.140625 10.125 -22.140625 L 10.59375 -22.140625 Z M 10.71875 -16.71875 C 10.632812 -16.5625 10.59375 -16.25 10.59375 -15.78125 C 10.28125 -15.78125 10.085938 -15.703125 10.015625 -15.546875 C 10.171875 -15.390625 10.285156 -15.3125 10.359375 -15.3125 C 10.515625 -15.3125 10.59375 -15.234375 10.59375 -15.078125 C 10.519531 -15.078125 10.484375 -15.035156 10.484375 -14.953125 L 10.359375 -14.84375 L 9.890625 -15.3125 C 9.660156 -15.46875 9.546875 -15.585938 9.546875 -15.671875 L 9.65625 -16.140625 L 9.78125 -16.484375 L 10.125 -16.484375 L 10.484375 -16.609375 C 10.328125 -16.765625 10.128906 -16.84375 9.890625 -16.84375 C 9.734375 -17.625 9.65625 -18.445312 9.65625 -19.3125 C 9.65625 -19.46875 9.8125 -19.546875 10.125 -19.546875 C 10.363281 -19.703125 10.484375 -19.859375 10.484375 -20.015625 L 10.484375 -20.375 C 10.484375 -20.613281 10.519531 -20.769531 10.59375 -20.84375 L 10.71875 -18.84375 C 10.476562 -18.84375 10.28125 -18.722656 10.125 -18.484375 C 10.207031 -18.410156 10.328125 -18.3125 10.484375 -18.1875 C 10.640625 -18.070312 10.734375 -17.957031 10.765625 -17.84375 C 10.804688 -17.726562 10.828125 -17.59375 10.828125 -17.4375 Z M 30.734375 -17.4375 C 30.578125 -17.28125 30.34375 -17.203125 30.03125 -17.203125 L 29.6875 -17.546875 L 30.625 -18.015625 Z M 9.65625 -14.25 L 9.65625 -14.609375 L 9.78125 -14.71875 L 10.125 -14.71875 L 10.59375 -14.609375 L 10.59375 -13.890625 L 10.25 -13.890625 Z M 14.953125 -6.484375 C 14.953125 -6.484375 14.929688 -6.5 14.890625 -6.53125 C 14.859375 -6.570312 14.84375 -6.59375 14.84375 -6.59375 L 14.84375 -6.828125 C 14.84375 -7.066406 14.921875 -7.320312 15.078125 -7.59375 C 15.234375 -7.875 15.390625 -8.09375 15.546875 -8.25 L 15.546875 -8.71875 L 15.421875 -9.1875 L 15.546875 -9.3125 C 15.546875 -9.382812 15.585938 -9.421875 15.671875 -9.421875 C 15.429688 -10.046875 15.46875 -10.597656 15.78125 -11.078125 C 16.09375 -11.703125 16.25 -12.445312 16.25 -13.3125 L 16.484375 -14.015625 C 16.640625 -14.328125 16.796875 -14.5625 16.953125 -14.71875 L 16.953125 -6.484375 Z M 10.015625 -12.015625 L 9.78125 -12.015625 L 9.78125 -12.484375 L 10.015625 -12.484375 Z M 10.015625 -10.953125 L 9.78125 -10.953125 L 9.78125 -11.3125 L 10.015625 -11.3125 Z M 9.890625 -8.828125 C 9.578125 -8.753906 9.300781 -8.753906 9.0625 -8.828125 L 9.0625 -9.3125 L 9.890625 -9.3125 Z M 14.375 -7.296875 C 14.375 -7.140625 14.289062 -6.984375 14.125 -6.828125 C 13.96875 -6.671875 13.890625 -6.515625 13.890625 -6.359375 C 13.972656 -6.285156 14.015625 -6.128906 14.015625 -5.890625 C 14.015625 -5.578125 13.859375 -5.265625 13.546875 -4.953125 L 13.3125 -4.828125 L 13.1875 -4.828125 C 13.113281 -4.910156 13.078125 -5.144531 13.078125 -5.53125 C 13.078125 -6.007812 13.15625 -6.25 13.3125 -6.25 C 13.46875 -6.25 13.703125 -6.640625 14.015625 -7.421875 C 14.097656 -7.421875 14.140625 -7.378906 14.140625 -7.296875 Z M 14.375 -7.296875 "/></g></g></g><g fill="#ff578e" fill-opacity="1"><g transform="translate(293.023081, 228.290918)"><g><path d="M 16.609375 -69.96875 C 17.160156 -81.664062 23.085938 -87.515625 34.390625 -87.515625 C 38.710938 -87.515625 42.070312 -86.570312 44.46875 -84.6875 C 46.863281 -82.800781 48.0625 -80.171875 48.0625 -76.796875 C 48.0625 -73.335938 46.84375 -69.410156 44.40625 -65.015625 L 25.90625 -32.03125 C 24.96875 -30.226562 24.003906 -28.953125 23.015625 -28.203125 C 22.035156 -27.460938 20.84375 -27.09375 19.4375 -27.09375 C 16.375 -27.09375 14.921875 -28.9375 15.078125 -32.625 Z M 16.25 -23.796875 C 19.394531 -23.796875 22.046875 -22.734375 24.203125 -20.609375 C 26.359375 -18.492188 27.4375 -15.90625 27.4375 -12.84375 C 27.4375 -10.71875 26.867188 -8.632812 25.734375 -6.59375 C 24.597656 -4.550781 23.023438 -2.878906 21.015625 -1.578125 C 19.015625 -0.285156 16.757812 0.359375 14.25 0.359375 C 11.1875 0.359375 8.59375 -0.695312 6.46875 -2.8125 C 4.351562 -4.9375 3.257812 -7.53125 3.1875 -10.59375 C 3.1875 -12.71875 3.734375 -14.800781 4.828125 -16.84375 C 5.929688 -18.882812 7.484375 -20.550781 9.484375 -21.84375 C 11.484375 -23.144531 13.738281 -23.796875 16.25 -23.796875 Z M 16.25 -23.796875 "/></g></g></g></svg>