<svg xmlns="http://www.w3.org/2000/svg" xmlns:xlink="http://www.w3.org/1999/xlink" width="500" zoomAndPan="magnify" viewBox="0 0 375 374.999991" height="500" preserveAspectRatio="xMidYMid meet" version="1.0"><path fill="#3289b6" d="M 66.855469 36.597656 C 66.855469 33.765625 69.148438 31.472656 71.976562 31.472656 L 303.265625 31.472656 C 306.09375 31.472656 308.386719 33.765625 308.386719 36.597656 L 308.386719 172 L 66.855469 172 Z M 66.855469 36.597656 " fill-opacity="1" fill-rule="nonzero"/><path fill="#5dcad1" d="M 76.371094 40.988281 L 298.871094 40.988281 L 298.871094 162.484375 L 76.371094 162.484375 Z M 76.371094 40.988281 " fill-opacity="1" fill-rule="nonzero"/><path fill="#253036" d="M 44.898438 162.121094 L 330.34375 162.121094 L 330.34375 162.851562 L 44.898438 162.851562 Z M 44.898438 162.121094 " fill-opacity="1" fill-rule="evenodd"/><path fill="#3289b6" d="M 118.808594 77.011719 L 163.441406 77.011719 L 163.441406 118.753906 L 118.808594 118.753906 Z M 118.808594 77.011719 " fill-opacity="1" fill-rule="nonzero"/><path fill="#5dcad1" d="M 126.601562 98.386719 L 138.546875 98.386719 L 138.546875 118.753906 L 126.601562 118.753906 Z M 126.601562 98.386719 " fill-opacity="1" fill-rule="nonzero"/><path fill="#5dcad1" d="M 145.460938 98.386719 L 157.40625 98.386719 L 157.40625 111.210938 L 145.460938 111.210938 Z M 145.460938 98.386719 " fill-opacity="1" fill-rule="nonzero"/><path fill="#3289b6" d="M 115.160156 80.28125 L 166.960938 80.28125 L 161.929688 59.285156 L 120.191406 59.285156 Z M 115.160156 80.28125 " fill-opacity="1" fill-rule="nonzero"/><path fill="#3289b6" d="M 161.929688 59.285156 L 166.960938 80.28125 L 154.011719 80.28125 L 151.496094 59.285156 Z M 161.929688 59.285156 " fill-opacity="1" fill-rule="nonzero"/><path fill="#3289b6" d="M 130.625 59.285156 L 141.0625 59.285156 L 141.0625 80.28125 L 128.109375 80.28125 Z M 130.625 59.285156 " fill-opacity="1" fill-rule="nonzero"/><path fill="#3289b6" d="M 115.160156 80.28125 L 166.960938 80.28125 L 166.960938 86.882812 C 166.960938 90.457031 164.0625 93.355469 160.484375 93.355469 C 156.910156 93.355469 154.011719 90.457031 154.011719 86.882812 C 154.011719 90.457031 151.113281 93.355469 147.535156 93.355469 C 143.960938 93.355469 141.0625 90.457031 141.0625 86.882812 C 141.0625 90.457031 138.160156 93.355469 134.585938 93.355469 C 131.011719 93.355469 128.109375 90.457031 128.109375 86.882812 C 128.109375 90.457031 125.210938 93.355469 121.636719 93.355469 C 118.058594 93.355469 115.160156 90.457031 115.160156 86.882812 Z M 115.160156 80.28125 " fill-opacity="1" fill-rule="nonzero"/><path fill="#3289b6" d="M 128.109375 80.28125 L 115.160156 80.28125 L 115.160156 86.882812 C 115.160156 90.457031 118.058594 93.355469 121.636719 93.355469 C 125.210938 93.355469 128.109375 90.457031 128.109375 86.882812 Z M 128.109375 80.28125 " fill-opacity="1" fill-rule="nonzero"/><path fill="#3289b6" d="M 154.011719 80.28125 L 141.0625 80.28125 L 141.0625 86.882812 C 141.0625 90.457031 143.960938 93.355469 147.535156 93.355469 C 151.113281 93.355469 154.011719 90.457031 154.011719 86.882812 Z M 154.011719 80.28125 " fill-opacity="1" fill-rule="nonzero"/><path fill="#f5f5f5" d="M 76.371094 40.988281 L 298.871094 40.988281 L 298.871094 51.234375 L 76.371094 51.234375 Z M 76.371094 40.988281 " fill-opacity="1" fill-rule="nonzero"/><path fill="#3289b6" d="M 86.617188 46.109375 C 86.617188 47.726562 85.304688 49.039062 83.6875 49.039062 C 82.070312 49.039062 80.761719 47.726562 80.761719 46.109375 C 80.761719 44.492188 82.070312 43.183594 83.6875 43.183594 C 85.304688 43.183594 86.617188 44.492188 86.617188 46.109375 Z M 86.617188 46.109375 " fill-opacity="1" fill-rule="nonzero"/><path fill="#3289b6" d="M 96.132812 46.109375 C 96.132812 47.726562 94.820312 49.039062 93.203125 49.039062 C 91.585938 49.039062 90.277344 47.726562 90.277344 46.109375 C 90.277344 44.492188 91.585938 43.183594 93.203125 43.183594 C 94.820312 43.183594 96.132812 44.492188 96.132812 46.109375 Z M 96.132812 46.109375 " fill-opacity="1" fill-rule="nonzero"/><path fill="#3289b6" d="M 105.644531 46.109375 C 105.644531 47.726562 104.335938 49.039062 102.71875 49.039062 C 101.101562 49.039062 99.789062 47.726562 99.789062 46.109375 C 99.789062 44.492188 101.101562 43.183594 102.71875 43.183594 C 104.335938 43.183594 105.644531 44.492188 105.644531 46.109375 Z M 105.644531 46.109375 " fill-opacity="1" fill-rule="nonzero"/><path fill="#f5f5f5" d="M 222.414062 82.492188 C 222.414062 80.386719 224.121094 78.679688 226.222656 78.679688 L 236.554688 78.679688 C 238.660156 78.679688 240.367188 80.386719 240.367188 82.492188 L 240.367188 88.664062 C 241.621094 89.238281 242.8125 89.929688 243.921875 90.722656 L 248.308594 88.191406 L 249.304688 86.464844 C 250.0625 85.152344 251.742188 84.703125 253.054688 85.457031 L 256.6875 87.554688 C 257.425781 87.035156 258.210938 86.578125 259.039062 86.195312 L 259.039062 82.007812 C 259.039062 80.496094 260.265625 79.265625 261.78125 79.265625 L 268.917969 79.265625 C 270.433594 79.265625 271.664062 80.496094 271.664062 82.007812 L 271.664062 86.195312 C 272.492188 86.578125 273.277344 87.035156 274.015625 87.554688 L 277.644531 85.457031 C 278.957031 84.703125 280.636719 85.152344 281.394531 86.464844 L 284.964844 92.636719 C 285.722656 93.949219 285.273438 95.625 283.960938 96.382812 L 280.328125 98.480469 C 280.367188 98.925781 280.386719 99.375 280.386719 99.832031 C 280.386719 100.289062 280.367188 100.742188 280.328125 101.1875 L 283.960938 103.28125 C 285.273438 104.039062 285.722656 105.71875 284.964844 107.03125 L 281.394531 113.203125 C 280.636719 114.515625 278.957031 114.964844 277.644531 114.207031 L 274.015625 112.113281 C 273.277344 112.632812 272.492188 113.089844 271.664062 113.472656 L 271.664062 117.65625 C 271.664062 119.171875 270.433594 120.402344 268.917969 120.402344 L 261.78125 120.402344 C 260.777344 120.402344 259.898438 119.859375 259.421875 119.054688 L 254.476562 127.621094 C 253.425781 129.441406 251.09375 130.066406 249.273438 129.015625 L 243.921875 125.925781 C 242.8125 126.71875 241.621094 127.410156 240.367188 127.984375 L 240.367188 134.15625 C 240.367188 136.261719 238.660156 137.964844 236.554688 137.964844 L 226.222656 137.964844 C 224.121094 137.964844 222.414062 136.261719 222.414062 134.15625 L 222.414062 127.984375 C 221.160156 127.410156 219.96875 126.71875 218.855469 125.925781 L 213.507812 129.015625 C 211.683594 130.066406 209.355469 129.441406 208.304688 127.621094 L 203.136719 118.671875 C 202.085938 116.847656 202.707031 114.519531 204.53125 113.464844 L 209.882812 110.375 C 209.816406 109.703125 209.785156 109.015625 209.785156 108.324219 C 209.785156 107.632812 209.816406 106.945312 209.882812 106.269531 L 204.53125 103.179688 C 202.707031 102.128906 202.085938 99.800781 203.136719 97.976562 L 208.304688 89.027344 C 209.355469 87.207031 211.683594 86.582031 213.507812 87.632812 L 218.855469 90.722656 C 219.96875 89.929688 221.160156 89.238281 222.414062 88.664062 Z M 259.855469 118.242188 C 260.105469 119.070312 260.875 119.667969 261.78125 119.667969 L 268.917969 119.667969 C 270.03125 119.667969 270.933594 118.769531 270.933594 117.65625 L 270.933594 112.996094 L 271.148438 112.902344 C 272.082031 112.488281 272.960938 111.976562 273.777344 111.382812 L 273.96875 111.242188 L 278.011719 113.574219 C 278.976562 114.128906 280.207031 113.800781 280.761719 112.839844 L 284.332031 106.664062 C 284.886719 105.703125 284.554688 104.472656 283.59375 103.917969 L 279.550781 101.585938 L 279.574219 101.347656 C 279.628906 100.851562 279.65625 100.347656 279.65625 99.832031 C 279.65625 99.320312 279.628906 98.816406 279.574219 98.320312 L 279.550781 98.082031 L 283.59375 95.75 C 284.554688 95.195312 284.886719 93.964844 284.332031 93.003906 L 280.761719 86.828125 C 280.207031 85.867188 278.976562 85.539062 278.011719 86.09375 L 273.96875 88.425781 L 273.777344 88.285156 C 272.960938 87.691406 272.082031 87.179688 271.148438 86.765625 L 270.933594 86.671875 L 270.933594 82.007812 C 270.933594 80.898438 270.03125 80 268.917969 80 L 261.78125 80 C 260.671875 80 259.769531 80.898438 259.769531 82.007812 L 259.769531 86.671875 L 259.550781 86.765625 C 258.621094 87.179688 257.738281 87.691406 256.925781 88.285156 L 256.734375 88.425781 L 252.691406 86.09375 C 251.726562 85.539062 250.496094 85.867188 249.941406 86.828125 L 249.5625 87.480469 C 251.335938 86.648438 253.480469 87.300781 254.476562 89.027344 L 258.472656 95.949219 C 259.828125 93.558594 262.402344 91.941406 265.351562 91.941406 C 269.714844 91.941406 273.25 95.476562 273.25 99.832031 C 273.25 104.191406 269.714844 107.726562 265.351562 107.726562 C 262.195312 107.726562 259.472656 105.878906 258.207031 103.207031 L 252.898438 106.269531 C 252.960938 106.945312 252.996094 107.632812 252.996094 108.324219 C 252.996094 109.015625 252.960938 109.703125 252.898438 110.375 L 258.25 113.464844 C 259.929688 114.4375 260.59375 116.496094 259.855469 118.242188 Z M 258.816406 102.78125 C 259.941406 105.265625 262.445312 106.992188 265.351562 106.992188 C 269.308594 106.992188 272.519531 103.789062 272.519531 99.832031 C 272.519531 95.878906 269.308594 92.675781 265.351562 92.675781 C 262.519531 92.675781 260.070312 94.316406 258.90625 96.699219 L 259.644531 97.976562 C 260.578125 99.59375 260.191406 101.613281 258.816406 102.78125 Z M 226.222656 79.414062 C 224.523438 79.414062 223.144531 80.792969 223.144531 82.492188 L 223.144531 89.140625 L 222.929688 89.234375 C 221.566406 89.839844 220.285156 90.585938 219.09375 91.453125 L 218.902344 91.59375 L 213.140625 88.265625 C 211.667969 87.417969 209.785156 87.921875 208.9375 89.394531 L 203.769531 98.34375 C 202.921875 99.816406 203.425781 101.699219 204.898438 102.546875 L 210.65625 105.875 L 210.632812 106.109375 C 210.554688 106.835938 210.515625 107.574219 210.515625 108.324219 C 210.515625 109.070312 210.554688 109.808594 210.632812 110.539062 L 210.65625 110.773438 L 204.898438 114.101562 C 203.425781 114.949219 202.921875 116.832031 203.769531 118.304688 L 208.9375 127.253906 C 209.785156 128.726562 211.667969 129.230469 213.140625 128.378906 L 218.902344 125.054688 L 219.09375 125.195312 C 220.285156 126.0625 221.566406 126.808594 222.929688 127.410156 L 223.144531 127.507812 L 223.144531 134.15625 C 223.144531 135.855469 224.523438 137.234375 226.222656 137.234375 L 236.554688 137.234375 C 238.257812 137.234375 239.632812 135.855469 239.632812 134.15625 L 239.632812 127.507812 L 239.851562 127.410156 C 241.210938 126.808594 242.496094 126.0625 243.683594 125.195312 L 243.878906 125.054688 L 249.636719 128.378906 C 251.109375 129.230469 252.992188 128.726562 253.84375 127.253906 L 259.007812 118.304688 C 259.054688 118.222656 259.097656 118.144531 259.136719 118.058594 C 259.800781 116.628906 259.273438 114.902344 257.882812 114.101562 L 252.121094 110.773438 L 252.148438 110.539062 C 252.222656 109.808594 252.261719 109.070312 252.261719 108.324219 C 252.261719 107.574219 252.222656 106.835938 252.148438 106.109375 L 252.121094 105.875 L 257.882812 102.546875 C 257.976562 102.492188 258.066406 102.433594 258.15625 102.371094 C 259.414062 101.457031 259.804688 99.71875 259.007812 98.34375 L 253.84375 89.394531 C 252.992188 87.921875 251.109375 87.417969 249.636719 88.265625 L 243.878906 91.59375 L 243.683594 91.453125 C 242.496094 90.585938 241.210938 89.839844 239.851562 89.234375 L 239.632812 89.140625 L 239.632812 82.492188 C 239.632812 80.792969 238.257812 79.414062 236.554688 79.414062 Z M 231.390625 97.78125 C 225.566406 97.78125 220.847656 102.503906 220.847656 108.324219 C 220.847656 114.144531 225.566406 118.863281 231.390625 118.863281 C 237.210938 118.863281 241.929688 114.144531 241.929688 108.324219 C 241.929688 102.503906 237.210938 97.78125 231.390625 97.78125 Z M 220.117188 108.324219 C 220.117188 102.097656 225.164062 97.050781 231.390625 97.050781 C 237.617188 97.050781 242.660156 102.097656 242.660156 108.324219 C 242.660156 114.550781 237.617188 119.597656 231.390625 119.597656 C 225.164062 119.597656 220.117188 114.550781 220.117188 108.324219 Z M 220.117188 108.324219 " fill-opacity="1" fill-rule="evenodd"/><path fill="#fcbfbc" d="M 82.609375 331.394531 C 84.554688 329.53125 84.730469 314.339844 84.703125 313.996094 L 98.507812 313.082031 C 98.535156 313.425781 97.847656 326.234375 102.808594 327.960938 C 99.007812 332.925781 86.230469 332.0625 82.609375 331.394531 Z M 82.609375 331.394531 " fill-opacity="1" fill-rule="nonzero"/><path fill="#5dcad1" d="M 96.730469 322.65625 C 94.214844 323.722656 95.1875 324.992188 92.996094 327.195312 C 88.839844 331.375 86.210938 323.664062 83.378906 326.15625 C 81.613281 327.710938 82.035156 335.730469 82.75 339.734375 C 89.585938 340.695312 102.703125 341.542969 111.613281 341.410156 C 114.292969 341.367188 117.460938 341.445312 119.136719 339.363281 C 121.636719 336.265625 113.773438 331.734375 108.546875 329.492188 C 107.65625 328.859375 106.800781 328.210938 106.007812 327.605469 L 105.78125 327.433594 C 105.25 327.023438 104.738281 326.609375 104.234375 326.203125 C 103.46875 325.582031 102.734375 324.980469 102.03125 324.445312 C 100.058594 322.949219 98.3125 321.984375 96.730469 322.65625 Z M 96.730469 322.65625 " fill-opacity="1" fill-rule="nonzero"/><path fill="#253036" d="M 99.101562 323.078125 C 98.277344 322.757812 97.550781 322.707031 96.875 322.992188 C 96.277344 323.246094 95.910156 323.5 95.65625 323.761719 C 95.402344 324.019531 95.238281 324.304688 95.074219 324.65625 C 95.027344 324.75 94.984375 324.847656 94.9375 324.949219 C 94.632812 325.617188 94.253906 326.449219 93.257812 327.453125 C 92.15625 328.558594 91.109375 328.921875 90.097656 328.808594 C 89.121094 328.703125 88.246094 328.15625 87.476562 327.605469 C 87.289062 327.472656 87.117188 327.34375 86.945312 327.21875 C 86.75 327.074219 86.5625 326.933594 86.359375 326.792969 C 86 326.539062 85.667969 326.328125 85.347656 326.191406 C 85.027344 326.054688 84.742188 325.992188 84.472656 326.019531 C 84.207031 326.046875 83.925781 326.164062 83.621094 326.429688 C 83.46875 326.566406 83.238281 326.550781 83.105469 326.398438 C 82.96875 326.246094 82.984375 326.015625 83.136719 325.882812 C 83.539062 325.527344 83.960938 325.335938 84.398438 325.292969 C 84.828125 325.25 85.246094 325.351562 85.636719 325.519531 C 86.027344 325.6875 86.410156 325.933594 86.78125 326.191406 C 86.976562 326.328125 87.1875 326.488281 87.398438 326.644531 C 87.570312 326.769531 87.742188 326.898438 87.902344 327.011719 C 88.667969 327.558594 89.40625 327.996094 90.179688 328.082031 C 90.917969 328.164062 91.757812 327.921875 92.738281 326.9375 C 93.640625 326.03125 93.96875 325.304688 94.269531 324.648438 C 94.316406 324.542969 94.363281 324.441406 94.410156 324.339844 C 94.589844 323.964844 94.792969 323.59375 95.132812 323.25 C 95.472656 322.902344 95.929688 322.597656 96.589844 322.320312 C 97.496094 321.933594 98.429688 322.03125 99.367188 322.398438 C 100.296875 322.761719 101.257812 323.402344 102.25 324.15625 C 102.847656 324.609375 103.46875 325.113281 104.105469 325.628906 C 104.226562 325.726562 104.34375 325.820312 104.464844 325.917969 C 104.964844 326.324219 105.476562 326.738281 106.003906 327.140625 L 106.230469 327.316406 C 107.011719 327.914062 107.855469 328.550781 108.726562 329.171875 C 111.347656 330.296875 114.632812 332 116.964844 333.820312 C 118.132812 334.730469 119.09375 335.695312 119.597656 336.660156 C 119.851562 337.148438 119.996094 337.648438 119.980469 338.152344 C 119.964844 338.664062 119.78125 339.148438 119.421875 339.59375 C 119.296875 339.75 119.066406 339.773438 118.910156 339.648438 C 118.75 339.523438 118.726562 339.289062 118.855469 339.132812 C 119.121094 338.804688 119.238281 338.46875 119.25 338.128906 C 119.261719 337.785156 119.160156 337.40625 118.949219 337 C 118.519531 336.171875 117.65625 335.285156 116.515625 334.394531 C 114.277344 332.648438 111.09375 330.992188 108.515625 329.875 C 107.835938 330.039062 106.847656 330.339844 105.957031 330.746094 C 105.484375 330.964844 105.050781 331.203125 104.710938 331.460938 C 104.367188 331.722656 104.144531 331.976562 104.046875 332.210938 C 103.972656 332.398438 103.757812 332.488281 103.570312 332.414062 C 103.382812 332.335938 103.292969 332.125 103.371094 331.9375 C 103.539062 331.523438 103.878906 331.171875 104.273438 330.875 C 104.667969 330.574219 105.152344 330.3125 105.652344 330.082031 C 106.339844 329.769531 107.078125 329.515625 107.703125 329.332031 C 107.109375 328.902344 106.535156 328.46875 105.992188 328.054688 C 105.785156 328.175781 105.53125 328.289062 105.273438 328.40625 C 105.183594 328.445312 105.09375 328.484375 105 328.527344 C 104.679688 328.667969 104.335938 328.816406 103.992188 328.988281 C 103.546875 329.210938 103.121094 329.453125 102.773438 329.734375 C 102.421875 330.015625 102.164062 330.316406 102.03125 330.644531 C 101.957031 330.832031 101.742188 330.921875 101.554688 330.847656 C 101.367188 330.769531 101.277344 330.558594 101.355469 330.371094 C 101.550781 329.886719 101.910156 329.488281 102.316406 329.164062 C 102.722656 328.835938 103.199219 328.566406 103.664062 328.335938 C 104.027344 328.152344 104.390625 327.992188 104.714844 327.851562 C 104.804688 327.8125 104.890625 327.773438 104.972656 327.738281 C 105.117188 327.675781 105.242188 327.617188 105.351562 327.5625 C 104.945312 327.246094 104.550781 326.929688 104.160156 326.617188 C 104.117188 326.628906 104.066406 326.644531 104.019531 326.65625 C 103.953125 326.675781 103.878906 326.699219 103.800781 326.71875 L 103.773438 326.726562 C 103.683594 326.753906 103.589844 326.78125 103.488281 326.808594 C 103.082031 326.925781 102.59375 327.078125 102.097656 327.269531 C 101.601562 327.464844 101.117188 327.695312 100.722656 327.964844 C 100.320312 328.242188 100.046875 328.539062 99.917969 328.847656 C 99.84375 329.035156 99.628906 329.128906 99.441406 329.050781 C 99.253906 328.976562 99.164062 328.761719 99.242188 328.574219 C 99.441406 328.074219 99.847656 327.679688 100.304688 327.363281 C 100.765625 327.046875 101.308594 326.792969 101.832031 326.589844 C 102.355469 326.382812 102.871094 326.226562 103.285156 326.105469 C 103.347656 326.085938 103.410156 326.070312 103.46875 326.054688 C 102.953125 325.636719 102.453125 325.234375 101.972656 324.863281 C 101.953125 324.871094 101.929688 324.878906 101.910156 324.886719 C 101.519531 325.039062 100.824219 325.304688 100.085938 325.667969 C 99.613281 325.902344 99.136719 326.167969 98.734375 326.457031 C 98.332031 326.75 98.035156 327.042969 97.886719 327.320312 C 97.789062 327.496094 97.566406 327.5625 97.390625 327.46875 C 97.210938 327.371094 97.144531 327.148438 97.242188 326.96875 C 97.46875 326.550781 97.867188 326.179688 98.308594 325.863281 C 98.753906 325.542969 99.269531 325.253906 99.761719 325.011719 C 100.320312 324.734375 100.875 324.507812 101.28125 324.347656 C 100.503906 323.789062 99.78125 323.34375 99.101562 323.078125 Z M 83.929688 334.597656 C 83.957031 334.398438 84.136719 334.257812 84.339844 334.28125 C 88.308594 334.785156 94.292969 335.394531 100.292969 335.726562 C 106.300781 336.058594 112.289062 336.113281 116.269531 335.511719 C 116.46875 335.480469 116.65625 335.617188 116.6875 335.816406 C 116.71875 336.019531 116.578125 336.203125 116.378906 336.234375 C 112.316406 336.847656 106.261719 336.789062 100.253906 336.457031 C 94.234375 336.125 88.230469 335.511719 84.246094 335.007812 C 84.046875 334.984375 83.90625 334.800781 83.929688 334.597656 Z M 83.929688 334.597656 " fill-opacity="1" fill-rule="evenodd"/><path fill="#fcbfbc" d="M 41.621094 331.394531 C 43.566406 329.53125 43.738281 314.335938 43.714844 313.992188 L 57.519531 313.078125 C 57.542969 313.421875 56.859375 326.230469 61.820312 327.960938 C 58.015625 332.925781 45.242188 332.0625 41.621094 331.394531 Z M 41.621094 331.394531 " fill-opacity="1" fill-rule="nonzero"/><path fill="#5dcad1" d="M 55.742188 322.65625 C 53.226562 323.71875 54.199219 324.992188 52.007812 327.195312 C 47.851562 331.375 45.222656 323.664062 42.390625 326.15625 C 40.621094 327.710938 41.046875 335.730469 41.757812 339.730469 C 48.597656 340.695312 61.710938 341.542969 70.625 341.410156 C 73.304688 341.367188 76.472656 341.441406 78.148438 339.363281 C 80.648438 336.265625 72.785156 331.734375 67.558594 329.492188 C 66.667969 328.859375 65.8125 328.210938 65.019531 327.605469 L 64.792969 327.429688 C 64.261719 327.023438 63.746094 326.609375 63.246094 326.203125 C 62.480469 325.582031 61.746094 324.980469 61.042969 324.445312 C 59.066406 322.949219 57.324219 321.984375 55.742188 322.65625 Z M 55.742188 322.65625 " fill-opacity="1" fill-rule="nonzero"/><path fill="#253036" d="M 58.113281 323.078125 C 57.289062 322.757812 56.5625 322.707031 55.886719 322.992188 C 55.289062 323.246094 54.921875 323.5 54.667969 323.757812 C 54.414062 324.019531 54.25 324.304688 54.085938 324.65625 C 54.039062 324.75 53.996094 324.847656 53.949219 324.945312 C 53.644531 325.613281 53.265625 326.449219 52.269531 327.453125 C 51.167969 328.558594 50.121094 328.921875 49.109375 328.808594 C 48.132812 328.703125 47.257812 328.15625 46.488281 327.605469 C 46.300781 327.46875 46.128906 327.34375 45.957031 327.21875 C 45.761719 327.074219 45.574219 326.933594 45.371094 326.792969 C 45.011719 326.539062 44.679688 326.328125 44.359375 326.191406 C 44.039062 326.054688 43.753906 325.992188 43.484375 326.019531 C 43.21875 326.046875 42.9375 326.160156 42.632812 326.429688 C 42.480469 326.5625 42.25 326.550781 42.117188 326.398438 C 41.980469 326.246094 41.996094 326.015625 42.148438 325.878906 C 42.550781 325.527344 42.972656 325.335938 43.410156 325.292969 C 43.84375 325.25 44.257812 325.347656 44.648438 325.519531 C 45.039062 325.6875 45.421875 325.929688 45.792969 326.191406 C 45.988281 326.328125 46.199219 326.484375 46.410156 326.640625 C 46.582031 326.769531 46.753906 326.898438 46.914062 327.011719 C 47.679688 327.554688 48.417969 327.996094 49.191406 328.082031 C 49.929688 328.164062 50.769531 327.921875 51.75 326.9375 C 52.652344 326.03125 52.980469 325.304688 53.28125 324.644531 C 53.328125 324.542969 53.375 324.441406 53.425781 324.339844 C 53.601562 323.964844 53.808594 323.59375 54.144531 323.246094 C 54.484375 322.902344 54.941406 322.597656 55.601562 322.316406 C 56.507812 321.933594 57.441406 322.03125 58.378906 322.398438 C 59.308594 322.761719 60.269531 323.402344 61.261719 324.15625 C 61.863281 324.609375 62.480469 325.113281 63.117188 325.628906 C 63.238281 325.722656 63.355469 325.820312 63.476562 325.917969 C 63.976562 326.324219 64.488281 326.738281 65.015625 327.140625 L 65.242188 327.3125 C 66.023438 327.914062 66.867188 328.546875 67.738281 329.167969 C 70.359375 330.296875 73.644531 332 75.976562 333.820312 C 77.144531 334.730469 78.105469 335.695312 78.609375 336.660156 C 78.863281 337.144531 79.007812 337.648438 78.992188 338.152344 C 78.976562 338.664062 78.792969 339.148438 78.433594 339.59375 C 78.308594 339.75 78.078125 339.773438 77.921875 339.648438 C 77.761719 339.519531 77.738281 339.289062 77.867188 339.132812 C 78.132812 338.804688 78.25 338.46875 78.261719 338.128906 C 78.273438 337.785156 78.171875 337.40625 77.960938 336.996094 C 77.53125 336.171875 76.667969 335.285156 75.527344 334.394531 C 73.289062 332.648438 70.105469 330.992188 67.527344 329.875 C 66.847656 330.039062 65.855469 330.339844 64.96875 330.746094 C 64.496094 330.964844 64.066406 331.203125 63.722656 331.460938 C 63.378906 331.71875 63.15625 331.976562 63.0625 332.210938 C 62.984375 332.398438 62.769531 332.488281 62.582031 332.414062 C 62.398438 332.335938 62.304688 332.125 62.382812 331.9375 C 62.550781 331.523438 62.890625 331.171875 63.285156 330.875 C 63.679688 330.574219 64.164062 330.308594 64.664062 330.082031 C 65.351562 329.765625 66.089844 329.515625 66.714844 329.332031 C 66.121094 328.902344 65.546875 328.46875 65.003906 328.054688 C 64.796875 328.171875 64.542969 328.289062 64.285156 328.40625 C 64.195312 328.445312 64.105469 328.484375 64.011719 328.523438 C 63.691406 328.667969 63.347656 328.816406 63.003906 328.988281 C 62.558594 329.210938 62.132812 329.453125 61.785156 329.734375 C 61.433594 330.015625 61.175781 330.316406 61.042969 330.644531 C 60.96875 330.832031 60.753906 330.921875 60.566406 330.84375 C 60.378906 330.769531 60.289062 330.554688 60.367188 330.367188 C 60.5625 329.882812 60.917969 329.488281 61.328125 329.164062 C 61.734375 328.835938 62.214844 328.566406 62.675781 328.332031 C 63.039062 328.152344 63.402344 327.992188 63.726562 327.851562 C 63.816406 327.8125 63.902344 327.773438 63.984375 327.738281 C 64.128906 327.671875 64.253906 327.617188 64.363281 327.5625 C 63.957031 327.246094 63.5625 326.929688 63.171875 326.613281 C 63.128906 326.628906 63.078125 326.644531 63.03125 326.65625 C 62.964844 326.675781 62.890625 326.699219 62.8125 326.71875 L 62.785156 326.726562 C 62.695312 326.75 62.601562 326.777344 62.5 326.808594 C 62.097656 326.925781 61.605469 327.078125 61.109375 327.269531 C 60.613281 327.464844 60.128906 327.695312 59.734375 327.964844 C 59.335938 328.242188 59.058594 328.535156 58.929688 328.847656 C 58.855469 329.035156 58.640625 329.125 58.453125 329.050781 C 58.265625 328.972656 58.175781 328.761719 58.253906 328.574219 C 58.453125 328.074219 58.863281 327.675781 59.316406 327.363281 C 59.777344 327.046875 60.320312 326.792969 60.84375 326.585938 C 61.367188 326.382812 61.886719 326.226562 62.296875 326.105469 C 62.359375 326.085938 62.421875 326.070312 62.480469 326.054688 C 61.964844 325.636719 61.46875 325.234375 60.984375 324.863281 C 60.964844 324.871094 60.941406 324.878906 60.921875 324.886719 C 60.53125 325.035156 59.835938 325.300781 59.097656 325.667969 C 58.625 325.902344 58.148438 326.167969 57.746094 326.457031 C 57.34375 326.75 57.046875 327.039062 56.898438 327.316406 C 56.800781 327.496094 56.578125 327.5625 56.402344 327.464844 C 56.222656 327.371094 56.15625 327.148438 56.253906 326.96875 C 56.480469 326.550781 56.878906 326.179688 57.320312 325.863281 C 57.765625 325.542969 58.28125 325.253906 58.773438 325.011719 C 59.332031 324.734375 59.886719 324.507812 60.292969 324.347656 C 59.515625 323.785156 58.792969 323.34375 58.113281 323.078125 Z M 42.941406 334.597656 C 42.96875 334.398438 43.148438 334.257812 43.351562 334.28125 C 47.320312 334.785156 53.308594 335.394531 59.304688 335.726562 C 65.3125 336.058594 71.300781 336.109375 75.28125 335.511719 C 75.484375 335.480469 75.667969 335.617188 75.699219 335.816406 C 75.730469 336.015625 75.589844 336.203125 75.390625 336.234375 C 71.328125 336.847656 65.277344 336.789062 59.265625 336.457031 C 53.246094 336.125 47.242188 335.511719 43.257812 335.007812 C 43.058594 334.980469 42.917969 334.800781 42.941406 334.597656 Z M 42.941406 334.597656 " fill-opacity="1" fill-rule="evenodd"/><path fill="#253036" d="M 48.472656 216.648438 C 47.007812 206.988281 51.523438 195.542969 53.960938 191.03125 C 62.378906 194.566406 83.675781 199.519531 98.609375 191.03125 C 101.65625 210.792969 104.914062 252.789062 104.914062 259.464844 C 104.914062 275.933594 102.351562 288.011719 98.691406 317.652344 C 92.835938 320.214844 87.835938 319.605469 83.6875 317.652344 C 85.152344 282.519531 82.957031 277.03125 86.25 261.660156 C 85.027344 255.785156 79.648438 233.808594 75.996094 218.707031 L 67.953125 260.929688 L 58.070312 319.117188 C 51.335938 321.164062 45.75 319.359375 43.066406 317.652344 C 44.898438 279.957031 41.601562 281.421875 46.695312 259.464844 C 48.175781 240.03125 49.300781 222.125 48.472656 216.648438 Z M 48.472656 216.648438 " fill-opacity="1" fill-rule="nonzero"/><path fill="#f5f5f5" d="M 83.867188 207.976562 C 84.007812 208.125 84.003906 208.355469 83.859375 208.496094 L 77.074219 215 L 76.355469 218.773438 C 76.316406 218.972656 76.125 219.101562 75.925781 219.066406 C 75.726562 219.027344 75.597656 218.835938 75.636719 218.636719 L 76.398438 214.636719 L 83.351562 207.964844 C 83.496094 207.828125 83.726562 207.832031 83.867188 207.976562 Z M 83.867188 207.976562 " fill-opacity="1" fill-rule="evenodd"/><path fill="#fcbfbc" d="M 80.003906 112.21875 C 85.683594 110.988281 87.410156 101.683594 87.5625 97.1875 C 88.015625 99.183594 91.570312 109.085938 98.902344 110.375 C 98.757812 111.5 98.617188 113.582031 98.835938 115.246094 C 98.996094 116.453125 99.117188 117.8125 98.375 118.773438 C 93.683594 124.855469 84.367188 117.191406 80.003906 112.21875 Z M 80.003906 112.21875 " fill-opacity="1" fill-rule="nonzero"/><path fill="#fcbfbc" d="M 91.140625 90.476562 C 100.015625 90.902344 103.882812 85.050781 104.792969 81.847656 C 106.671875 82.710938 110.375 85.464844 110.171875 89.574219 C 109.917969 94.710938 109.722656 110.070312 100.980469 110.503906 C 100.257812 110.539062 99.5625 110.492188 98.902344 110.375 C 91.570312 109.085938 88.015625 99.183594 87.5625 97.1875 C 83.519531 94.445312 83.84375 89.742188 85.742188 88.363281 C 87.257812 87.261719 89.972656 89.3125 91.140625 90.476562 Z M 91.140625 90.476562 " fill-opacity="1" fill-rule="nonzero"/><path fill="#253036" d="M 100.578125 104.175781 C 100.398438 104.265625 100.324219 104.488281 100.417969 104.667969 C 100.898438 105.605469 101.800781 105.863281 102.5625 105.835938 C 102.945312 105.820312 103.308594 105.738281 103.605469 105.625 C 103.753906 105.566406 103.890625 105.5 104.003906 105.425781 C 104.117188 105.355469 104.230469 105.261719 104.308594 105.148438 C 104.421875 104.980469 104.378906 104.753906 104.214844 104.636719 C 104.046875 104.523438 103.820312 104.566406 103.703125 104.734375 C 103.707031 104.734375 103.707031 104.734375 103.707031 104.734375 C 103.707031 104.734375 103.699219 104.742188 103.683594 104.753906 C 103.667969 104.769531 103.640625 104.789062 103.609375 104.808594 C 103.542969 104.851562 103.453125 104.898438 103.339844 104.941406 C 103.117188 105.027344 102.832031 105.09375 102.539062 105.105469 C 101.945312 105.125 101.375 104.929688 101.070312 104.332031 C 100.976562 104.152344 100.757812 104.082031 100.578125 104.175781 Z M 100.578125 104.175781 " fill-opacity="1" fill-rule="evenodd"/><path fill="#253036" d="M 88.054688 91.988281 C 87.632812 91.441406 87.105469 91.03125 86.757812 90.828125 L 87.125 90.195312 C 87.542969 90.441406 88.148438 90.910156 88.632812 91.542969 C 89.121094 92.175781 89.507812 93.007812 89.421875 93.957031 L 88.695312 93.890625 C 88.757812 93.1875 88.472656 92.535156 88.054688 91.988281 Z M 90.960938 103.847656 C 92.804688 106.703125 95.453125 109.394531 98.964844 110.015625 L 98.839844 110.734375 C 95.023438 110.0625 92.230469 107.160156 90.347656 104.242188 C 88.460938 101.320312 87.441406 98.304688 87.207031 97.265625 L 87.917969 97.105469 C 88.136719 98.0625 89.125 100.996094 90.960938 103.847656 Z M 90.960938 103.847656 " fill-opacity="1" fill-rule="evenodd"/><path fill="#253036" d="M 91.140625 90.476562 C 100.015625 90.902344 103.882812 85.050781 104.792969 81.847656 C 106.671875 82.710938 110.375 85.464844 110.171875 89.574219 C 109.917969 94.710938 109.722656 110.070312 100.980469 110.503906 C 100.257812 110.539062 99.566406 110.492188 98.902344 110.375 C 98.75 111.542969 98.605469 113.746094 98.863281 115.441406 C 102.726562 118.097656 106.03125 122.957031 107.226562 125.558594 C 107.769531 126.738281 108.429688 129.023438 109.066406 131.730469 L 113.628906 126.515625 C 116.410156 122.644531 114.863281 118.613281 112.738281 114.882812 C 110.546875 111.039062 113.488281 109.265625 115.320312 105.640625 C 117.15625 102.011719 115.058594 98.460938 113.675781 95.726562 C 112.289062 92.988281 113.308594 90.070312 113.867188 83.023438 C 114.3125 77.386719 106.042969 73.53125 101.855469 72.308594 C 97.066406 71.039062 86.539062 70.777344 82.742188 79.914062 C 79.738281 87.414062 82.378906 88.550781 76.1875 89.507812 C 68.585938 90.683594 74.847656 97.96875 69.507812 100.761719 C 66.371094 102.597656 61.542969 107.949219 67.304688 114.679688 L 80.003906 112.21875 C 85.683594 110.988281 87.410156 101.683594 87.5625 97.1875 C 83.519531 94.445312 83.84375 89.742188 85.742188 88.363281 C 87.257812 87.261719 89.972656 89.3125 91.140625 90.476562 Z M 91.140625 90.476562 " fill-opacity="1" fill-rule="nonzero"/><path fill="#253036" d="M 97.679688 91.175781 C 96.96875 91.957031 96.410156 93.125 96.191406 94.496094 C 95.972656 95.867188 96.148438 97.152344 96.582031 98.113281 C 97.019531 99.078125 97.695312 99.679688 98.476562 99.804688 C 99.257812 99.925781 100.089844 99.5625 100.804688 98.78125 C 101.515625 98 102.074219 96.832031 102.292969 95.460938 C 102.507812 94.089844 102.335938 92.804688 101.902344 91.84375 C 101.464844 90.878906 100.789062 90.277344 100.007812 90.152344 C 99.222656 90.03125 98.394531 90.394531 97.679688 91.175781 Z M 97.140625 90.683594 C 97.957031 89.785156 99.015625 89.257812 100.121094 89.429688 C 101.222656 89.605469 102.066406 90.4375 102.570312 91.542969 C 103.011719 92.523438 103.207031 93.757812 103.082031 95.0625 C 103.304688 95.03125 103.550781 95.019531 103.796875 95.035156 C 104.050781 95.050781 104.328125 95.097656 104.585938 95.214844 C 104.832031 94.101562 105.3125 93.132812 105.929688 92.433594 C 106.625 91.644531 107.539062 91.164062 108.496094 91.316406 C 109.453125 91.46875 110.171875 92.207031 110.59375 93.171875 C 111.011719 94.144531 111.160156 95.390625 110.953125 96.691406 C 110.746094 97.996094 110.222656 99.136719 109.519531 99.929688 C 108.824219 100.71875 107.914062 101.199219 106.953125 101.046875 C 106.015625 100.898438 105.304688 100.183594 104.882812 99.246094 C 104.476562 98.34375 104.3125 97.195312 104.453125 95.984375 C 104.304688 95.859375 104.066406 95.785156 103.753906 95.765625 C 103.480469 95.746094 103.199219 95.777344 102.972656 95.820312 C 102.710938 97.210938 102.121094 98.421875 101.34375 99.273438 C 100.527344 100.171875 99.464844 100.699219 98.363281 100.527344 C 97.261719 100.351562 96.417969 99.519531 95.914062 98.414062 C 95.414062 97.304688 95.230469 95.875 95.46875 94.382812 C 95.703125 92.886719 96.320312 91.582031 97.140625 90.683594 Z M 106.476562 92.917969 C 105.882812 93.59375 105.410156 94.601562 105.21875 95.785156 C 105.214844 95.828125 105.207031 95.871094 105.203125 95.914062 C 105.039062 97.074219 105.191406 98.148438 105.550781 98.945312 C 105.910156 99.746094 106.453125 100.226562 107.070312 100.324219 C 107.695312 100.421875 108.375 100.121094 108.972656 99.445312 C 109.566406 98.773438 110.042969 97.765625 110.230469 96.578125 C 110.417969 95.394531 110.277344 94.289062 109.917969 93.464844 C 109.558594 92.636719 109.003906 92.140625 108.378906 92.039062 C 107.753906 91.941406 107.074219 92.242188 106.476562 92.917969 Z M 106.476562 92.917969 " fill-opacity="1" fill-rule="evenodd"/><path fill="#253036" d="M 101.210938 96.171875 C 101.105469 96.851562 100.652344 97.339844 100.199219 97.269531 C 99.746094 97.199219 99.464844 96.589844 99.574219 95.910156 C 99.683594 95.234375 100.136719 94.742188 100.585938 94.8125 C 101.039062 94.882812 101.320312 95.492188 101.210938 96.171875 Z M 101.210938 96.171875 " fill-opacity="1" fill-rule="nonzero"/><path fill="#253036" d="M 108.539062 97.609375 C 108.429688 98.289062 107.976562 98.78125 107.523438 98.710938 C 107.074219 98.636719 106.792969 98.03125 106.902344 97.351562 C 107.007812 96.671875 107.460938 96.179688 107.914062 96.253906 C 108.367188 96.324219 108.644531 96.933594 108.539062 97.609375 Z M 108.539062 97.609375 " fill-opacity="1" fill-rule="nonzero"/><path fill="#253036" d="M 96.390625 92.375 L 91.039062 90.828125 L 91.246094 90.125 L 96.59375 91.671875 Z M 96.390625 92.375 " fill-opacity="1" fill-rule="evenodd"/><path fill="#3289b6" d="M 80.761719 111.984375 C 94.300781 125.15625 97.878906 118.9375 98.976562 116.007812 C 107.757812 130.648438 111.242188 139.558594 102.636719 147.847656 C 97.953125 169.511719 101.660156 190.054688 102.636719 194.691406 C 95.902344 209.621094 63.597656 199.324219 51.402344 192.128906 C 53.230469 180.417969 61.886719 176.027344 59.324219 146.382812 C 57.570312 139.128906 56.953125 132.589844 58.71875 125.523438 C 60.550781 118.203125 68.683594 114.546875 80.761719 111.984375 Z M 80.761719 111.984375 " fill-opacity="1" fill-rule="nonzero"/><path fill="#253036" d="M 59.292969 146.019531 C 59.496094 146 59.671875 146.152344 59.691406 146.351562 C 60.976562 161.214844 59.449219 169.773438 57.355469 176.097656 C 56.574219 178.464844 55.710938 180.523438 54.894531 182.464844 C 54.625 183.101562 54.363281 183.726562 54.109375 184.347656 C 53.085938 186.859375 52.214844 189.300781 51.761719 192.183594 C 51.730469 192.382812 51.542969 192.523438 51.34375 192.488281 C 51.144531 192.457031 51.007812 192.273438 51.039062 192.070312 C 51.503906 189.101562 52.398438 186.601562 53.433594 184.070312 C 53.691406 183.4375 53.957031 182.804688 54.226562 182.160156 C 55.039062 180.226562 55.886719 178.207031 56.664062 175.867188 C 58.71875 169.652344 60.238281 161.195312 58.960938 146.414062 C 58.945312 146.214844 59.09375 146.035156 59.292969 146.019531 Z M 59.292969 146.019531 " fill-opacity="1" fill-rule="evenodd"/><path fill="#253036" d="M 98.789062 115.695312 C 98.960938 115.589844 99.183594 115.648438 99.289062 115.820312 C 103.675781 123.136719 106.78125 129.078125 107.6875 134.246094 C 108.140625 136.839844 108.046875 139.253906 107.277344 141.550781 C 106.515625 143.820312 105.109375 145.953125 102.96875 148.035156 C 98.335938 169.582031 102.023438 190.003906 102.992188 194.613281 C 103.035156 194.8125 102.910156 195.007812 102.710938 195.046875 C 102.511719 195.089844 102.320312 194.964844 102.277344 194.765625 C 101.296875 190.113281 97.578125 169.507812 102.277344 147.769531 L 102.300781 147.660156 L 102.382812 147.585938 C 104.5 145.542969 105.859375 143.480469 106.582031 141.320312 C 107.304688 139.15625 107.402344 136.871094 106.964844 134.371094 C 106.085938 129.355469 103.054688 123.523438 98.660156 116.195312 C 98.558594 116.023438 98.613281 115.800781 98.789062 115.695312 Z M 98.789062 115.695312 " fill-opacity="1" fill-rule="evenodd"/><path fill="#5dcad1" d="M 80.027344 120.765625 L 160.835938 120.765625 C 161.644531 120.765625 162.300781 121.421875 162.300781 122.230469 L 162.300781 141.570312 C 162.300781 142.378906 162.957031 143.03125 163.761719 143.089844 C 173.902344 143.839844 181.898438 152.300781 181.898438 162.632812 C 181.898438 172.964844 173.902344 181.429688 163.761719 182.175781 C 162.957031 182.238281 162.300781 182.886719 162.300781 183.695312 L 162.300781 203.035156 C 162.300781 203.84375 161.644531 204.5 160.835938 204.5 L 141.492188 204.5 C 140.683594 204.5 140.035156 203.84375 139.976562 203.035156 C 139.226562 192.898438 130.761719 184.902344 120.433594 184.902344 C 110.101562 184.902344 101.636719 192.898438 100.890625 203.035156 C 100.828125 203.84375 100.179688 204.5 99.371094 204.5 L 80.027344 204.5 C 79.21875 204.5 78.566406 203.84375 78.566406 203.035156 L 78.566406 122.230469 C 78.566406 121.421875 79.21875 120.765625 80.027344 120.765625 Z M 80.027344 120.765625 " fill-opacity="1" fill-rule="nonzero"/><path fill="#253036" d="M 181.53125 162.632812 C 181.53125 172.773438 173.6875 181.078125 163.738281 181.8125 C 162.757812 181.882812 161.933594 182.675781 161.933594 183.695312 L 161.933594 203.035156 C 161.933594 203.644531 161.441406 204.132812 160.835938 204.132812 L 141.492188 204.132812 C 140.894531 204.132812 140.386719 203.640625 140.339844 203.007812 C 139.578125 192.679688 130.957031 184.535156 120.433594 184.535156 C 109.90625 184.535156 101.285156 192.679688 100.523438 203.007812 C 100.476562 203.640625 99.972656 204.132812 99.371094 204.132812 L 80.027344 204.132812 C 79.421875 204.132812 78.929688 203.644531 78.929688 203.035156 L 78.929688 122.230469 C 78.929688 121.625 79.421875 121.132812 80.027344 121.132812 L 160.835938 121.132812 C 161.441406 121.132812 161.933594 121.625 161.933594 122.230469 L 161.933594 141.570312 C 161.933594 142.589844 162.757812 143.382812 163.738281 143.457031 C 173.6875 144.1875 181.53125 152.496094 181.53125 162.632812 Z M 163.789062 182.542969 C 174.121094 181.777344 182.261719 173.15625 182.261719 162.632812 C 182.261719 152.109375 174.121094 143.488281 163.789062 142.726562 C 163.15625 142.679688 162.664062 142.171875 162.664062 141.570312 L 162.664062 122.230469 C 162.664062 121.21875 161.847656 120.402344 160.835938 120.402344 L 80.027344 120.402344 C 79.019531 120.402344 78.199219 121.21875 78.199219 122.230469 L 78.199219 203.035156 C 78.199219 204.046875 79.019531 204.867188 80.027344 204.867188 L 99.371094 204.867188 C 100.386719 204.867188 101.179688 204.042969 101.253906 203.0625 C 101.988281 193.113281 110.292969 185.269531 120.433594 185.269531 C 130.570312 185.269531 138.875 193.113281 139.609375 203.0625 C 139.683594 204.042969 140.476562 204.867188 141.492188 204.867188 L 160.835938 204.867188 C 161.847656 204.867188 162.664062 204.046875 162.664062 203.035156 L 162.664062 183.695312 C 162.664062 183.09375 163.15625 182.589844 163.789062 182.542969 Z M 163.789062 182.542969 " fill-opacity="1" fill-rule="evenodd"/><path fill="#fcbfbc" d="M 109.304688 181.148438 C 106.085938 176.757812 87.46875 163.21875 78.566406 156.996094 C 78.273438 156.703125 77.082031 152.710938 76.523438 150.75 C 72.972656 152.753906 67.121094 154.863281 63.695312 155.621094 C 64.84375 159.839844 66.8125 166.105469 68.316406 167.609375 C 70.351562 169.644531 98.78125 183.304688 103.816406 186.753906 C 104.914062 192.496094 124.308594 191.761719 121.015625 185.175781 C 120.3125 183.765625 112.792969 185.90625 109.304688 181.148438 Z M 109.304688 181.148438 " fill-opacity="1" fill-rule="nonzero"/><path fill="#253036" d="M 70.605469 130.335938 C 70.777344 130.230469 71.003906 130.285156 71.109375 130.457031 C 74.511719 135.988281 77.085938 142.980469 78.554688 149.597656 L 78.609375 149.828125 L 78.417969 149.96875 C 76.617188 151.320312 73.320312 152.832031 70.105469 154.027344 C 66.894531 155.222656 63.683594 156.136719 62.042969 156.265625 L 61.75 156.285156 L 61.664062 156.007812 C 60.589844 152.515625 59.628906 149.246094 58.882812 146.101562 C 58.835938 145.90625 58.957031 145.707031 59.152344 145.660156 C 59.351562 145.613281 59.546875 145.738281 59.59375 145.933594 C 60.3125 148.964844 61.238281 152.125 62.277344 155.503906 C 63.886719 155.308594 66.832031 154.464844 69.851562 153.339844 C 72.941406 152.191406 76.039062 150.773438 77.789062 149.523438 C 76.324219 143.035156 73.796875 136.222656 70.484375 130.839844 C 70.378906 130.667969 70.433594 130.441406 70.605469 130.335938 Z M 70.605469 130.335938 " fill-opacity="1" fill-rule="evenodd"/><path fill="#fcbfbc" d="M 335.101562 317.652344 C 334.515625 315.894531 325.832031 311.066406 321.5625 308.871094 L 316.074219 320.945312 C 318.144531 321.800781 323.171875 323.726562 326.6875 324.605469 C 330.199219 325.484375 333.761719 320.335938 335.101562 317.652344 Z M 335.101562 317.652344 " fill-opacity="1" fill-rule="nonzero"/><path fill="#5dcad1" d="M 321.3125 319.828125 C 324.167969 319.324219 324.035156 321.015625 327.261719 321.710938 C 333.378906 323.027344 331.257812 314.648438 335.222656 315.226562 C 337.691406 315.589844 341.953125 322.972656 343.628906 326.945312 C 340.203125 329.925781 334.605469 334.257812 328.9375 338.324219 C 325.414062 340.847656 326.105469 342.265625 311.65625 342.851562 C 311.09375 342.875 310.511719 342.894531 309.90625 342.917969 C 300.757812 343.222656 309.90625 334.511719 314.746094 332.742188 C 315.175781 331.664062 315.566406 330.59375 315.917969 329.59375 L 316.019531 329.308594 C 316.253906 328.640625 316.476562 327.976562 316.6875 327.324219 C 317.011719 326.328125 317.316406 325.371094 317.632812 324.488281 C 318.523438 322.011719 319.519531 320.148438 321.3125 319.828125 Z M 321.3125 319.828125 " fill-opacity="1" fill-rule="nonzero"/><path fill="#253036" d="M 319.433594 321.5625 C 319.980469 320.796875 320.601562 320.328125 321.378906 320.191406 C 322.054688 320.070312 322.53125 320.085938 322.914062 320.167969 C 323.292969 320.253906 323.605469 320.417969 323.957031 320.632812 C 324.050781 320.691406 324.148438 320.75 324.246094 320.8125 C 324.902344 321.234375 325.722656 321.753906 327.183594 322.070312 C 328.796875 322.414062 329.929688 322.132812 330.761719 321.457031 C 331.5625 320.800781 332.023438 319.8125 332.390625 318.878906 C 332.480469 318.648438 332.558594 318.4375 332.636719 318.230469 C 332.730469 317.984375 332.816406 317.75 332.914062 317.507812 C 333.089844 317.074219 333.265625 316.695312 333.472656 316.382812 C 333.675781 316.074219 333.898438 315.851562 334.160156 315.71875 C 334.414062 315.585938 334.738281 315.527344 335.167969 315.589844 C 335.367188 315.621094 335.554688 315.480469 335.582031 315.28125 C 335.613281 315.082031 335.472656 314.894531 335.273438 314.867188 C 334.714844 314.785156 334.238281 314.855469 333.824219 315.066406 C 333.421875 315.277344 333.109375 315.605469 332.863281 315.980469 C 332.613281 316.351562 332.414062 316.789062 332.234375 317.234375 C 332.140625 317.46875 332.042969 317.730469 331.945312 317.992188 C 331.867188 318.203125 331.785156 318.417969 331.710938 318.613281 C 331.34375 319.539062 330.941406 320.363281 330.296875 320.890625 C 329.679688 321.394531 328.785156 321.664062 327.339844 321.355469 C 326.007812 321.066406 325.292969 320.609375 324.644531 320.199219 C 324.542969 320.132812 324.441406 320.070312 324.339844 320.007812 C 323.964844 319.777344 323.570312 319.566406 323.074219 319.457031 C 322.574219 319.34375 321.996094 319.335938 321.25 319.46875 C 320.230469 319.652344 319.457031 320.273438 318.835938 321.136719 C 318.222656 321.996094 317.738281 323.121094 317.289062 324.363281 C 317.019531 325.113281 316.757812 325.917969 316.492188 326.746094 C 316.441406 326.898438 316.390625 327.054688 316.339844 327.210938 C 316.128906 327.863281 315.910156 328.523438 315.675781 329.1875 L 315.574219 329.472656 M 316.445312 329.207031 C 316.628906 328.675781 316.804688 328.148438 316.972656 327.628906 C 317.023438 327.617188 317.078125 327.597656 317.136719 327.582031 C 317.203125 327.558594 317.28125 327.535156 317.367188 327.511719 L 317.394531 327.503906 C 317.488281 327.472656 317.585938 327.441406 317.695312 327.410156 C 318.121094 327.28125 318.648438 327.128906 319.199219 327.015625 C 319.753906 326.902344 320.320312 326.828125 320.832031 326.839844 C 321.347656 326.855469 321.769531 326.957031 322.070312 327.164062 C 322.234375 327.28125 322.464844 327.242188 322.578125 327.074219 C 322.695312 326.910156 322.65625 326.679688 322.488281 326.566406 C 322.027344 326.242188 321.4375 326.125 320.851562 326.109375 C 320.261719 326.09375 319.632812 326.179688 319.050781 326.300781 C 318.46875 326.421875 317.917969 326.578125 317.480469 326.710938 C 317.398438 326.734375 317.320312 326.757812 317.25 326.78125 C 317.472656 326.09375 317.6875 325.429688 317.910156 324.804688 C 317.933594 324.800781 317.960938 324.792969 317.988281 324.789062 C 318.421875 324.695312 319.199219 324.53125 320.066406 324.425781 C 320.625 324.359375 321.203125 324.324219 321.726562 324.347656 C 322.257812 324.375 322.695312 324.464844 322.992188 324.628906 C 323.171875 324.722656 323.394531 324.660156 323.488281 324.480469 C 323.585938 324.304688 323.519531 324.082031 323.34375 323.984375 C 322.902344 323.746094 322.335938 323.644531 321.761719 323.617188 C 321.183594 323.589844 320.558594 323.628906 319.980469 323.699219 C 319.304688 323.78125 318.664062 323.898438 318.207031 323.992188 C 318.582031 323.027344 318.972656 322.203125 319.433594 321.5625 M 316.175781 329.964844 C 316.429688 329.953125 316.730469 329.910156 317.03125 329.863281 C 317.132812 329.84375 317.238281 329.828125 317.34375 329.8125 C 317.710938 329.75 318.105469 329.6875 318.511719 329.640625 C 319.035156 329.582031 319.554688 329.554688 320.03125 329.601562 C 320.507812 329.648438 320.914062 329.765625 321.226562 329.984375 C 321.390625 330.101562 321.621094 330.058594 321.738281 329.894531 C 321.851562 329.730469 321.8125 329.5 321.644531 329.386719 C 321.195312 329.070312 320.652344 328.925781 320.101562 328.871094 C 319.554688 328.816406 318.972656 328.851562 318.429688 328.914062 C 318.003906 328.960938 317.585938 329.03125 317.214844 329.089844 C 317.113281 329.109375 317.011719 329.125 316.917969 329.136719 C 316.738281 329.167969 316.582031 329.191406 316.445312 329.207031 M 316.175781 329.964844 C 315.925781 330.667969 315.660156 331.402344 315.371094 332.148438 C 316.042969 331.941406 316.859375 331.738281 317.671875 331.617188 C 318.246094 331.53125 318.828125 331.488281 319.351562 331.523438 C 319.871094 331.5625 320.375 331.675781 320.757812 331.945312 C 320.921875 332.0625 320.960938 332.289062 320.847656 332.453125 C 320.730469 332.621094 320.503906 332.660156 320.335938 332.546875 C 320.109375 332.386719 319.761719 332.289062 319.300781 332.253906 C 318.847656 332.222656 318.324219 332.261719 317.777344 332.339844 C 316.6875 332.503906 315.570312 332.832031 314.875 333.085938 C 313.183594 333.703125 310.910156 335.21875 309.125 336.898438 C 308.234375 337.738281 307.480469 338.601562 306.984375 339.398438 C 306.480469 340.210938 306.289062 340.878906 306.394531 341.363281 C 306.4375 341.558594 306.3125 341.753906 306.117188 341.796875 C 305.917969 341.839844 305.722656 341.714844 305.679688 341.519531 C 305.507812 340.746094 305.832031 339.863281 306.363281 339.011719 C 306.902344 338.144531 307.703125 337.230469 308.621094 336.367188 C 310.402344 334.691406 312.675781 333.148438 314.46875 332.457031 M 339.585938 323.066406 C 339.449219 322.914062 339.21875 322.902344 339.070312 323.039062 C 336.121094 325.695312 333.6875 328.019531 331.59375 330.019531 C 331.265625 330.332031 330.945312 330.640625 330.636719 330.9375 C 328.324219 333.140625 326.4375 334.90625 324.667969 336.277344 C 322.902344 337.644531 321.265625 338.609375 319.472656 339.214844 C 317.679688 339.816406 315.707031 340.066406 313.257812 339.976562 C 313.054688 339.96875 312.886719 340.125 312.878906 340.328125 C 312.871094 340.53125 313.03125 340.699219 313.230469 340.707031 C 315.746094 340.800781 317.808594 340.546875 319.707031 339.910156 C 321.601562 339.269531 323.308594 338.257812 325.113281 336.855469 C 326.917969 335.457031 328.835938 333.664062 331.140625 331.464844 C 331.453125 331.167969 331.773438 330.863281 332.101562 330.546875 C 334.195312 328.546875 336.617188 326.230469 339.558594 323.582031 C 339.707031 323.449219 339.722656 323.214844 339.585938 323.066406 Z M 339.585938 323.066406 " fill-opacity="1" fill-rule="evenodd"/><path fill="#fcbfbc" d="M 263.625 333.167969 C 261.679688 331.304688 256.800781 315.898438 257.519531 313.820312 L 244.710938 313.820312 C 244.6875 314.164062 248.386719 328.007812 243.429688 329.734375 C 247.230469 334.699219 260.003906 333.839844 263.625 333.167969 Z M 263.625 333.167969 " fill-opacity="1" fill-rule="nonzero"/><path fill="#5dcad1" d="M 249.503906 324.429688 C 252.019531 325.496094 251.046875 326.765625 253.238281 328.96875 C 257.394531 333.148438 260.023438 325.4375 262.855469 327.929688 C 264.625 329.484375 264.203125 337.503906 263.488281 341.507812 C 256.652344 342.46875 243.535156 343.316406 234.621094 343.183594 C 231.945312 343.144531 228.773438 343.21875 227.097656 341.136719 C 224.597656 338.039062 232.460938 333.511719 237.6875 331.265625 C 238.578125 330.632812 239.4375 329.984375 240.226562 329.378906 L 240.453125 329.207031 C 240.984375 328.796875 241.5 328.382812 242 327.976562 C 242.765625 327.359375 243.5 326.753906 244.203125 326.222656 C 246.179688 324.722656 247.921875 323.761719 249.503906 324.429688 Z M 249.503906 324.429688 " fill-opacity="1" fill-rule="nonzero"/><path fill="#253036" d="M 247.132812 324.855469 C 247.957031 324.53125 248.683594 324.480469 249.359375 324.765625 C 249.957031 325.019531 250.324219 325.273438 250.578125 325.535156 C 250.832031 325.796875 250.996094 326.078125 251.160156 326.429688 C 251.207031 326.523438 251.25 326.621094 251.296875 326.722656 C 251.601562 327.390625 251.980469 328.222656 252.976562 329.226562 C 254.078125 330.332031 255.125 330.695312 256.136719 330.585938 C 257.113281 330.476562 257.988281 329.929688 258.757812 329.378906 C 258.945312 329.246094 259.121094 329.117188 259.289062 328.992188 C 259.484375 328.847656 259.671875 328.707031 259.875 328.566406 C 260.234375 328.3125 260.570312 328.105469 260.890625 327.964844 C 261.207031 327.828125 261.492188 327.769531 261.765625 327.796875 C 262.027344 327.820312 262.308594 327.9375 262.613281 328.207031 C 262.765625 328.339844 262.996094 328.324219 263.132812 328.171875 C 263.265625 328.019531 263.25 327.789062 263.097656 327.65625 C 262.695312 327.300781 262.273438 327.113281 261.835938 327.066406 C 261.40625 327.023438 260.988281 327.125 260.597656 327.292969 C 260.207031 327.460938 259.828125 327.707031 259.453125 327.964844 C 259.261719 328.105469 259.046875 328.261719 258.835938 328.417969 C 258.664062 328.542969 258.492188 328.671875 258.332031 328.785156 C 257.566406 329.332031 256.828125 329.773438 256.058594 329.855469 C 255.316406 329.9375 254.476562 329.695312 253.496094 328.710938 C 252.59375 327.804688 252.265625 327.078125 251.964844 326.421875 C 251.917969 326.316406 251.871094 326.214844 251.824219 326.117188 C 251.644531 325.738281 251.441406 325.367188 251.101562 325.023438 C 250.761719 324.675781 250.308594 324.371094 249.644531 324.09375 C 248.738281 323.710938 247.804688 323.804688 246.867188 324.171875 C 245.9375 324.535156 244.976562 325.175781 243.984375 325.929688 C 243.386719 326.382812 242.765625 326.886719 242.128906 327.402344 C 242.011719 327.5 241.890625 327.597656 241.769531 327.695312 C 241.269531 328.097656 240.757812 328.511719 240.230469 328.917969 L 240.003906 329.089844 C 239.222656 329.6875 238.378906 330.324219 237.507812 330.945312 C 234.886719 332.074219 231.601562 333.773438 229.269531 335.59375 C 228.101562 336.503906 227.140625 337.46875 226.636719 338.433594 C 226.382812 338.921875 226.238281 339.421875 226.253906 339.925781 C 226.269531 340.4375 226.453125 340.921875 226.8125 341.367188 C 226.9375 341.523438 227.167969 341.550781 227.328125 341.421875 C 227.484375 341.296875 227.507812 341.066406 227.382812 340.90625 C 227.113281 340.578125 226.996094 340.242188 226.984375 339.902344 C 226.972656 339.558594 227.074219 339.183594 227.285156 338.773438 C 227.71875 337.945312 228.578125 337.058594 229.71875 336.171875 C 231.960938 334.421875 235.140625 332.765625 237.722656 331.648438 C 238.398438 331.8125 239.390625 332.117188 240.277344 332.523438 C 240.75 332.738281 241.183594 332.976562 241.523438 333.234375 C 241.867188 333.496094 242.089844 333.75 242.1875 333.984375 C 242.261719 334.171875 242.476562 334.261719 242.664062 334.1875 C 242.851562 334.109375 242.941406 333.898438 242.863281 333.710938 C 242.695312 333.296875 242.355469 332.945312 241.964844 332.648438 C 241.566406 332.351562 241.082031 332.085938 240.582031 331.855469 C 239.894531 331.542969 239.160156 331.289062 238.53125 331.105469 C 239.125 330.675781 239.699219 330.242188 240.242188 329.828125 C 240.449219 329.949219 240.703125 330.066406 240.964844 330.179688 C 241.050781 330.21875 241.140625 330.257812 241.234375 330.300781 C 241.554688 330.441406 241.898438 330.59375 242.246094 330.765625 C 242.6875 330.984375 243.113281 331.230469 243.460938 331.507812 C 243.8125 331.789062 244.070312 332.089844 244.203125 332.417969 C 244.277344 332.605469 244.492188 332.695312 244.679688 332.621094 C 244.867188 332.542969 244.957031 332.332031 244.882812 332.144531 C 244.683594 331.660156 244.328125 331.261719 243.917969 330.9375 C 243.511719 330.609375 243.035156 330.339844 242.570312 330.109375 C 242.207031 329.929688 241.84375 329.769531 241.519531 329.625 C 241.429688 329.585938 241.34375 329.546875 241.261719 329.511719 C 241.117188 329.449219 240.992188 329.390625 240.882812 329.335938 C 241.289062 329.019531 241.6875 328.703125 242.074219 328.390625 C 242.117188 328.402344 242.167969 328.417969 242.214844 328.433594 C 242.28125 328.453125 242.355469 328.472656 242.433594 328.496094 L 242.460938 328.5 C 242.550781 328.527344 242.644531 328.554688 242.746094 328.582031 C 243.152344 328.699219 243.644531 328.851562 244.136719 329.042969 C 244.632812 329.238281 245.117188 329.46875 245.511719 329.742188 C 245.914062 330.015625 246.1875 330.3125 246.316406 330.625 C 246.390625 330.8125 246.605469 330.902344 246.792969 330.824219 C 246.980469 330.75 247.070312 330.535156 246.996094 330.347656 C 246.792969 329.847656 246.386719 329.453125 245.929688 329.136719 C 245.46875 328.820312 244.925781 328.566406 244.402344 328.363281 C 243.878906 328.15625 243.363281 328 242.949219 327.878906 C 242.886719 327.863281 242.824219 327.84375 242.765625 327.828125 C 243.28125 327.410156 243.78125 327.007812 244.261719 326.636719 C 244.28125 326.644531 244.304688 326.652344 244.324219 326.660156 C 244.714844 326.8125 245.410156 327.078125 246.148438 327.441406 C 246.625 327.675781 247.101562 327.941406 247.5 328.230469 C 247.902344 328.523438 248.199219 328.816406 248.351562 329.09375 C 248.445312 329.269531 248.667969 329.335938 248.847656 329.242188 C 249.023438 329.144531 249.089844 328.921875 248.992188 328.746094 C 248.765625 328.324219 248.367188 327.953125 247.925781 327.636719 C 247.484375 327.316406 246.96875 327.027344 246.472656 326.785156 C 245.914062 326.511719 245.363281 326.28125 244.957031 326.121094 C 245.734375 325.5625 246.453125 325.121094 247.132812 324.855469 Z M 262.304688 336.371094 C 262.28125 336.171875 262.097656 336.03125 261.894531 336.054688 C 257.925781 336.558594 251.941406 337.167969 245.941406 337.5 C 239.933594 337.832031 233.945312 337.886719 229.964844 337.285156 C 229.765625 337.253906 229.578125 337.390625 229.546875 337.589844 C 229.515625 337.792969 229.65625 337.976562 229.855469 338.007812 C 233.917969 338.621094 239.972656 338.5625 245.980469 338.230469 C 252 337.898438 258.003906 337.285156 261.988281 336.78125 C 262.1875 336.757812 262.332031 336.574219 262.304688 336.371094 Z M 262.304688 336.371094 " fill-opacity="1" fill-rule="evenodd"/><path fill="#253036" d="M 331.441406 299.355469 C 349.886719 295.546875 342.664062 269.347656 337.296875 258.734375 C 332.730469 259.371094 323.167969 262.800781 313.0625 266.429688 C 307.78125 268.328125 302.351562 270.277344 297.40625 271.90625 C 286.917969 262.269531 262.796875 249.875 247.867188 252.511719 C 229.203125 255.804688 239.222656 297.523438 245.078125 321.679688 C 246.042969 321.539062 247.066406 321.445312 248.125 321.347656 C 251.746094 321.015625 255.726562 320.652344 258.84375 318.382812 C 258.761719 317.128906 258.691406 315.933594 258.632812 314.804688 C 263.0625 320.652344 271.121094 323.359375 274.351562 323.140625 C 275.832031 323.042969 278.984375 323.070312 283.359375 323.109375 C 291.054688 323.171875 302.535156 323.269531 315.339844 322.777344 C 318.5625 322.652344 323.636719 314.730469 323.757812 308.503906 L 309.121094 304.84375 C 313.011719 304.085938 317.167969 302.972656 321.21875 301.890625 C 324.792969 300.9375 328.285156 300.007812 331.441406 299.355469 Z M 274.933594 286.175781 C 268.964844 282.445312 262.632812 277.832031 257.015625 273.738281 C 259.457031 285.546875 259.183594 289.539062 258.773438 295.484375 C 258.765625 295.582031 258.757812 295.683594 258.75 295.785156 C 261.808594 291.53125 267.707031 288.449219 274.933594 286.175781 Z M 274.933594 286.175781 " fill-opacity="1" fill-rule="evenodd"/><path fill="#f5f5f5" d="M 309.476562 304.773438 C 309.515625 304.972656 309.386719 305.164062 309.1875 305.203125 C 302.816406 306.449219 296.78125 307.347656 291.5625 308.082031 C 290.402344 308.246094 289.28125 308.398438 288.207031 308.546875 C 284.445312 309.070312 281.242188 309.511719 278.8125 309.960938 C 278.613281 310 278.421875 309.867188 278.386719 309.667969 C 278.347656 309.46875 278.480469 309.277344 278.679688 309.242188 C 281.128906 308.789062 284.351562 308.339844 288.117188 307.820312 C 289.191406 307.671875 290.304688 307.519531 291.460938 307.355469 C 296.675781 306.625 302.695312 305.726562 309.046875 304.484375 C 309.246094 304.445312 309.4375 304.574219 309.476562 304.773438 Z M 309.476562 304.773438 " fill-opacity="1" fill-rule="evenodd"/><path fill="#fcbfbc" d="M 259.570312 193.652344 C 254.992188 189.742188 248.117188 178.761719 246.6875 172.660156 C 246.914062 170.964844 268.292969 160.375 274.660156 169.484375 C 277.703125 173.839844 279.640625 174.460938 278.519531 177.328125 C 280.078125 180.6875 284.78125 188.792969 291.554688 194.816406 C 287.785156 204.507812 275.910156 206.609375 273.484375 205.425781 C 274.203125 199.855469 268.628906 196.125 267.390625 194.09375 C 264.941406 195.59375 262.113281 195.828125 259.570312 193.652344 Z M 259.570312 193.652344 " fill-opacity="1" fill-rule="nonzero"/><path fill="#253036" d="M 260.160156 179.828125 C 260.402344 180.53125 260.976562 180.96875 261.445312 180.804688 C 261.910156 180.644531 262.09375 179.945312 261.851562 179.246094 C 261.613281 178.542969 261.039062 178.105469 260.570312 178.269531 C 260.101562 178.429688 259.917969 179.128906 260.160156 179.828125 Z M 260.160156 179.828125 " fill-opacity="1" fill-rule="nonzero"/><path fill="#253036" d="M 252.347656 182.917969 C 252.589844 183.621094 253.164062 184.058594 253.628906 183.894531 C 254.097656 183.734375 254.28125 183.035156 254.039062 182.335938 C 253.796875 181.632812 253.222656 181.195312 252.757812 181.359375 C 252.289062 181.519531 252.105469 182.21875 252.347656 182.917969 Z M 252.347656 182.917969 " fill-opacity="1" fill-rule="nonzero"/><path fill="#253036" d="M 259.648438 188.835938 C 259.546875 189.007812 259.605469 189.230469 259.78125 189.335938 C 260.609375 189.816406 261.414062 189.789062 262.125 189.476562 C 262.8125 189.175781 263.398438 188.617188 263.851562 188.042969 C 263.976562 187.882812 263.945312 187.652344 263.789062 187.527344 C 263.628906 187.402344 263.398438 187.429688 263.273438 187.589844 C 262.859375 188.117188 262.367188 188.574219 261.832031 188.808594 C 261.3125 189.035156 260.753906 189.054688 260.148438 188.703125 C 259.976562 188.601562 259.75 188.660156 259.648438 188.835938 Z M 259.648438 188.835938 " fill-opacity="1" fill-rule="evenodd"/><path fill="#253036" d="M 259.898438 174.457031 C 258.460938 175.070312 257.800781 177.050781 258.617188 178.976562 C 259.433594 180.902344 261.320312 181.804688 262.757812 181.195312 C 264.199219 180.585938 264.859375 178.601562 264.039062 176.675781 C 263.222656 174.75 261.335938 173.847656 259.898438 174.457031 Z M 257.765625 178.769531 C 257.128906 176.730469 257.832031 174.542969 259.613281 173.785156 C 261.441406 173.007812 263.558594 174.097656 264.558594 176.058594 L 268.582031 174.351562 L 268.867188 175.023438 L 264.84375 176.730469 C 265.5625 178.8125 264.871094 181.09375 263.046875 181.871094 C 261.183594 182.660156 259.015625 181.515625 258.042969 179.480469 C 257.601562 179.496094 257.316406 179.636719 257.136719 179.796875 C 256.957031 179.949219 256.859375 180.132812 256.816406 180.269531 C 257.667969 182.414062 257 184.832031 255.101562 185.636719 C 253.175781 186.457031 250.921875 185.199219 250.003906 183.03125 C 249.082031 180.863281 249.742188 178.371094 251.671875 177.554688 C 253.390625 176.824219 255.363281 177.742188 256.425781 179.484375 C 256.492188 179.402344 256.566406 179.320312 256.652344 179.246094 C 256.925781 179.007812 257.292969 178.828125 257.765625 178.769531 Z M 251.957031 178.226562 C 250.519531 178.835938 249.859375 180.820312 250.675781 182.746094 C 251.492188 184.671875 253.378906 185.574219 254.816406 184.964844 C 256.257812 184.351562 256.914062 182.371094 256.097656 180.445312 C 255.28125 178.519531 253.394531 177.617188 251.957031 178.226562 Z M 251.957031 178.226562 " fill-opacity="1" fill-rule="evenodd"/><path fill="#253036" d="M 273.542969 184.464844 C 273.742188 184.496094 273.875 184.683594 273.84375 184.882812 C 273.261719 188.542969 270.738281 192.476562 267.582031 194.40625 C 267.410156 194.511719 267.183594 194.457031 267.078125 194.285156 C 266.972656 194.113281 267.027344 193.886719 267.199219 193.78125 C 270.164062 191.96875 272.570312 188.226562 273.121094 184.769531 C 273.15625 184.570312 273.34375 184.433594 273.542969 184.464844 Z M 273.542969 184.464844 " fill-opacity="1" fill-rule="evenodd"/><path fill="#253036" d="M 240.332031 167.09375 C 244.539062 179.308594 255.140625 170.550781 263.472656 166.820312 C 263.941406 166.609375 264.476562 166.953125 264.535156 167.464844 C 264.773438 169.484375 265.679688 173.953125 269.109375 176.972656 C 268.886719 174.851562 269.171875 170.964844 272.097656 172.390625 C 275.757812 174.175781 275.808594 179.484375 271.878906 181.339844 C 272.558594 183.308594 273.59375 183.976562 273.84375 184.703125 C 286.121094 171.113281 277.183594 151.15625 268.71875 154.578125 C 261.074219 148.585938 255.3125 157.175781 250.777344 158.738281 C 239.542969 157.761719 238.773438 162.558594 240.332031 167.09375 Z M 240.332031 167.09375 " fill-opacity="1" fill-rule="nonzero"/><path fill="#5dcad1" d="M 278.242188 274.007812 L 253.269531 197.15625 C 253.023438 196.386719 252.195312 195.964844 251.425781 196.214844 L 233.03125 202.191406 C 232.261719 202.441406 231.441406 202.015625 231.136719 201.269531 C 227.289062 191.855469 216.769531 186.871094 206.945312 190.0625 C 197.121094 193.253906 191.539062 203.472656 193.960938 213.347656 C 194.152344 214.132812 193.738281 214.957031 192.96875 215.207031 L 174.574219 221.183594 C 173.808594 221.433594 173.386719 222.261719 173.636719 223.03125 L 179.613281 241.425781 C 179.863281 242.195312 180.6875 242.609375 181.472656 242.417969 C 191.347656 239.996094 201.566406 245.574219 204.757812 255.398438 C 207.953125 265.222656 202.964844 275.746094 193.550781 279.589844 C 192.804688 279.894531 192.378906 280.71875 192.628906 281.484375 L 198.605469 299.878906 C 198.855469 300.648438 199.679688 301.070312 200.449219 300.820312 L 277.300781 275.851562 C 278.070312 275.601562 278.492188 274.773438 278.242188 274.007812 Z M 278.242188 274.007812 " fill-opacity="1" fill-rule="nonzero"/><path fill="#3289b6" d="M 284.601562 187.371094 C 282.40625 204.207031 273.378906 199.570312 270.695312 197.984375 C 264.289062 200.3125 260.765625 203.878906 257.175781 209.171875 L 263.691406 229.222656 C 265.121094 227.839844 266.488281 226.402344 267.804688 224.777344 C 269.59375 229.011719 271.941406 232.984375 274.464844 236.976562 C 265.363281 241.273438 264.589844 245.046875 243.613281 256.902344 C 244.34375 261.90625 245.515625 267.003906 247.273438 269.347656 C 265.285156 262.554688 276.148438 256.714844 283.710938 252.023438 C 288.128906 260.246094 291.554688 269.695312 291.554688 282.15625 C 314.242188 285.082031 317.535156 265.320312 338.761719 259.464844 C 336.933594 246.289062 329.011719 210.792969 305.460938 191.398438 C 299.238281 186.273438 293.015625 185.90625 284.601562 187.371094 Z M 284.601562 187.371094 " fill-opacity="1" fill-rule="nonzero"/><path fill="#253036" d="M 294.363281 206.863281 C 294.511719 207 294.523438 207.230469 294.386719 207.378906 C 287.972656 214.40625 285.675781 221.671875 283.136719 229.714844 C 282.660156 231.226562 282.175781 232.761719 281.652344 234.328125 L 281.597656 234.5 L 281.429688 234.558594 C 278.652344 235.546875 276.460938 236.4375 274.621094 237.308594 C 270.597656 239.207031 268.222656 240.996094 264.945312 243.46875 C 264.546875 243.769531 264.140625 244.078125 263.710938 244.398438 C 259.746094 247.367188 254.296875 251.285156 243.792969 257.222656 C 243.617188 257.320312 243.394531 257.257812 243.292969 257.082031 C 243.195312 256.90625 243.257812 256.683594 243.433594 256.585938 C 253.90625 250.664062 259.332031 246.765625 263.273438 243.8125 C 263.699219 243.492188 264.109375 243.183594 264.503906 242.882812 C 267.683594 240.488281 270.0625 238.691406 273.9375 236.824219 C 270.21875 230.925781 266.886719 225.011719 265.214844 218.199219 C 265.167969 218.003906 265.289062 217.804688 265.484375 217.757812 C 265.679688 217.707031 265.878906 217.828125 265.925781 218.023438 C 267.574219 224.746094 270.875 230.597656 274.601562 236.507812 C 276.371094 235.6875 278.445312 234.847656 281.015625 233.929688 C 281.511719 232.441406 281.972656 230.972656 282.429688 229.523438 C 284.96875 221.472656 287.3125 214.039062 293.84375 206.886719 C 293.980469 206.738281 294.210938 206.726562 294.363281 206.863281 Z M 305.582031 214.105469 C 305.773438 214.175781 305.871094 214.382812 305.804688 214.574219 C 305.398438 215.714844 304.957031 216.972656 304.492188 218.3125 C 302.867188 222.972656 300.894531 228.628906 298.664062 233.867188 C 297.226562 237.242188 295.679688 240.449219 294.042969 243.117188 C 292.410156 245.777344 290.664062 247.933594 288.828125 249.15625 C 287.421875 250.09375 285.894531 251.09375 284.195312 252.152344 C 288.554688 260.34375 291.917969 269.773438 291.917969 282.15625 C 291.917969 282.355469 291.753906 282.519531 291.554688 282.519531 C 291.351562 282.519531 291.1875 282.355469 291.1875 282.15625 C 291.1875 269.945312 287.878906 260.644531 283.570312 252.539062 C 276.003906 257.210938 265.171875 262.988281 247.402344 269.6875 C 247.210938 269.757812 247 269.664062 246.929688 269.476562 C 246.859375 269.285156 246.953125 269.074219 247.144531 269.003906 C 265.136719 262.21875 275.976562 256.390625 283.519531 251.710938 C 285.324219 250.589844 286.941406 249.535156 288.421875 248.546875 C 290.128906 247.410156 291.800781 245.367188 293.417969 242.734375 C 295.027344 240.109375 296.558594 236.9375 297.988281 233.582031 C 300.210938 228.367188 302.171875 222.746094 303.792969 218.085938 C 304.265625 216.742188 304.703125 215.480469 305.113281 214.328125 C 305.183594 214.140625 305.394531 214.039062 305.582031 214.105469 Z M 305.582031 214.105469 " fill-opacity="1" fill-rule="evenodd"/><path fill="#fcbfbc" d="M 245.902344 266.84375 C 244.007812 268.652344 239.398438 272.488281 236.09375 273.351562 C 234.03125 275.386719 229.585938 279.269531 228.320312 278.496094 C 226.734375 277.527344 234.152344 272.253906 233.761719 271.570312 C 233.371094 270.886719 230.007812 273.210938 228.183594 274.09375 C 226.359375 274.976562 222.613281 276.707031 221.933594 275.65625 C 220.730469 273.796875 226.191406 272.292969 230.917969 269.304688 C 227.289062 270.851562 220.066406 274.027344 219.375 273.035156 C 218.6875 272.042969 218.667969 270.695312 229.921875 266.398438 C 225.589844 266.539062 218.863281 268.355469 218.390625 266.972656 C 217.816406 265.3125 226.289062 263.929688 229.433594 263.160156 C 230.964844 262.785156 232.984375 260.8125 232.976562 260.359375 C 232.714844 260.175781 231.933594 259.851562 230.886719 260.011719 C 229.578125 260.210938 223.359375 259.582031 224.539062 257.28125 C 225.027344 256.328125 228.792969 257.335938 233.554688 256.304688 C 238.339844 256.207031 239.734375 255.535156 243.597656 258.492188 L 243.820312 258.453125 L 243.859375 258.453125 L 244.265625 260.78125 C 244.742188 263.039062 245.328125 265.128906 246.035156 266.746094 Z M 245.902344 266.84375 " fill-opacity="1" fill-rule="nonzero"/><path fill="#5dcad1" d="M 86.617188 343.566406 L 167.421875 343.566406 C 168.230469 343.566406 168.886719 342.910156 168.886719 342.101562 L 168.886719 322.757812 C 168.886719 321.949219 169.542969 321.300781 170.351562 321.242188 C 180.488281 320.492188 188.484375 312.027344 188.484375 301.699219 C 188.484375 291.367188 180.488281 282.902344 170.351562 282.15625 C 169.542969 282.09375 168.886719 281.445312 168.886719 280.636719 L 168.886719 261.292969 C 168.886719 260.484375 168.230469 259.832031 167.421875 259.832031 L 148.082031 259.832031 C 147.273438 259.832031 146.621094 259.171875 146.5625 258.367188 C 145.8125 248.226562 137.351562 240.234375 127.019531 240.234375 C 116.6875 240.234375 108.226562 248.226562 107.476562 258.367188 C 107.417969 259.171875 106.765625 259.832031 105.957031 259.832031 L 86.617188 259.832031 C 85.808594 259.832031 85.152344 260.484375 85.152344 261.292969 L 85.152344 342.101562 C 85.152344 342.910156 85.808594 343.566406 86.617188 343.566406 Z M 86.617188 343.566406 " fill-opacity="1" fill-rule="nonzero"/></svg>