<svg xmlns="http://www.w3.org/2000/svg" xmlns:xlink="http://www.w3.org/1999/xlink" width="500" zoomAndPan="magnify" viewBox="0 0 375 374.999991" height="500" preserveAspectRatio="xMidYMid meet" version="1.0"><defs><g/></defs><g fill="#deb992" fill-opacity="1"><g transform="translate(100.237016, 228.512147)"><g><path d="M 206.671875 -0.6875 L 206.671875 -139.671875 L 149.15625 -139.671875 L 149.15625 -82.9375 L 73.84375 -82.9375 L 73.84375 -139.671875 L 16.328125 -139.671875 L 16.328125 -0.6875 L 73.84375 -0.6875 L 73.84375 -57.3125 L 149.15625 -57.3125 L 149.15625 -0.6875 Z M 208.046875 0.6875 L 147.796875 0.6875 L 147.796875 -55.953125 L 75.21875 -55.953125 L 75.21875 0.6875 L 14.96875 0.6875 L 14.96875 -141.046875 L 75.21875 -141.046875 L 75.21875 -84.3125 L 147.796875 -84.3125 L 147.796875 -141.046875 L 208.046875 -141.046875 Z M 208.046875 0.6875 "/></g></g></g><g fill="#1fbdb3" fill-opacity="1"><g transform="translate(258.421538, 224.861169)"><g><path d="M 20.15625 -28.171875 C 20.15625 -28.171875 20.394531 -28.234375 20.875 -28.359375 C 20.957031 -28.066406 21.085938 -27.757812 21.265625 -27.4375 C 21.441406 -27.125 21.554688 -26.804688 21.609375 -26.484375 C 21.546875 -25.703125 21.488281 -24.898438 21.4375 -24.078125 C 21.382812 -23.253906 21.265625 -22.445312 21.078125 -21.65625 C 19.929688 -17.101562 18.023438 -12.953125 15.359375 -9.203125 C 14.179688 -7.597656 12.789062 -6.28125 11.1875 -5.25 C 9.582031 -4.226562 7.804688 -3.484375 5.859375 -3.015625 C 3.429688 -2.441406 1.226562 -2.675781 -0.75 -3.71875 C -2.738281 -4.757812 -4.320312 -6.535156 -5.5 -9.046875 C -6.863281 -11.859375 -7.664062 -14.691406 -7.90625 -17.546875 C -8.144531 -20.410156 -7.875 -23.269531 -7.09375 -26.125 C -6.144531 -29.75 -3.84375 -31.671875 -0.1875 -31.890625 C 1.269531 -32.015625 2.484375 -31.65625 3.453125 -30.8125 C 4.429688 -29.976562 5.007812 -28.785156 5.1875 -27.234375 C 5.332031 -26.347656 5.363281 -25.445312 5.28125 -24.53125 C 5.195312 -23.625 5.078125 -22.753906 4.921875 -21.921875 C 4.128906 -18.253906 2.472656 -14.894531 -0.046875 -11.84375 C 0.296875 -10.726562 0.789062 -9.832031 1.4375 -9.15625 C 2.082031 -8.476562 2.785156 -7.898438 3.546875 -7.421875 C 4.453125 -6.898438 5.335938 -6.597656 6.203125 -6.515625 C 7.078125 -6.441406 7.929688 -6.710938 8.765625 -7.328125 C 9.429688 -7.828125 10.113281 -8.390625 10.8125 -9.015625 C 11.507812 -9.640625 12.109375 -10.300781 12.609375 -11 C 14.242188 -13.144531 15.632812 -15.445312 16.78125 -17.90625 C 17.9375 -20.363281 18.785156 -22.976562 19.328125 -25.75 C 19.441406 -26.15625 19.578125 -26.554688 19.734375 -26.953125 C 19.898438 -27.359375 20.039062 -27.765625 20.15625 -28.171875 Z M -1.5 -27.5625 C -2.289062 -25.882812 -2.679688 -24.164062 -2.671875 -22.40625 C -2.671875 -20.65625 -2.257812 -18.597656 -1.4375 -16.234375 C -0.757812 -17.640625 -0.3125 -19.019531 -0.09375 -20.375 C 0.113281 -21.726562 0.1875 -23.144531 0.125 -24.625 C 0.09375 -25.175781 -0.015625 -25.722656 -0.203125 -26.265625 C -0.398438 -26.804688 -0.832031 -27.238281 -1.5 -27.5625 Z M -1.5 -27.5625 "/></g></g></g><g fill="#1fbdb3" fill-opacity="1"><g transform="translate(282.541854, 211.535949)"><g><path d="M 19.203125 -37.546875 C 20.347656 -36.734375 21.007812 -35.757812 21.1875 -34.625 C 21.363281 -33.488281 21.300781 -32.320312 21 -31.125 C 20.707031 -29.789062 20.335938 -28.460938 19.890625 -27.140625 C 19.453125 -25.816406 18.945312 -24.554688 18.375 -23.359375 C 17.207031 -20.859375 15.863281 -18.460938 14.34375 -16.171875 C 12.820312 -13.878906 11.160156 -11.691406 9.359375 -9.609375 C 8.609375 -8.710938 7.769531 -7.851562 6.84375 -7.03125 C 5.925781 -6.21875 4.921875 -5.300781 3.828125 -4.28125 C 3.828125 -3.65625 3.816406 -2.890625 3.796875 -1.984375 C 3.773438 -1.085938 3.785156 -0.164062 3.828125 0.78125 C 3.796875 1.96875 3.789062 3.140625 3.8125 4.296875 C 3.832031 5.453125 3.78125 6.613281 3.65625 7.78125 C 3.5625 9.695312 3.128906 11.019531 2.359375 11.75 C 1.597656 12.488281 0.132812 13.003906 -2.03125 13.296875 C -2.726562 12.785156 -3.160156 12.160156 -3.328125 11.421875 C -3.492188 10.691406 -3.644531 9.953125 -3.78125 9.203125 C -4.644531 4.785156 -5.515625 0.347656 -6.390625 -4.109375 C -7.273438 -8.578125 -8.125 -13.03125 -8.9375 -17.46875 C -10.851562 -27.5625 -12.765625 -37.632812 -14.671875 -47.6875 C -16.585938 -57.75 -18.484375 -67.835938 -20.359375 -77.953125 C -20.835938 -80.429688 -21.269531 -82.925781 -21.65625 -85.4375 C -22.039062 -87.945312 -22.421875 -90.472656 -22.796875 -93.015625 C -22.972656 -94.347656 -23.035156 -95.585938 -22.984375 -96.734375 C -22.929688 -98.128906 -22.03125 -98.863281 -20.28125 -98.9375 C -19.125 -94.34375 -18.023438 -89.734375 -16.984375 -85.109375 C -15.941406 -80.492188 -14.882812 -75.898438 -13.8125 -71.328125 C -12.75 -66.679688 -11.722656 -62.03125 -10.734375 -57.375 C -9.753906 -52.726562 -8.738281 -48.085938 -7.6875 -43.453125 C -6.707031 -38.828125 -5.78125 -34.1875 -4.90625 -29.53125 C -4.03125 -24.882812 -2.929688 -20.25 -1.609375 -15.625 C -1.410156 -16.144531 -1.207031 -16.679688 -1 -17.234375 C -0.800781 -17.796875 -0.617188 -18.367188 -0.453125 -18.953125 C 0.335938 -21.378906 1.296875 -23.710938 2.421875 -25.953125 C 3.554688 -28.203125 4.9375 -30.359375 6.5625 -32.421875 C 7.375 -33.429688 8.257812 -34.375 9.21875 -35.25 C 10.175781 -36.125 11.296875 -36.835938 12.578125 -37.390625 C 13.640625 -37.847656 14.742188 -38.1875 15.890625 -38.40625 C 17.035156 -38.625 18.140625 -38.335938 19.203125 -37.546875 Z M 14.515625 -31.65625 C 14.441406 -32.03125 14.289062 -32.394531 14.0625 -32.75 C 13.84375 -33.101562 13.570312 -33.570312 13.25 -34.15625 C 10.976562 -31.382812 9.195312 -28.578125 7.90625 -25.734375 C 6.625 -22.898438 5.644531 -19.914062 4.96875 -16.78125 C 4.875 -16.320312 4.78125 -15.859375 4.6875 -15.390625 C 4.601562 -14.929688 4.5625 -14.460938 4.5625 -13.984375 C 4.519531 -13.546875 4.625 -13.171875 4.875 -12.859375 C 5.125 -12.546875 5.617188 -12.460938 6.359375 -12.609375 C 7.753906 -14.679688 9.117188 -16.8125 10.453125 -19 C 11.796875 -21.1875 12.914062 -23.523438 13.8125 -26.015625 C 14.15625 -26.878906 14.421875 -27.796875 14.609375 -28.765625 C 14.796875 -29.734375 14.765625 -30.695312 14.515625 -31.65625 Z M 14.515625 -31.65625 "/></g></g></g><g fill="#1fbdb3" fill-opacity="1"><g transform="translate(243.604772, 243.500949)"><g><path d="M -188.28125 -35.875 C -183.125 -40.394531 -174.960938 -41.15625 -163.796875 -38.15625 C -152.859375 -35.394531 -143.914062 -30.21875 -136.96875 -22.625 C -131.507812 -16.394531 -130.816406 -11.492188 -134.890625 -7.921875 C -137.460938 -5.660156 -140.269531 -5.769531 -143.3125 -8.25 C -145.675781 -10.4375 -146.273438 -12.035156 -145.109375 -13.046875 C -144.941406 -13.203125 -144.734375 -13.382812 -144.484375 -13.59375 C -144.234375 -13.8125 -143.785156 -14.066406 -143.140625 -14.359375 C -142.648438 -14.617188 -142.21875 -14.914062 -141.84375 -15.25 C -141.46875 -15.582031 -141.195312 -15.820312 -141.03125 -15.96875 C -139.757812 -17.519531 -140.539062 -20 -143.375 -23.40625 C -148.625 -29.394531 -155.257812 -33.359375 -163.28125 -35.296875 C -171.476562 -37.078125 -177.488281 -36.296875 -181.3125 -32.953125 C -184.382812 -30.253906 -185.425781 -26.25 -184.4375 -20.9375 C -183.363281 -15.851562 -180.460938 -10.53125 -175.734375 -4.96875 C -171.148438 0.269531 -165.773438 4.851562 -159.609375 8.78125 C -153.441406 12.707031 -146.289062 16.039062 -138.15625 18.78125 C -122.269531 23.8125 -111.253906 23.707031 -105.109375 18.46875 C -102.273438 15.988281 -100.1875 11.664062 -98.84375 5.5 C -98.34375 2.550781 -97.78125 0.21875 -97.15625 -1.5 C -96.53125 -3.226562 -95.957031 -4.46875 -95.4375 -5.21875 C -92.863281 -7.476562 -86.425781 -6.503906 -76.125 -2.296875 C -68.101562 0.972656 -61.707031 3.53125 -56.9375 5.375 C -52.175781 7.21875 -48.863281 8.359375 -47 8.796875 C -38.59375 10.835938 -32.722656 12.082031 -29.390625 12.53125 C -23.359375 12.695312 -17.820312 10.707031 -12.78125 6.5625 C -7.625 2.039062 -5.050781 -3.664062 -5.0625 -10.5625 C -5.394531 -17.476562 -8.289062 -24.050781 -13.75 -30.28125 C -18.125 -35.269531 -22.75 -39.75 -27.625 -43.71875 C -32.5 -47.6875 -37.648438 -51.253906 -43.078125 -54.421875 C -54.273438 -60.640625 -68.375 -66.070312 -85.375 -70.71875 C -85.457031 -70.800781 -85.160156 -71.722656 -84.484375 -73.484375 C -66.203125 -69.234375 -50.96875 -63.847656 -38.78125 -57.328125 C -32.65625 -53.867188 -26.914062 -49.925781 -21.5625 -45.5 C -16.21875 -41.070312 -10.988281 -36.097656 -5.875 -30.578125 C 0.539062 -23.265625 3.941406 -15.957031 4.328125 -8.65625 C 4.734375 -1.65625 2.0625 4.441406 -3.6875 9.640625 C -10.007812 15.179688 -17.773438 17.648438 -26.984375 17.046875 C -29.484375 16.878906 -32.832031 16.242188 -37.03125 15.140625 C -41.226562 14.046875 -46.347656 12.394531 -52.390625 10.1875 L -75.203125 1.515625 C -82.554688 -1.003906 -86.816406 -1.753906 -87.984375 -0.734375 C -89.066406 0.210938 -90.40625 3.890625 -92 10.296875 C -93.195312 16.484375 -95.046875 20.671875 -97.546875 22.859375 C -104.691406 29.128906 -118.113281 28.988281 -137.8125 22.4375 C -147.539062 19.0625 -156.203125 14.925781 -163.796875 10.03125 C -171.390625 5.144531 -178.109375 -0.46875 -183.953125 -6.8125 C -188.546875 -12.039062 -191.25 -17.460938 -192.0625 -23.078125 C -192.875 -28.691406 -191.613281 -32.957031 -188.28125 -35.875 Z M -188.28125 -35.875 "/></g></g></g><g fill="#deb992" fill-opacity="1"><g transform="translate(74.827682, 235.953967)"><g><path d="M 81.234375 -74.28125 L 47.453125 -72.984375 L 42.359375 -28.453125 L 83.953125 -29.859375 C 85.828125 -29.785156 86.765625 -28.847656 86.765625 -27.046875 L 83.953125 -4.5625 C 83.804688 -3.039062 82.863281 -2.097656 81.125 -1.734375 L 14.328125 0.4375 C 12.742188 0.4375 11.953125 -0.25 11.953125 -1.625 L 30.734375 -165.9375 C 31.023438 -167.457031 31.96875 -168.289062 33.5625 -168.4375 L 93.0625 -170.5 C 94.875 -170.28125 95.78125 -169.300781 95.78125 -167.5625 L 93.0625 -145.078125 C 92.84375 -143.273438 91.90625 -142.300781 90.25 -142.15625 L 55.28125 -141.171875 L 50.609375 -100.78125 L 84.046875 -101.96875 C 85.929688 -101.894531 86.875 -100.957031 86.875 -99.15625 L 84.046875 -77 C 83.765625 -75.332031 82.828125 -74.425781 81.234375 -74.28125 Z M 81.234375 -74.28125 "/></g></g></g></svg>