<svg xmlns="http://www.w3.org/2000/svg" xmlns:xlink="http://www.w3.org/1999/xlink" width="500" zoomAndPan="magnify" viewBox="0 0 375 374.999991" height="500" preserveAspectRatio="xMidYMid meet" version="1.0"><defs><g/><clipPath id="3c8804ed41"><path d="M 69 199 L 237 199 L 237 295 L 69 295 Z M 69 199 " clip-rule="nonzero"/></clipPath><clipPath id="6c14a0384d"><path d="M -21.503906 200.484375 L 184.855469 59.804688 L 325.535156 266.167969 L 119.175781 406.84375 Z M -21.503906 200.484375 " clip-rule="nonzero"/></clipPath><clipPath id="0276807b22"><path d="M 184.992188 59.714844 L -21.367188 200.390625 L 119.308594 406.753906 L 325.671875 266.074219 Z M 184.992188 59.714844 " clip-rule="nonzero"/></clipPath><clipPath id="ee2de6b651"><path d="M 184.992188 59.714844 L -21.367188 200.390625 L 119.308594 406.753906 L 325.671875 266.074219 Z M 184.992188 59.714844 " clip-rule="nonzero"/></clipPath></defs><g clip-path="url(#3c8804ed41)"><g clip-path="url(#6c14a0384d)"><g clip-path="url(#0276807b22)"><g clip-path="url(#ee2de6b651)"><path fill="#1fbdb3" d="M 232.089844 207.863281 C 230.191406 204.148438 227.808594 201.703125 224.933594 200.523438 C 222.058594 199.339844 219.195312 198.925781 216.339844 199.28125 C 213.488281 199.636719 210.964844 200.542969 208.761719 202.003906 C 206.554688 203.460938 205.148438 205.050781 204.542969 206.769531 C 203.984375 208.332031 204.199219 209.773438 205.183594 211.089844 C 205.59375 211.722656 206.527344 211.691406 207.980469 211 C 209.429688 210.3125 210.878906 209.742188 212.316406 209.289062 C 216.074219 208.214844 219.4375 208.242188 222.402344 209.378906 C 225.371094 210.507812 227.742188 212.308594 229.507812 214.773438 C 231.273438 217.246094 232.378906 220.125 232.816406 223.414062 C 233.257812 226.703125 232.902344 229.984375 231.746094 233.261719 C 230.328125 237.253906 227.988281 240.5625 224.730469 243.179688 C 221.472656 245.804688 217.832031 247.808594 213.8125 249.1875 C 209.796875 250.566406 205.605469 251.402344 201.242188 251.699219 C 196.886719 252 192.851562 251.730469 189.132812 250.898438 C 187.234375 250.378906 185.660156 249.617188 184.40625 248.617188 C 183.160156 247.617188 182.167969 246.460938 181.421875 245.148438 C 180.683594 243.839844 180.050781 242.449219 179.53125 240.984375 C 179.007812 239.519531 178.492188 238.132812 177.984375 236.835938 C 177.625 236.0625 176.964844 235.667969 176.003906 235.644531 C 175.382812 235.585938 174.753906 236.007812 174.117188 236.90625 C 172.523438 240.03125 170.683594 243.746094 168.589844 248.066406 C 166.496094 252.386719 163.59375 256.734375 159.875 261.109375 C 156.160156 265.488281 151.332031 269.59375 145.398438 273.421875 C 139.460938 277.257812 131.882812 280.183594 122.660156 282.210938 C 116.507812 283.714844 110.367188 283.945312 104.242188 282.902344 C 98.113281 281.855469 92.667969 279.445312 87.90625 275.664062 C 84.746094 273.257812 82.171875 270.78125 80.183594 268.230469 C 78.203125 265.683594 76.632812 263.003906 75.46875 260.1875 C 74.304688 257.363281 73.523438 254.355469 73.125 251.167969 C 72.730469 247.980469 72.496094 244.441406 72.429688 240.558594 C 73.015625 232.589844 74.824219 224.328125 77.859375 215.773438 C 78.15625 214.917969 77.878906 214.335938 77.023438 214.027344 C 76.167969 213.722656 75.589844 213.996094 75.292969 214.855469 C 69.933594 229.964844 68.164062 243.539062 69.988281 255.585938 C 70.035156 255.925781 70.078125 256.265625 70.125 256.601562 C 70.167969 256.933594 70.28125 257.296875 70.460938 257.683594 C 71.839844 265.558594 74.96875 272.566406 79.847656 278.714844 C 84.730469 284.855469 91.019531 289.289062 98.71875 292.019531 C 104.992188 294.242188 111.648438 295.035156 118.695312 294.40625 C 125.742188 293.785156 132.742188 291.695312 139.699219 288.136719 C 146.652344 284.585938 153.210938 279.445312 159.363281 272.71875 C 165.515625 265.996094 170.769531 257.628906 175.121094 247.617188 C 175.265625 247.671875 175.53125 247.605469 175.921875 247.425781 L 176.132812 247.496094 C 176.371094 247.734375 176.492188 247.855469 176.492188 247.855469 C 177.648438 250.03125 178.910156 252.242188 180.277344 254.492188 C 181.644531 256.75 184.210938 258.460938 187.96875 259.628906 C 192.582031 261.097656 197.308594 261.574219 202.148438 261.042969 C 206.992188 260.519531 211.585938 259.222656 215.929688 257.152344 C 220.277344 255.085938 224.121094 252.277344 227.460938 248.722656 C 230.808594 245.171875 233.289062 241.117188 234.910156 236.554688 C 236.375 232.414062 236.976562 227.894531 236.707031 222.988281 C 236.441406 218.082031 234.902344 213.039062 232.089844 207.863281 Z M 232.089844 207.863281 " fill-opacity="1" fill-rule="nonzero"/></g></g></g></g><g fill="#deb992" fill-opacity="1"><g transform="translate(89.874205, 249.791539)"><g><path d="M 206.671875 -0.6875 L 206.671875 -139.671875 L 149.15625 -139.671875 L 149.15625 -82.9375 L 73.84375 -82.9375 L 73.84375 -139.671875 L 16.328125 -139.671875 L 16.328125 -0.6875 L 73.84375 -0.6875 L 73.84375 -57.3125 L 149.15625 -57.3125 L 149.15625 -0.6875 Z M 208.046875 0.6875 L 147.796875 0.6875 L 147.796875 -55.953125 L 75.21875 -55.953125 L 75.21875 0.6875 L 14.96875 0.6875 L 14.96875 -141.046875 L 75.21875 -141.046875 L 75.21875 -84.3125 L 147.796875 -84.3125 L 147.796875 -141.046875 L 208.046875 -141.046875 Z M 208.046875 0.6875 "/></g></g></g><g fill="#1fbdb3" fill-opacity="1"><g transform="translate(248.058706, 246.140556)"><g><path d="M 20.15625 -28.171875 C 20.15625 -28.171875 20.394531 -28.234375 20.875 -28.359375 C 20.957031 -28.066406 21.085938 -27.757812 21.265625 -27.4375 C 21.441406 -27.125 21.554688 -26.804688 21.609375 -26.484375 C 21.546875 -25.703125 21.488281 -24.898438 21.4375 -24.078125 C 21.382812 -23.253906 21.265625 -22.445312 21.078125 -21.65625 C 19.929688 -17.101562 18.023438 -12.953125 15.359375 -9.203125 C 14.179688 -7.597656 12.789062 -6.28125 11.1875 -5.25 C 9.582031 -4.226562 7.804688 -3.484375 5.859375 -3.015625 C 3.429688 -2.441406 1.226562 -2.675781 -0.75 -3.71875 C -2.738281 -4.757812 -4.320312 -6.535156 -5.5 -9.046875 C -6.863281 -11.859375 -7.664062 -14.691406 -7.90625 -17.546875 C -8.144531 -20.410156 -7.875 -23.269531 -7.09375 -26.125 C -6.144531 -29.75 -3.84375 -31.671875 -0.1875 -31.890625 C 1.269531 -32.015625 2.484375 -31.65625 3.453125 -30.8125 C 4.429688 -29.976562 5.007812 -28.785156 5.1875 -27.234375 C 5.332031 -26.347656 5.363281 -25.445312 5.28125 -24.53125 C 5.195312 -23.625 5.078125 -22.753906 4.921875 -21.921875 C 4.128906 -18.253906 2.472656 -14.894531 -0.046875 -11.84375 C 0.296875 -10.726562 0.789062 -9.832031 1.4375 -9.15625 C 2.082031 -8.476562 2.785156 -7.898438 3.546875 -7.421875 C 4.453125 -6.898438 5.335938 -6.597656 6.203125 -6.515625 C 7.078125 -6.441406 7.929688 -6.710938 8.765625 -7.328125 C 9.429688 -7.828125 10.113281 -8.390625 10.8125 -9.015625 C 11.507812 -9.640625 12.109375 -10.300781 12.609375 -11 C 14.242188 -13.144531 15.632812 -15.445312 16.78125 -17.90625 C 17.9375 -20.363281 18.785156 -22.976562 19.328125 -25.75 C 19.441406 -26.15625 19.578125 -26.554688 19.734375 -26.953125 C 19.898438 -27.359375 20.039062 -27.765625 20.15625 -28.171875 Z M -1.5 -27.5625 C -2.289062 -25.882812 -2.679688 -24.164062 -2.671875 -22.40625 C -2.671875 -20.65625 -2.257812 -18.597656 -1.4375 -16.234375 C -0.757812 -17.640625 -0.3125 -19.019531 -0.09375 -20.375 C 0.113281 -21.726562 0.1875 -23.144531 0.125 -24.625 C 0.09375 -25.175781 -0.015625 -25.722656 -0.203125 -26.265625 C -0.398438 -26.804688 -0.832031 -27.238281 -1.5 -27.5625 Z M -1.5 -27.5625 "/></g></g></g><g fill="#1fbdb3" fill-opacity="1"><g transform="translate(272.179022, 232.815336)"><g><path d="M 19.203125 -37.546875 C 20.347656 -36.734375 21.007812 -35.757812 21.1875 -34.625 C 21.363281 -33.488281 21.300781 -32.320312 21 -31.125 C 20.707031 -29.789062 20.335938 -28.460938 19.890625 -27.140625 C 19.453125 -25.816406 18.945312 -24.554688 18.375 -23.359375 C 17.207031 -20.859375 15.863281 -18.460938 14.34375 -16.171875 C 12.820312 -13.878906 11.160156 -11.691406 9.359375 -9.609375 C 8.609375 -8.710938 7.769531 -7.851562 6.84375 -7.03125 C 5.925781 -6.21875 4.921875 -5.300781 3.828125 -4.28125 C 3.828125 -3.65625 3.816406 -2.890625 3.796875 -1.984375 C 3.773438 -1.085938 3.785156 -0.164062 3.828125 0.78125 C 3.796875 1.96875 3.789062 3.140625 3.8125 4.296875 C 3.832031 5.453125 3.78125 6.613281 3.65625 7.78125 C 3.5625 9.695312 3.128906 11.019531 2.359375 11.75 C 1.597656 12.488281 0.132812 13.003906 -2.03125 13.296875 C -2.726562 12.785156 -3.160156 12.160156 -3.328125 11.421875 C -3.492188 10.691406 -3.644531 9.953125 -3.78125 9.203125 C -4.644531 4.785156 -5.515625 0.347656 -6.390625 -4.109375 C -7.273438 -8.578125 -8.125 -13.03125 -8.9375 -17.46875 C -10.851562 -27.5625 -12.765625 -37.632812 -14.671875 -47.6875 C -16.585938 -57.75 -18.484375 -67.835938 -20.359375 -77.953125 C -20.835938 -80.429688 -21.269531 -82.925781 -21.65625 -85.4375 C -22.039062 -87.945312 -22.421875 -90.472656 -22.796875 -93.015625 C -22.972656 -94.347656 -23.035156 -95.585938 -22.984375 -96.734375 C -22.929688 -98.128906 -22.03125 -98.863281 -20.28125 -98.9375 C -19.125 -94.34375 -18.023438 -89.734375 -16.984375 -85.109375 C -15.941406 -80.492188 -14.882812 -75.898438 -13.8125 -71.328125 C -12.75 -66.679688 -11.722656 -62.03125 -10.734375 -57.375 C -9.753906 -52.726562 -8.738281 -48.085938 -7.6875 -43.453125 C -6.707031 -38.828125 -5.78125 -34.1875 -4.90625 -29.53125 C -4.03125 -24.882812 -2.929688 -20.25 -1.609375 -15.625 C -1.410156 -16.144531 -1.207031 -16.679688 -1 -17.234375 C -0.800781 -17.796875 -0.617188 -18.367188 -0.453125 -18.953125 C 0.335938 -21.378906 1.296875 -23.710938 2.421875 -25.953125 C 3.554688 -28.203125 4.9375 -30.359375 6.5625 -32.421875 C 7.375 -33.429688 8.257812 -34.375 9.21875 -35.25 C 10.175781 -36.125 11.296875 -36.835938 12.578125 -37.390625 C 13.640625 -37.847656 14.742188 -38.1875 15.890625 -38.40625 C 17.035156 -38.625 18.140625 -38.335938 19.203125 -37.546875 Z M 14.515625 -31.65625 C 14.441406 -32.03125 14.289062 -32.394531 14.0625 -32.75 C 13.84375 -33.101562 13.570312 -33.570312 13.25 -34.15625 C 10.976562 -31.382812 9.195312 -28.578125 7.90625 -25.734375 C 6.625 -22.898438 5.644531 -19.914062 4.96875 -16.78125 C 4.875 -16.320312 4.78125 -15.859375 4.6875 -15.390625 C 4.601562 -14.929688 4.5625 -14.460938 4.5625 -13.984375 C 4.519531 -13.546875 4.625 -13.171875 4.875 -12.859375 C 5.125 -12.546875 5.617188 -12.460938 6.359375 -12.609375 C 7.753906 -14.679688 9.117188 -16.8125 10.453125 -19 C 11.796875 -21.1875 12.914062 -23.523438 13.8125 -26.015625 C 14.15625 -26.878906 14.421875 -27.796875 14.609375 -28.765625 C 14.796875 -29.734375 14.765625 -30.695312 14.515625 -31.65625 Z M 14.515625 -31.65625 "/></g></g></g><g fill="#1fbdb3" fill-opacity="1"><g transform="translate(95.844342, 240.638557)"><g><path d="M -14.375 -38.484375 C -14.226562 -38.734375 -13.988281 -38.957031 -13.65625 -39.15625 C -13.332031 -39.351562 -12.945312 -39.632812 -12.5 -40 C -12.550781 -39.488281 -12.570312 -39.140625 -12.5625 -38.953125 C -12.550781 -38.765625 -12.578125 -38.613281 -12.640625 -38.5 C -14.140625 -35.25 -15.472656 -31.957031 -16.640625 -28.625 C -17.804688 -25.289062 -18.957031 -21.941406 -20.09375 -18.578125 C -20.082031 -18.523438 -20.085938 -18.476562 -20.109375 -18.4375 C -20.128906 -18.40625 -20.128906 -18.359375 -20.109375 -18.296875 C -20.285156 -17.835938 -20.476562 -17.398438 -20.6875 -16.984375 C -20.894531 -16.578125 -21.28125 -16.347656 -21.84375 -16.296875 C -22.164062 -16.242188 -22.410156 -16.441406 -22.578125 -16.890625 C -22.742188 -17.335938 -22.742188 -17.953125 -22.578125 -18.734375 C -22.410156 -19.535156 -22.21875 -20.347656 -22 -21.171875 C -21.78125 -22.003906 -21.535156 -22.828125 -21.265625 -23.640625 C -20.566406 -25.765625 -19.769531 -27.832031 -18.875 -29.84375 C -17.988281 -31.863281 -17.039062 -33.867188 -16.03125 -35.859375 C -15.539062 -36.867188 -14.988281 -37.742188 -14.375 -38.484375 Z M -14.375 -38.484375 "/></g></g></g><g fill="#deb992" fill-opacity="1"><g transform="translate(64.464867, 257.233355)"><g><path d="M 81.234375 -74.28125 L 47.453125 -72.984375 L 42.359375 -28.453125 L 83.953125 -29.859375 C 85.828125 -29.785156 86.765625 -28.847656 86.765625 -27.046875 L 83.953125 -4.5625 C 83.804688 -3.039062 82.863281 -2.097656 81.125 -1.734375 L 14.328125 0.4375 C 12.742188 0.4375 11.953125 -0.25 11.953125 -1.625 L 30.734375 -165.9375 C 31.023438 -167.457031 31.96875 -168.289062 33.5625 -168.4375 L 93.0625 -170.5 C 94.875 -170.28125 95.78125 -169.300781 95.78125 -167.5625 L 93.0625 -145.078125 C 92.84375 -143.273438 91.90625 -142.300781 90.25 -142.15625 L 55.28125 -141.171875 L 50.609375 -100.78125 L 84.046875 -101.96875 C 85.929688 -101.894531 86.875 -100.957031 86.875 -99.15625 L 84.046875 -77 C 83.765625 -75.332031 82.828125 -74.425781 81.234375 -74.28125 Z M 81.234375 -74.28125 "/></g></g></g></svg>