<svg xmlns="http://www.w3.org/2000/svg" xmlns:xlink="http://www.w3.org/1999/xlink" width="500" zoomAndPan="magnify" viewBox="0 0 375 374.999991" height="500" preserveAspectRatio="xMidYMid meet" version="1.0"><defs><clipPath id="2a9c3b1459"><path d="M 0 56 L 374.25 56 L 374.25 312 L 0 312 Z M 0 56 " clip-rule="nonzero"/></clipPath><clipPath id="53a1d9e9f2"><path d="M 0 57 L 374.25 57 L 374.25 79 L 0 79 Z M 0 57 " clip-rule="nonzero"/></clipPath><clipPath id="ec77456ade"><path d="M 302 222 L 374.25 222 L 374.25 316 L 302 316 Z M 302 222 " clip-rule="nonzero"/></clipPath></defs><g clip-path="url(#2a9c3b1459)"><path fill="#5dcad1" d="M 0.234375 67.585938 C 0.234375 61.6875 5.015625 56.90625 10.910156 56.90625 L 363.324219 56.90625 C 369.222656 56.90625 374.003906 61.6875 374.003906 67.585938 L 374.003906 300.390625 C 374.003906 306.289062 369.222656 311.070312 363.324219 311.070312 L 10.910156 311.070312 C 5.015625 311.070312 0.234375 306.289062 0.234375 300.390625 Z M 0.234375 67.585938 " fill-opacity="1" fill-rule="nonzero"/></g><g clip-path="url(#53a1d9e9f2)"><path fill="#3289b6" d="M 0.0742188 66.175781 C 0.0742188 61.324219 4.003906 57.390625 8.855469 57.390625 L 365.414062 57.390625 C 370.261719 57.390625 374.195312 61.324219 374.195312 66.175781 L 374.195312 78.34375 L 0.0742188 78.34375 Z M 0.0742188 66.175781 " fill-opacity="1" fill-rule="nonzero"/></g><path fill="#5dcad1" d="M 24.796875 68.203125 C 24.796875 70.695312 22.882812 72.71875 20.523438 72.71875 C 18.164062 72.71875 16.253906 70.695312 16.253906 68.203125 C 16.253906 65.707031 18.164062 63.683594 20.523438 63.683594 C 22.882812 63.683594 24.796875 65.707031 24.796875 68.203125 Z M 24.796875 68.203125 " fill-opacity="1" fill-rule="nonzero"/><path fill="#5dcad1" d="M 38.679688 68.203125 C 38.679688 70.695312 36.765625 72.71875 34.40625 72.71875 C 32.046875 72.71875 30.136719 70.695312 30.136719 68.203125 C 30.136719 65.707031 32.046875 63.683594 34.40625 63.683594 C 36.765625 63.683594 38.679688 65.707031 38.679688 68.203125 Z M 38.679688 68.203125 " fill-opacity="1" fill-rule="nonzero"/><path fill="#5dcad1" d="M 52.5625 68.203125 C 52.5625 70.695312 50.648438 72.71875 48.289062 72.71875 C 45.929688 72.71875 44.015625 70.695312 44.015625 68.203125 C 44.015625 65.707031 45.929688 63.683594 48.289062 63.683594 C 50.648438 63.683594 52.5625 65.707031 52.5625 68.203125 Z M 52.5625 68.203125 " fill-opacity="1" fill-rule="nonzero"/><path fill="#5dcad1" d="M 97.335938 275.203125 C 97.679688 274.863281 98.234375 274.867188 98.574219 275.210938 L 101.859375 278.535156 L 98.570312 281.792969 C 98.226562 282.132812 97.667969 282.128906 97.328125 281.785156 C 96.988281 281.441406 96.988281 280.882812 97.332031 280.542969 L 98.484375 279.40625 L 88.871094 279.40625 C 88.386719 279.40625 87.992188 279.011719 87.992188 278.527344 C 87.992188 278.042969 88.386719 277.648438 88.871094 277.648438 L 98.515625 277.648438 L 97.328125 276.445312 C 96.984375 276.101562 96.988281 275.542969 97.335938 275.203125 Z M 97.335938 275.203125 " fill-opacity="1" fill-rule="evenodd"/><path fill="#fcbfbc" d="M 223.429688 219.117188 C 225.972656 222.121094 228.839844 224.105469 232.363281 223.507812 C 237.890625 222.570312 243.140625 215.855469 251.019531 202.429688 L 239.386719 196.625 C 236.84375 199.949219 234.570312 203.550781 232.363281 208.136719 Z M 223.429688 219.117188 " fill-opacity="1" fill-rule="nonzero"/><path fill="#f5f5f5" d="M 241.632812 291.570312 L 118.585938 291.570312 C 115.660156 291.570312 113.042969 290.269531 111.28125 288.222656 C 109.839844 286.550781 108.972656 284.378906 108.972656 282.003906 L 108.972656 199.753906 L 180.109375 151.933594 L 251.242188 199.753906 L 251.242188 282.003906 C 251.242188 284.378906 250.375 286.550781 248.9375 288.222656 C 247.171875 290.269531 244.554688 291.570312 241.632812 291.570312 Z M 241.632812 291.570312 " fill-opacity="1" fill-rule="nonzero"/><path fill="#3289b6" d="M 257.554688 155.949219 L 271.375 153.261719 L 277.355469 184.03125 C 277.726562 185.933594 276.484375 187.777344 274.578125 188.148438 L 267.65625 189.496094 C 265.75 189.863281 263.90625 188.621094 263.535156 186.714844 Z M 257.554688 155.949219 " fill-opacity="1" fill-rule="nonzero"/><path fill="#253036" d="M 257.042969 155.601562 L 271.722656 152.746094 L 277.789062 183.945312 C 278.203125 186.089844 276.804688 188.164062 274.660156 188.578125 L 267.738281 189.925781 C 265.597656 190.34375 263.519531 188.941406 263.105469 186.800781 Z M 258.070312 156.296875 L 263.964844 186.632812 C 264.289062 188.296875 265.90625 189.386719 267.570312 189.0625 L 274.492188 187.71875 C 276.160156 187.394531 277.25 185.78125 276.925781 184.113281 L 271.027344 153.777344 Z M 258.070312 156.296875 " fill-opacity="1" fill-rule="evenodd"/><path fill="#253036" d="M 250.886719 129.550781 L 246.070312 130.726562 C 242.429688 139.414062 244.214844 149.925781 250.886719 156.421875 L 256.445312 155.113281 C 250.8125 152.152344 250.394531 136.714844 250.886719 129.550781 Z M 250.886719 129.550781 " fill-opacity="1" fill-rule="nonzero"/><path fill="#3289b6" d="M 251.628906 126.957031 L 269.410156 123.253906 C 269.164062 132.144531 269.855469 150.667969 274.597656 153.632812 L 257.554688 157.339844 C 248.109375 150.621094 245.8125 136.984375 251.628906 126.957031 Z M 251.628906 126.957031 " fill-opacity="1" fill-rule="nonzero"/><path fill="#253036" d="M 269.867188 122.710938 L 269.851562 123.265625 C 269.726562 127.695312 269.839844 134.527344 270.570312 140.613281 C 270.9375 143.65625 271.457031 146.5 272.171875 148.753906 C 272.53125 149.878906 272.933594 150.847656 273.382812 151.621094 C 273.835938 152.394531 274.320312 152.941406 274.832031 153.261719 L 275.746094 153.832031 L 257.460938 157.808594 L 257.300781 157.695312 C 247.652344 150.832031 245.328125 136.941406 251.25 126.738281 L 251.347656 126.566406 Z M 251.910156 127.347656 C 246.351562 137.125 248.59375 150.292969 257.652344 156.867188 L 273.617188 153.398438 C 273.253906 153.027344 272.925781 152.574219 272.625 152.0625 C 272.128906 151.21875 271.703125 150.183594 271.335938 149.019531 C 270.59375 146.6875 270.066406 143.789062 269.699219 140.71875 C 268.988281 134.828125 268.859375 128.257812 268.960938 123.796875 Z M 251.910156 127.347656 " fill-opacity="1" fill-rule="evenodd"/><path fill="#3289b6" d="M 343.339844 126.554688 C 348.535156 153.28125 346.863281 176.09375 339.601562 177.503906 C 332.339844 178.917969 322.242188 158.394531 317.046875 131.667969 C 311.851562 104.9375 313.527344 82.128906 320.789062 80.71875 C 328.046875 79.304688 338.144531 99.828125 343.339844 126.554688 Z M 343.339844 126.554688 " fill-opacity="1" fill-rule="nonzero"/><path fill="#253036" d="M 314.683594 96.730469 C 314.011719 105.902344 314.886719 118.246094 317.480469 131.582031 C 320.070312 144.917969 323.886719 156.691406 327.945312 164.945312 C 329.976562 169.074219 332.058594 172.296875 334.0625 174.394531 C 336.085938 176.507812 337.933594 177.382812 339.519531 177.074219 C 341.105469 176.765625 342.488281 175.261719 343.570312 172.542969 C 344.644531 169.847656 345.367188 166.082031 345.703125 161.492188 C 346.378906 152.320312 345.503906 139.976562 342.910156 126.640625 C 340.316406 113.300781 336.503906 101.527344 332.445312 93.277344 C 330.414062 89.148438 328.332031 85.925781 326.328125 83.828125 C 324.304688 81.714844 322.457031 80.839844 320.871094 81.148438 C 319.285156 81.457031 317.898438 82.960938 316.816406 85.675781 C 315.746094 88.371094 315.023438 92.140625 314.683594 96.730469 Z M 316.003906 85.351562 C 317.113281 82.5625 318.660156 80.683594 320.703125 80.285156 C 322.75 79.890625 324.886719 81.050781 326.960938 83.222656 C 329.054688 85.410156 331.183594 88.722656 333.234375 92.890625 C 337.335938 101.230469 341.167969 113.082031 343.773438 126.472656 C 346.375 139.863281 347.261719 152.285156 346.578125 161.554688 C 346.238281 166.1875 345.507812 170.054688 344.386719 172.871094 C 343.277344 175.660156 341.730469 177.539062 339.683594 177.9375 C 337.640625 178.332031 335.503906 177.171875 333.429688 175 C 331.335938 172.8125 329.207031 169.5 327.15625 165.332031 C 323.054688 156.992188 319.21875 145.140625 316.617188 131.75 C 314.015625 118.359375 313.128906 105.933594 313.808594 96.667969 C 314.148438 92.035156 314.882812 88.167969 316.003906 85.351562 Z M 316.003906 85.351562 " fill-opacity="1" fill-rule="evenodd"/><path fill="#253036" d="M 313.128906 123.328125 L 318.714844 123.328125 C 325.789062 123.328125 334.9375 126.769531 331.972656 133.1875 L 331.941406 133.253906 L 316.464844 140.296875 Z M 313.128906 123.328125 " fill-opacity="1" fill-rule="nonzero"/><path fill="#5dcad1" d="M 339.601562 177.503906 C 338.894531 177.644531 338.160156 177.570312 337.40625 177.308594 C 330.65625 176.085938 325.640625 169.515625 315.351562 166.230469 C 300.867188 161.605469 283.261719 160.742188 277.933594 160.671875 C 266.816406 151.410156 263.113281 134.367188 269.410156 119.917969 C 279.414062 116.214844 303.867188 102.503906 310.535156 92.871094 C 315.871094 85.164062 318.007812 82.5 318.410156 82.128906 C 313.222656 87.679688 312.480469 108.15625 317.046875 131.667969 C 321.738281 155.789062 330.417969 174.855469 337.40625 177.308594 C 338.113281 177.4375 338.84375 177.503906 339.601562 177.503906 Z M 339.601562 177.503906 " fill-opacity="1" fill-rule="nonzero"/><path fill="#253036" d="M 320.871094 81.148438 C 320.105469 81.296875 319.390625 81.71875 318.730469 82.425781 C 317.511719 83.730469 316.515625 85.964844 315.792969 89.003906 C 315.074219 92.035156 314.640625 95.820312 314.507812 100.175781 C 314.246094 108.890625 315.199219 119.851562 317.480469 131.582031 C 319.820312 143.617188 323.152344 154.382812 326.765625 162.433594 C 328.574219 166.460938 330.445312 169.796875 332.289062 172.273438 C 334.128906 174.742188 335.90625 176.300781 337.519531 176.882812 C 338.191406 177 338.882812 177.066406 339.601562 177.066406 L 339.683594 177.9375 C 338.902344 178.089844 338.097656 178.011719 337.292969 177.734375 C 333.90625 177.109375 330.953125 175.183594 327.691406 173.058594 C 327.617188 173.007812 327.542969 172.960938 327.464844 172.910156 C 324.082031 170.703125 320.300781 168.269531 315.21875 166.648438 C 300.796875 162.042969 283.242188 161.179688 277.929688 161.109375 L 277.773438 161.109375 L 277.652344 161.007812 C 266.375 151.613281 262.640625 134.355469 269.007812 119.742188 L 269.085938 119.570312 L 269.257812 119.507812 C 274.222656 117.667969 282.808594 113.332031 290.992188 108.246094 C 295.082031 105.703125 299.0625 102.980469 302.429688 100.296875 C 305.804688 97.609375 308.546875 94.976562 310.175781 92.621094 C 312.84375 88.765625 314.714844 86.167969 315.972656 84.488281 C 316.597656 83.644531 317.074219 83.03125 317.417969 82.605469 C 317.746094 82.199219 317.96875 81.941406 318.097656 81.816406 C 318.855469 81.011719 319.726562 80.476562 320.703125 80.285156 Z M 315.589844 86.484375 C 314.417969 88.09375 312.878906 90.257812 310.898438 93.121094 C 309.195312 95.582031 306.375 98.277344 302.976562 100.984375 C 299.574219 103.695312 295.566406 106.4375 291.457031 108.992188 C 283.339844 114.035156 274.804688 118.363281 269.738281 120.265625 C 263.640625 134.460938 267.28125 151.125 278.09375 160.234375 C 283.617188 160.320312 301.078125 161.210938 315.488281 165.8125 C 320.691406 167.472656 324.558594 169.96875 327.945312 172.175781 L 328.089844 172.269531 C 330.320312 173.722656 332.324219 175.027344 334.367188 175.910156 C 333.4375 175.085938 332.507812 174.035156 331.582031 172.796875 C 329.6875 170.253906 327.785156 166.855469 325.964844 162.792969 C 322.316406 154.667969 318.964844 143.835938 316.617188 131.75 C 314.328125 119.972656 313.367188 108.941406 313.632812 100.152344 C 313.761719 95.753906 314.203125 91.910156 314.941406 88.804688 C 315.132812 87.980469 315.351562 87.207031 315.589844 86.484375 Z M 315.589844 86.484375 " fill-opacity="1" fill-rule="evenodd"/><path fill="#fcbfbc" d="M 255.195312 174.765625 C 245.097656 185.746094 238.949219 191.015625 233.242188 202.871094 C 231.613281 200.910156 231.382812 198.429688 228.847656 195.40625 C 227.09375 196.902344 220.359375 202.367188 217.871094 204.1875 C 222.125 211.019531 226.480469 219.386719 233.242188 218.238281 C 240.742188 216.964844 247.730469 205.066406 261.460938 180.191406 C 261.589844 180.160156 261.71875 180.128906 261.847656 180.09375 L 258.078125 160.914062 C 256.820312 162.824219 256.125 164.4375 255.636719 165.984375 C 254.777344 168.695312 254.707031 171.207031 255.195312 174.765625 Z M 255.195312 174.765625 " fill-opacity="1" fill-rule="nonzero"/><path fill="#fcbfbc" d="M 260.464844 160.734375 C 258.707031 162.050781 257.832031 165.566406 257.390625 166.445312 C 257.832031 167.617188 258.796875 169.691406 259.148438 168.640625 C 259.585938 167.320312 261.34375 163.808594 264.417969 161.613281 C 267.492188 159.417969 262.222656 159.417969 260.464844 160.734375 Z M 260.464844 160.734375 " fill-opacity="1" fill-rule="nonzero"/><path fill="#fcbfbc" d="M 183.644531 162.675781 C 190.542969 160.003906 190.859375 147.957031 190.15625 142.269531 C 191.125 144.6875 197.570312 156.433594 207.046875 156.597656 C 207.089844 158.167969 208.175781 162.488281 209.3125 165.246094 C 209.867188 166.597656 210.238281 168.191406 209.519531 169.460938 C 204.714844 177.941406 190.148438 168.085938 183.644531 162.675781 Z M 183.644531 162.675781 " fill-opacity="1" fill-rule="nonzero"/><path fill="#fcbfbc" d="M 193.320312 133.121094 C 204.566406 131.886719 208.261719 123.757812 208.769531 119.546875 C 211.304688 120.257812 216.511719 122.984375 217.074219 128.191406 C 217.777344 134.703125 220.59375 154.054688 209.683594 156.34375 C 208.78125 156.53125 207.902344 156.613281 207.042969 156.597656 C 197.566406 156.433594 191.121094 144.6875 190.15625 142.269531 C 184.523438 139.628906 183.996094 133.648438 186.109375 131.535156 C 187.796875 129.847656 191.621094 131.886719 193.320312 133.121094 Z M 193.320312 133.121094 " fill-opacity="1" fill-rule="nonzero"/><path fill="#253036" d="M 189.757812 135.613281 C 189.117188 135.007812 188.367188 134.597656 187.886719 134.40625 L 188.203125 133.589844 C 188.777344 133.8125 189.628906 134.28125 190.363281 134.976562 C 191.09375 135.675781 191.746094 136.636719 191.824219 137.839844 L 190.949219 137.898438 C 190.886719 136.992188 190.394531 136.222656 189.757812 135.613281 Z M 195.738281 149.988281 C 198.625 153.210938 202.496094 156.078125 207.054688 156.160156 L 207.039062 157.035156 C 202.117188 156.953125 198.027344 153.863281 195.082031 150.570312 C 192.128906 147.273438 190.25 143.6875 189.746094 142.429688 L 190.5625 142.105469 C 191.027344 143.269531 192.855469 146.765625 195.738281 149.988281 Z M 195.738281 149.988281 " fill-opacity="1" fill-rule="evenodd"/><path fill="#253036" d="M 193.320312 133.121094 C 204.566406 131.886719 208.261719 123.757812 208.769531 119.546875 C 211.304688 120.257812 216.511719 122.984375 217.074219 128.191406 C 217.777344 134.703125 220.59375 154.054688 209.683594 156.34375 C 208.78125 156.53125 207.902344 156.613281 207.046875 156.597656 C 207.089844 158.097656 208.425781 165.21875 209.089844 167.300781 C 214.476562 169.871094 218.519531 171 220.539062 174.03125 C 221.457031 175.410156 222.742188 178.152344 224.085938 181.429688 L 228.777344 173.960938 C 231.507812 168.539062 228.757812 163.777344 225.34375 159.511719 C 221.824219 155.113281 225.167969 152.296875 226.75 147.371094 C 228.335938 142.445312 224.992188 138.398438 222.703125 135.230469 C 220.417969 132.0625 221.121094 128.191406 220.417969 119.21875 C 219.855469 112.042969 208.6875 108.839844 203.175781 108.136719 C 196.898438 107.492188 183.609375 109.261719 180.65625 121.507812 C 178.367188 131.535156 181.917969 132.441406 174.320312 134.878906 C 164.996094 137.871094 174.320312 145.789062 168.164062 150.363281 C 164.585938 153.292969 159.578125 160.988281 168.164062 168.308594 L 183.644531 162.675781 C 190.542969 160.003906 190.859375 147.957031 190.15625 142.269531 C 184.523438 139.628906 183.996094 133.648438 186.109375 131.535156 C 187.796875 129.847656 191.621094 131.886719 193.320312 133.121094 Z M 193.320312 133.121094 " fill-opacity="1" fill-rule="nonzero"/><path fill="#253036" d="M 201.664062 132.679688 C 200.917969 133.808594 200.445312 135.394531 200.445312 137.167969 C 200.445312 138.9375 200.917969 140.523438 201.664062 141.652344 C 202.40625 142.785156 203.386719 143.414062 204.40625 143.414062 C 205.425781 143.414062 206.402344 142.785156 207.148438 141.652344 C 207.890625 140.523438 208.363281 138.9375 208.363281 137.167969 C 208.363281 135.394531 207.890625 133.808594 207.148438 132.679688 C 206.402344 131.546875 205.425781 130.917969 204.40625 130.917969 C 203.386719 130.917969 202.40625 131.546875 201.664062 132.679688 Z M 200.929688 132.199219 C 201.777344 130.910156 202.996094 130.042969 204.40625 130.042969 C 205.816406 130.042969 207.035156 130.910156 207.882812 132.199219 C 208.640625 133.347656 209.128906 134.867188 209.226562 136.542969 C 209.503906 136.457031 209.824219 136.386719 210.148438 136.355469 C 210.476562 136.324219 210.847656 136.332031 211.195312 136.429688 C 211.28125 134.976562 211.691406 133.652344 212.332031 132.648438 C 213.046875 131.523438 214.089844 130.746094 215.3125 130.746094 C 216.535156 130.746094 217.578125 131.523438 218.296875 132.648438 C 219.015625 133.78125 219.449219 135.316406 219.449219 136.988281 C 219.449219 138.664062 219.015625 140.199219 218.296875 141.332031 C 217.578125 142.457031 216.535156 143.234375 215.3125 143.234375 C 214.113281 143.234375 213.085938 142.484375 212.371094 141.394531 C 211.683594 140.34375 211.25 138.929688 211.1875 137.378906 C 210.96875 137.242188 210.640625 137.191406 210.234375 137.230469 C 209.878906 137.261719 209.519531 137.363281 209.238281 137.464844 C 209.191406 139.265625 208.6875 140.910156 207.882812 142.132812 C 207.035156 143.421875 205.816406 144.289062 204.40625 144.289062 C 202.996094 144.289062 201.777344 143.421875 200.929688 142.132812 C 200.078125 140.84375 199.566406 139.085938 199.566406 137.167969 C 199.566406 135.246094 200.078125 133.488281 200.929688 132.199219 Z M 213.070312 133.121094 C 212.453125 134.089844 212.058594 135.457031 212.058594 136.988281 C 212.058594 137.046875 212.058594 137.101562 212.058594 137.15625 C 212.085938 138.652344 212.492188 139.976562 213.105469 140.914062 C 213.722656 141.855469 214.511719 142.355469 215.3125 142.355469 C 216.132812 142.355469 216.933594 141.835938 217.554688 140.859375 C 218.171875 139.890625 218.570312 138.523438 218.570312 136.988281 C 218.570312 135.457031 218.171875 134.089844 217.554688 133.121094 C 216.933594 132.144531 216.132812 131.625 215.3125 131.625 C 214.496094 131.625 213.691406 132.144531 213.070312 133.121094 Z M 213.070312 133.121094 " fill-opacity="1" fill-rule="evenodd"/><path fill="#253036" d="M 207.75 136.285156 C 207.75 137.160156 207.277344 137.871094 206.695312 137.871094 C 206.109375 137.871094 205.636719 137.160156 205.636719 136.285156 C 205.636719 135.410156 206.109375 134.703125 206.695312 134.703125 C 207.277344 134.703125 207.75 135.410156 207.75 136.285156 Z M 207.75 136.285156 " fill-opacity="1" fill-rule="nonzero"/><path fill="#253036" d="M 217.25 136.636719 C 217.25 137.511719 216.777344 138.222656 216.195312 138.222656 C 215.609375 138.222656 215.136719 137.511719 215.136719 136.636719 C 215.136719 135.761719 215.609375 135.054688 216.195312 135.054688 C 216.777344 135.054688 217.25 135.761719 217.25 136.636719 Z M 217.25 136.636719 " fill-opacity="1" fill-rule="nonzero"/><path fill="#253036" d="M 200.304688 134.433594 L 193.265625 133.554688 L 193.375 132.683594 L 200.414062 133.5625 Z M 200.304688 134.433594 " fill-opacity="1" fill-rule="evenodd"/><path fill="#3289b6" d="M 183.664062 252.453125 C 181.578125 254.082031 178.640625 254.082031 176.550781 252.453125 L 150.210938 231.910156 C 156.21875 220.851562 160.640625 213.730469 162.632812 203.527344 L 156.835938 204.625 C 155.371094 198.625 153.324219 184.601562 156.835938 176.523438 C 160.347656 168.441406 175.863281 163.789062 183.183594 162.472656 C 190.355469 167.449219 205.578125 175.117188 209.089844 165.984375 C 213.480469 167.886719 223.054688 173.449219 226.214844 180.472656 C 229.375 187.5 232.800781 194.820312 234.117188 197.597656 C 232.214844 199.941406 222.527344 205.679688 214.796875 206.382812 C 214.691406 206.277344 214.589844 206.164062 214.488281 206.042969 C 212.917969 208.140625 211.042969 209.683594 209.089844 210.332031 C 204.394531 220.660156 203.402344 230.136719 202.96875 237.402344 Z M 183.664062 252.453125 " fill-opacity="1" fill-rule="nonzero"/><path fill="#253036" d="M 208.6875 165.808594 C 208.78125 165.585938 209.042969 165.484375 209.265625 165.582031 C 211.488281 166.542969 215.007812 168.429688 218.375 170.957031 C 221.738281 173.480469 224.988281 176.683594 226.613281 180.292969 C 229.773438 187.316406 233.199219 194.632812 234.515625 197.414062 C 234.621094 197.632812 234.523438 197.894531 234.304688 197.996094 C 234.085938 198.101562 233.824219 198.007812 233.722656 197.789062 C 232.402344 195.003906 228.976562 187.683594 225.8125 180.65625 C 224.277344 177.242188 221.164062 174.148438 217.851562 171.660156 C 214.542969 169.175781 211.082031 167.324219 208.914062 166.386719 C 208.691406 166.289062 208.589844 166.03125 208.6875 165.808594 Z M 215.425781 182.308594 C 215.625 182.171875 215.898438 182.21875 216.035156 182.417969 C 219.644531 187.609375 219.832031 194.058594 218.203125 199.492188 C 216.609375 204.820312 213.21875 209.3125 209.410156 210.6875 C 204.878906 220.742188 203.863281 229.980469 203.421875 237.148438 C 203.40625 237.390625 203.199219 237.574219 202.957031 237.558594 C 202.714844 237.542969 202.53125 237.335938 202.546875 237.09375 C 202.992188 229.847656 204.023438 220.417969 208.691406 210.152344 L 208.769531 209.976562 L 208.949219 209.917969 C 212.445312 208.753906 215.78125 204.523438 217.363281 199.242188 C 218.9375 193.984375 218.730469 187.832031 215.316406 182.921875 C 215.175781 182.722656 215.226562 182.449219 215.425781 182.308594 Z M 215.425781 182.308594 " fill-opacity="1" fill-rule="evenodd"/><path fill="#fcbfbc" d="M 172.203125 207.261719 C 172.203125 205.503906 171.910156 202.890625 171.765625 201.800781 L 159.03125 204.210938 C 158.882812 206.25 159.207031 211.125 161.664062 214.285156 C 164.738281 218.238281 182.304688 225.261719 198.550781 230.972656 C 199.429688 232.289062 202.503906 237.558594 205.578125 238.4375 C 208.648438 239.316406 210.40625 239.316406 214.359375 236.242188 C 218.3125 233.167969 212.164062 234.925781 207.773438 232.289062 C 205.355469 230.839844 203.222656 228.203125 203.382812 227.019531 C 203.511719 226.054688 207.332031 228.273438 209.527344 227.019531 C 213.886719 224.527344 208.652344 225.480469 204.257812 223.945312 C 203.644531 223.730469 201.726562 224.324219 201.183594 223.945312 C 189.769531 219.117188 184.058594 211.210938 172.203125 207.261719 Z M 172.203125 207.261719 " fill-opacity="1" fill-rule="nonzero"/><path fill="#253036" d="M 209.914062 146.238281 C 211.179688 146.332031 212.152344 146.90625 212.910156 147.644531 L 213.140625 147.871094 L 212.992188 148.160156 C 212.796875 148.542969 212.714844 149.007812 212.625 149.539062 C 212.625 149.558594 212.621094 149.578125 212.617188 149.597656 C 212.539062 150.082031 212.445312 150.644531 212.199219 151.109375 C 211.921875 151.636719 211.460938 152.03125 210.707031 152.183594 C 209.984375 152.332031 209.003906 152.253906 207.664062 151.917969 C 206.660156 151.667969 206.019531 151.03125 205.636719 150.277344 C 205.261719 149.539062 205.136719 148.6875 205.136719 147.960938 L 205.136719 147.707031 L 205.355469 147.582031 C 207.160156 146.527344 208.652344 146.144531 209.914062 146.238281 Z M 206.023438 148.210938 C 206.046875 148.78125 206.164062 149.378906 206.421875 149.878906 C 206.707031 150.445312 207.160156 150.886719 207.878906 151.066406 C 209.171875 151.390625 210 151.429688 210.53125 151.324219 C 211.027344 151.222656 211.269531 150.996094 211.421875 150.699219 C 211.597656 150.367188 211.671875 149.9375 211.761719 149.398438 L 211.761719 149.390625 C 211.828125 148.980469 211.90625 148.511719 212.074219 148.070312 C 211.46875 147.546875 210.75 147.179688 209.847656 147.113281 C 208.867188 147.039062 207.621094 147.3125 206.023438 148.210938 Z M 206.023438 148.210938 " fill-opacity="1" fill-rule="evenodd"/><path fill="#253036" d="M 170.832031 183.992188 C 171.070312 183.960938 171.292969 184.128906 171.324219 184.371094 L 173.570312 201.90625 L 156.917969 205.058594 C 156.679688 205.101562 156.449219 204.945312 156.402344 204.707031 C 156.359375 204.46875 156.515625 204.238281 156.753906 204.195312 L 172.59375 201.199219 L 170.453125 184.480469 C 170.421875 184.242188 170.589844 184.023438 170.832031 183.992188 Z M 170.832031 183.992188 " fill-opacity="1" fill-rule="evenodd"/><path fill="#253036" d="M 108.625 199.484375 C 108.777344 199.292969 109.050781 199.257812 109.242188 199.40625 L 176.820312 252.105469 C 178.75 253.609375 181.464844 253.609375 183.394531 252.105469 L 250.972656 199.40625 C 251.164062 199.257812 251.441406 199.292969 251.589844 199.484375 C 251.738281 199.675781 251.703125 199.949219 251.511719 200.097656 L 195.234375 243.988281 L 249.214844 287.882812 C 249.402344 288.035156 249.429688 288.3125 249.277344 288.5 C 249.125 288.6875 248.847656 288.714844 248.660156 288.5625 L 194.519531 244.542969 L 183.9375 252.796875 C 181.6875 254.550781 178.527344 254.550781 176.28125 252.796875 L 165.695312 244.542969 L 111.558594 288.5625 C 111.367188 288.714844 111.09375 288.6875 110.941406 288.5 C 110.785156 288.3125 110.816406 288.035156 111.003906 287.882812 L 164.984375 243.988281 L 108.703125 200.097656 C 108.511719 199.949219 108.476562 199.675781 108.625 199.484375 Z M 108.625 199.484375 " fill-opacity="1" fill-rule="evenodd"/><path fill="#fcbfbc" d="M 205.578125 238.484375 C 202.503906 237.605469 199.429688 232.335938 198.550781 231.019531 L 201.183594 223.996094 C 201.726562 224.371094 203.644531 223.777344 204.257812 223.996094 C 208.652344 225.527344 213.886719 224.578125 209.527344 227.066406 C 207.332031 228.324219 203.511719 226.101562 203.382812 227.066406 C 203.222656 228.253906 205.355469 230.886719 207.773438 232.335938 C 212.164062 234.972656 218.3125 233.214844 214.359375 236.289062 C 210.40625 239.363281 208.648438 239.363281 205.578125 238.484375 Z M 205.578125 238.484375 " fill-opacity="1" fill-rule="nonzero"/><path fill="#fcbfbc" d="M 224.308594 213.847656 C 226.851562 216.851562 229.71875 218.835938 233.242188 218.238281 C 238.769531 217.300781 244.019531 210.585938 251.898438 197.160156 L 240.265625 191.355469 C 237.722656 194.679688 235.449219 198.28125 233.242188 202.867188 Z M 224.308594 213.847656 " fill-opacity="1" fill-rule="nonzero"/><path fill="#f5f5f5" d="M 165.179688 0 L 67.695312 0 C 63.816406 0 60.671875 3.144531 60.671875 7.027344 L 60.671875 64.007812 C 60.671875 67.886719 63.816406 71.03125 67.695312 71.03125 L 116.4375 71.03125 L 143.847656 96.605469 L 144.320312 71.03125 L 165.179688 71.03125 C 169.058594 71.03125 172.203125 67.886719 172.203125 64.007812 L 172.203125 7.027344 C 172.203125 3.144531 169.058594 0 165.179688 0 Z M 165.179688 0 " fill-opacity="1" fill-rule="nonzero"/><path fill="#3289b6" d="M 88.773438 34.691406 C 88.773438 37.355469 86.609375 39.519531 83.941406 39.519531 C 81.273438 39.519531 79.113281 37.355469 79.113281 34.691406 C 79.113281 32.023438 81.273438 29.859375 83.941406 29.859375 C 86.609375 29.859375 88.773438 32.023438 88.773438 34.691406 Z M 88.773438 34.691406 " fill-opacity="1" fill-rule="nonzero"/><path fill="#3289b6" d="M 110.730469 34.691406 C 110.730469 37.355469 108.566406 39.519531 105.898438 39.519531 C 103.230469 39.519531 101.066406 37.355469 101.066406 34.691406 C 101.066406 32.023438 103.230469 29.859375 105.898438 29.859375 C 108.566406 29.859375 110.730469 32.023438 110.730469 34.691406 Z M 110.730469 34.691406 " fill-opacity="1" fill-rule="nonzero"/><path fill="#3289b6" d="M 132.683594 34.691406 C 132.683594 37.355469 130.523438 39.519531 127.855469 39.519531 C 125.1875 39.519531 123.023438 37.355469 123.023438 34.691406 C 123.023438 32.023438 125.1875 29.859375 127.855469 29.859375 C 130.523438 29.859375 132.683594 32.023438 132.683594 34.691406 Z M 132.683594 34.691406 " fill-opacity="1" fill-rule="nonzero"/><path fill="#3289b6" d="M 154.640625 34.691406 C 154.640625 37.355469 152.476562 39.519531 149.808594 39.519531 C 147.140625 39.519531 144.980469 37.355469 144.980469 34.691406 C 144.980469 32.023438 147.140625 29.859375 149.808594 29.859375 C 152.476562 29.859375 154.640625 32.023438 154.640625 34.691406 Z M 154.640625 34.691406 " fill-opacity="1" fill-rule="nonzero"/><path fill="#f5f5f5" d="M 225.777344 12.296875 L 315.355469 12.296875 C 319.234375 12.296875 322.378906 15.441406 322.378906 19.320312 L 322.378906 71.136719 C 322.378906 75.015625 319.234375 78.160156 315.355469 78.160156 L 270.566406 78.160156 L 245.097656 101.875 L 244.65625 78.160156 L 225.777344 78.160156 C 221.894531 78.160156 218.75 75.015625 218.75 71.136719 L 218.75 19.320312 C 218.75 15.441406 221.894531 12.296875 225.777344 12.296875 Z M 225.777344 12.296875 " fill-opacity="1" fill-rule="nonzero"/><path fill="#3289b6" d="M 241.582031 44.351562 C 241.582031 47.019531 239.421875 49.179688 236.753906 49.179688 C 234.085938 49.179688 231.921875 47.019531 231.921875 44.351562 C 231.921875 41.683594 234.085938 39.519531 236.753906 39.519531 C 239.421875 39.519531 241.582031 41.683594 241.582031 44.351562 Z M 241.582031 44.351562 " fill-opacity="1" fill-rule="nonzero"/><path fill="#3289b6" d="M 263.539062 44.351562 C 263.539062 47.019531 261.375 49.179688 258.707031 49.179688 C 256.039062 49.179688 253.878906 47.019531 253.878906 44.351562 C 253.878906 41.683594 256.039062 39.519531 258.707031 39.519531 C 261.375 39.519531 263.539062 41.683594 263.539062 44.351562 Z M 263.539062 44.351562 " fill-opacity="1" fill-rule="nonzero"/><path fill="#3289b6" d="M 285.496094 44.351562 C 285.496094 47.019531 283.332031 49.179688 280.664062 49.179688 C 277.996094 49.179688 275.835938 47.019531 275.835938 44.351562 C 275.835938 41.683594 277.996094 39.519531 280.664062 39.519531 C 283.332031 39.519531 285.496094 41.683594 285.496094 44.351562 Z M 285.496094 44.351562 " fill-opacity="1" fill-rule="nonzero"/><path fill="#3289b6" d="M 307.449219 44.351562 C 307.449219 47.019531 305.289062 49.179688 302.621094 49.179688 C 299.953125 49.179688 297.789062 47.019531 297.789062 44.351562 C 297.789062 41.683594 299.953125 39.519531 302.621094 39.519531 C 305.289062 39.519531 307.449219 41.683594 307.449219 44.351562 Z M 307.449219 44.351562 " fill-opacity="1" fill-rule="nonzero"/><g clip-path="url(#ec77456ade)"><path fill="#3289b6" d="M 307.335938 289.8125 C 301.011719 282.4375 302.945312 266.832031 304.699219 259.953125 C 307.921875 264.929688 313.660156 272.863281 310.847656 264.785156 C 308.039062 256.703125 308.507812 245.316406 309.09375 240.632812 C 310.554688 243.707031 313.484375 247.308594 313.484375 237.121094 C 313.484375 224.386719 322.703125 225.261719 322.703125 222.191406 C 325.339844 229.65625 334.5625 230.53125 334.5625 243.265625 C 335.585938 244.730469 337.632812 246.605469 337.632812 242.390625 C 337.632812 241.800781 337.617188 241.214844 337.585938 240.632812 C 340.382812 242.535156 345.273438 248.097656 342.464844 255.121094 C 338.953125 263.90625 338.953125 270.929688 341.148438 268.296875 C 343.34375 265.660156 345.097656 256.441406 345.097656 255.121094 C 345.972656 257.84375 346.859375 261.195312 347.554688 264.785156 C 350.671875 256.019531 357.007812 252.664062 362.90625 251.808594 C 368.390625 251.011719 372.132812 256.847656 371.179688 262.308594 C 370.871094 264.0625 370.214844 266.25 368.8125 270.929688 C 366.703125 277.957031 369.691406 275.90625 371.445312 274.003906 C 372.761719 286.738281 369.25 282.347656 365.738281 291.128906 C 362.925781 298.15625 370.363281 295.8125 374.433594 293.765625 C 373.453125 298.707031 371.007812 305.351562 365.738281 311.769531 C 357.65625 321.605469 347.441406 311.183594 343.34375 304.742188 C 341.734375 305.179688 337.371094 305.796875 332.804688 304.742188 C 328.238281 303.6875 327.601562 294.351562 327.855469 289.8125 C 327.355469 289.132812 326.890625 288.394531 326.460938 287.613281 C 322.675781 290.894531 314.054688 297.652344 307.335938 289.8125 Z M 307.335938 289.8125 " fill-opacity="1" fill-rule="nonzero"/></g><path fill="#3289b6" d="M 314.363281 310.890625 C 314.011719 317.214844 310.703125 317.328125 309.09375 316.597656 L 304.261719 315.71875 C 296.886719 336.445312 286.84375 319.699219 282.746094 308.734375 C 286.589844 308.769531 291.074219 308.453125 287.136719 306.9375 C 282.570312 305.179688 281.136719 299.765625 280.988281 297.277344 C 285.820312 299.914062 293.285156 299.472656 284.941406 295.519531 C 278.265625 292.359375 280.109375 282.496094 281.867188 277.957031 C 288.453125 278.835938 292.84375 282.785156 296.359375 287.613281 C 299.167969 291.472656 299.871094 287.175781 299.871094 284.542969 C 303.824219 286.300781 303.382812 299.472656 306.019531 299.472656 C 308.125 299.472656 310.117188 296.253906 310.847656 294.644531 C 310.847656 299.472656 314.800781 302.984375 314.363281 310.890625 Z M 314.363281 310.890625 " fill-opacity="1" fill-rule="nonzero"/><path fill="#253036" d="M 325.777344 262.148438 L 325.777344 334.601562 L 332.035156 334.601562 C 329.953125 322.441406 327.953125 290.511719 327.535156 262.148438 C 327.183594 238.261719 324.460938 230.242188 323.144531 229.214844 C 325.339844 235.363281 325.777344 250.730469 325.777344 262.148438 Z M 325.777344 262.148438 " fill-opacity="1" fill-rule="nonzero"/><path fill="#253036" d="M 368.371094 257.757812 C 356.078125 264.785156 340.707031 291.570312 335 334.601562 L 337.632812 334.601562 C 340.269531 319.234375 350.808594 273.125 368.371094 257.757812 Z M 368.371094 257.757812 " fill-opacity="1" fill-rule="nonzero"/><path fill="#253036" d="M 307.335938 313.523438 C 310.847656 318.792969 316.410156 329.773438 318.753906 334.601562 L 315.441406 334.601562 C 308.410156 323.328125 298.292969 306.601562 296.796875 302.109375 C 295.039062 296.839844 289.625 288.023438 287.136719 284.273438 C 289.324219 285.929688 291.15625 287.582031 291.96875 288.933594 C 294.601562 293.324219 302.945312 306.9375 307.335938 313.523438 Z M 307.335938 313.523438 " fill-opacity="1" fill-rule="nonzero"/><path fill="#253036" d="M 305.695312 339.871094 L 349.605469 339.871094 L 346.816406 369.429688 C 346.519531 372.585938 343.867188 375 340.695312 375 L 314.601562 375 C 311.429688 375 308.78125 372.585938 308.480469 369.429688 Z M 305.695312 339.871094 " fill-opacity="1" fill-rule="nonzero"/><path fill="#253036" d="M 301.300781 333.722656 C 301.300781 332.753906 302.089844 331.96875 303.058594 331.96875 L 351.359375 331.96875 C 352.332031 331.96875 353.117188 332.753906 353.117188 333.722656 L 353.117188 338.113281 C 353.117188 339.085938 352.332031 339.871094 351.359375 339.871094 L 303.058594 339.871094 C 302.089844 339.871094 301.300781 339.085938 301.300781 338.113281 Z M 301.300781 333.722656 " fill-opacity="1" fill-rule="nonzero"/><path fill="#f5f5f5" d="M 60.671875 111.972656 C 60.671875 123.855469 51.035156 133.488281 39.152344 133.488281 C 27.269531 133.488281 17.636719 123.855469 17.636719 111.972656 C 17.636719 100.089844 27.269531 90.457031 39.152344 90.457031 C 51.035156 90.457031 60.671875 100.089844 60.671875 111.972656 Z M 60.671875 111.972656 " fill-opacity="1" fill-rule="nonzero"/><path fill="#3289b6" d="M 46.789062 103.644531 C 46.789062 107.859375 43.371094 111.277344 39.152344 111.277344 C 34.9375 111.277344 31.519531 107.859375 31.519531 103.644531 C 31.519531 99.425781 34.9375 96.007812 39.152344 96.007812 C 43.371094 96.007812 46.789062 99.425781 46.789062 103.644531 Z M 46.789062 103.644531 " fill-opacity="1" fill-rule="nonzero"/><path fill="#3289b6" d="M 39.152344 115.445312 C 31.8125 115.445312 25.738281 120.871094 24.726562 127.9375 C 28.542969 131.386719 33.601562 133.488281 39.152344 133.488281 C 44.703125 133.488281 49.761719 131.386719 53.582031 127.9375 C 52.582031 120.859375 46.503906 115.445312 39.152344 115.445312 Z M 39.152344 115.445312 " fill-opacity="1" fill-rule="nonzero"/></svg>