<svg xmlns="http://www.w3.org/2000/svg" xmlns:xlink="http://www.w3.org/1999/xlink" width="500" zoomAndPan="magnify" viewBox="0 0 375 374.999991" height="500" preserveAspectRatio="xMidYMid meet" version="1.0"><defs><clipPath id="fdd4a46dce"><path d="M 61 4.292969 L 365.25 4.292969 L 365.25 211 L 61 211 Z M 61 4.292969 " clip-rule="nonzero"/></clipPath><clipPath id="bcba26a660"><path d="M 61 4.292969 L 365.25 4.292969 L 365.25 22 L 61 22 Z M 61 4.292969 " clip-rule="nonzero"/></clipPath><clipPath id="d5923de4e2"><path d="M 182 329 L 212 329 L 212 374.792969 L 182 374.792969 Z M 182 329 " clip-rule="nonzero"/></clipPath></defs><g clip-path="url(#fdd4a46dce)"><path fill="#5dcad1" d="M 61.742188 13.003906 C 61.742188 8.210938 65.628906 4.324219 70.421875 4.324219 L 356.792969 4.324219 C 361.585938 4.324219 365.472656 8.210938 365.472656 13.003906 L 365.472656 202.183594 C 365.472656 206.976562 361.585938 210.859375 356.792969 210.859375 L 70.421875 210.859375 C 65.628906 210.859375 61.742188 206.976562 61.742188 202.183594 Z M 61.742188 13.003906 " fill-opacity="1" fill-rule="nonzero"/></g><g clip-path="url(#bcba26a660)"><path fill="#2f5972" d="M 61.613281 13.402344 C 61.613281 8.609375 65.5 4.722656 70.292969 4.722656 L 356.949219 4.722656 C 361.742188 4.722656 365.625 8.609375 365.625 13.402344 L 365.625 21.746094 L 61.613281 21.746094 Z M 61.613281 13.402344 " fill-opacity="1" fill-rule="nonzero"/></g><path fill="#5dcad1" d="M 81.703125 13.503906 C 81.703125 15.535156 80.148438 17.175781 78.230469 17.175781 C 76.316406 17.175781 74.761719 15.535156 74.761719 13.503906 C 74.761719 11.476562 76.316406 9.832031 78.230469 9.832031 C 80.148438 9.832031 81.703125 11.476562 81.703125 13.503906 Z M 81.703125 13.503906 " fill-opacity="1" fill-rule="nonzero"/><path fill="#5dcad1" d="M 92.984375 13.503906 C 92.984375 15.535156 91.429688 17.175781 89.511719 17.175781 C 87.597656 17.175781 86.042969 15.535156 86.042969 13.503906 C 86.042969 11.476562 87.597656 9.832031 89.511719 9.832031 C 91.429688 9.832031 92.984375 11.476562 92.984375 13.503906 Z M 92.984375 13.503906 " fill-opacity="1" fill-rule="nonzero"/><path fill="#5dcad1" d="M 104.265625 13.503906 C 104.265625 15.535156 102.710938 17.175781 100.792969 17.175781 C 98.878906 17.175781 97.324219 15.535156 97.324219 13.503906 C 97.324219 11.476562 98.878906 9.832031 100.792969 9.832031 C 102.710938 9.832031 104.265625 11.476562 104.265625 13.503906 Z M 104.265625 13.503906 " fill-opacity="1" fill-rule="nonzero"/><path fill="#f5f5f5" d="M 175.425781 72.882812 C 175.425781 90.136719 161.4375 104.121094 144.183594 104.121094 C 126.929688 104.121094 112.945312 90.136719 112.945312 72.882812 C 112.945312 55.628906 126.929688 41.640625 144.183594 41.640625 C 161.4375 41.640625 175.425781 55.628906 175.425781 72.882812 Z M 175.425781 72.882812 " fill-opacity="1" fill-rule="nonzero"/><path fill="#f5f5f5" d="M 94.71875 131.023438 C 94.71875 127.191406 97.828125 124.082031 101.660156 124.082031 L 186.707031 124.082031 C 190.539062 124.082031 193.648438 127.191406 193.648438 131.023438 C 193.648438 134.859375 190.539062 137.964844 186.707031 137.964844 L 101.660156 137.964844 C 97.828125 137.964844 94.71875 134.859375 94.71875 131.023438 Z M 94.71875 131.023438 " fill-opacity="1" fill-rule="nonzero"/><path fill="#f5f5f5" d="M 94.71875 155.320312 C 94.71875 151.488281 97.828125 148.378906 101.660156 148.378906 L 186.707031 148.378906 C 190.539062 148.378906 193.648438 151.488281 193.648438 155.320312 C 193.648438 159.15625 190.539062 162.265625 186.707031 162.265625 L 101.660156 162.265625 C 97.828125 162.265625 94.71875 159.15625 94.71875 155.320312 Z M 94.71875 155.320312 " fill-opacity="1" fill-rule="nonzero"/><path fill="#253036" d="M 120.753906 184.394531 C 120.753906 177.921875 126 172.679688 132.46875 172.679688 L 155.03125 172.679688 C 161.5 172.679688 166.746094 177.921875 166.746094 184.394531 C 166.746094 190.863281 161.5 196.109375 155.03125 196.109375 L 132.46875 196.109375 C 126 196.109375 120.753906 190.863281 120.753906 184.394531 Z M 120.753906 184.394531 " fill-opacity="1" fill-rule="nonzero"/><path fill="#5dcad1" d="M 140.539062 181.605469 C 140.878906 181.269531 141.429688 181.273438 141.765625 181.613281 L 144.542969 184.421875 L 141.757812 187.179688 C 141.417969 187.515625 140.867188 187.515625 140.53125 187.171875 C 140.195312 186.832031 140.199219 186.285156 140.539062 185.945312 L 141.207031 185.285156 L 133.769531 185.285156 C 133.292969 185.285156 132.902344 184.898438 132.902344 184.417969 C 132.902344 183.9375 133.292969 183.550781 133.769531 183.550781 L 141.238281 183.550781 L 140.53125 182.832031 C 140.195312 182.492188 140.199219 181.945312 140.539062 181.605469 Z M 140.539062 181.605469 " fill-opacity="1" fill-rule="evenodd"/><path fill="#5dcad1" d="M 137.242188 177.015625 L 151.992188 177.015625 L 151.992188 191.769531 L 137.242188 191.769531 L 137.242188 187.648438 C 137.242188 187.167969 137.628906 186.78125 138.109375 186.78125 C 138.589844 186.78125 138.976562 187.167969 138.976562 187.648438 L 138.976562 190.035156 L 150.257812 190.035156 L 150.257812 178.753906 L 138.976562 178.753906 L 138.976562 181.140625 C 138.976562 181.617188 138.589844 182.007812 138.109375 182.007812 C 137.628906 182.007812 137.242188 181.617188 137.242188 181.140625 Z M 137.242188 177.015625 " fill-opacity="1" fill-rule="evenodd"/><path fill="#2f5972" d="M 154.597656 62.46875 C 154.597656 68.21875 149.9375 72.882812 144.183594 72.882812 C 138.433594 72.882812 133.769531 68.21875 133.769531 62.46875 C 133.769531 56.71875 138.433594 52.054688 144.183594 52.054688 C 149.9375 52.054688 154.597656 56.71875 154.597656 62.46875 Z M 154.597656 62.46875 " fill-opacity="1" fill-rule="nonzero"/><path fill="#2f5972" d="M 144.183594 78.089844 C 132.632812 78.089844 122.960938 84.566406 120.496094 93.25 C 126.226562 99.90625 134.710938 104.121094 144.183594 104.121094 C 153.65625 104.121094 162.144531 99.90625 167.871094 93.25 C 165.40625 84.566406 155.738281 78.089844 144.183594 78.089844 Z M 144.183594 78.089844 " fill-opacity="1" fill-rule="nonzero"/><path fill="#253036" d="M 104.527344 135.363281 L 104.625 132.378906 L 102.269531 133.980469 L 101.660156 132.839844 L 104.144531 131.457031 L 101.660156 130.074219 L 102.269531 128.9375 L 104.625 130.535156 L 104.527344 127.554688 L 105.742188 127.554688 L 105.640625 130.535156 L 107.996094 128.9375 L 108.605469 130.074219 L 106.121094 131.457031 L 108.605469 132.839844 L 107.996094 133.980469 L 105.640625 132.378906 L 105.742188 135.363281 Z M 104.527344 135.363281 " fill-opacity="1" fill-rule="nonzero"/><path fill="#253036" d="M 104.527344 159.660156 L 104.625 156.675781 L 102.269531 158.277344 L 101.660156 157.140625 L 104.144531 155.757812 L 101.660156 154.371094 L 102.269531 153.234375 L 104.625 154.832031 L 104.527344 151.851562 L 105.742188 151.851562 L 105.640625 154.832031 L 107.996094 153.234375 L 108.605469 154.371094 L 106.121094 155.757812 L 108.605469 157.140625 L 107.996094 158.277344 L 105.640625 156.675781 L 105.742188 159.660156 Z M 104.527344 159.660156 " fill-opacity="1" fill-rule="nonzero"/><path fill="#253036" d="M 114.9375 135.363281 L 115.039062 132.378906 L 112.683594 133.980469 L 112.074219 132.839844 L 114.558594 131.457031 L 112.074219 130.074219 L 112.683594 128.9375 L 115.039062 130.535156 L 114.9375 127.554688 L 116.15625 127.554688 L 116.054688 130.535156 L 118.410156 128.9375 L 119.019531 130.074219 L 116.535156 131.457031 L 119.019531 132.839844 L 118.410156 133.980469 L 116.054688 132.378906 L 116.15625 135.363281 Z M 114.9375 135.363281 " fill-opacity="1" fill-rule="nonzero"/><path fill="#253036" d="M 114.9375 159.660156 L 115.039062 156.675781 L 112.683594 158.277344 L 112.074219 157.140625 L 114.558594 155.757812 L 112.074219 154.371094 L 112.683594 153.234375 L 115.039062 154.832031 L 114.9375 151.851562 L 116.15625 151.851562 L 116.054688 154.832031 L 118.410156 153.234375 L 119.019531 154.371094 L 116.535156 155.757812 L 119.019531 157.140625 L 118.410156 158.277344 L 116.054688 156.675781 L 116.15625 159.660156 Z M 114.9375 159.660156 " fill-opacity="1" fill-rule="nonzero"/><path fill="#253036" d="M 125.351562 135.363281 L 125.453125 132.378906 L 123.097656 133.980469 L 122.488281 132.839844 L 124.972656 131.457031 L 122.488281 130.074219 L 123.097656 128.9375 L 125.453125 130.535156 L 125.351562 127.554688 L 126.570312 127.554688 L 126.46875 130.535156 L 128.824219 128.9375 L 129.429688 130.074219 L 126.949219 131.457031 L 129.429688 132.839844 L 128.824219 133.980469 L 126.46875 132.378906 L 126.570312 135.363281 Z M 125.351562 135.363281 " fill-opacity="1" fill-rule="nonzero"/><path fill="#253036" d="M 125.351562 159.660156 L 125.453125 156.675781 L 123.097656 158.277344 L 122.488281 157.140625 L 124.972656 155.757812 L 122.488281 154.371094 L 123.097656 153.234375 L 125.453125 154.832031 L 125.351562 151.851562 L 126.570312 151.851562 L 126.46875 154.832031 L 128.824219 153.234375 L 129.429688 154.371094 L 126.949219 155.757812 L 129.429688 157.140625 L 128.824219 158.277344 L 126.46875 156.675781 L 126.570312 159.660156 Z M 125.351562 159.660156 " fill-opacity="1" fill-rule="nonzero"/><path fill="#253036" d="M 135.765625 135.363281 L 135.867188 132.378906 L 133.511719 133.980469 L 132.902344 132.839844 L 135.386719 131.457031 L 132.902344 130.074219 L 133.511719 128.9375 L 135.867188 130.535156 L 135.765625 127.554688 L 136.980469 127.554688 L 136.878906 130.535156 L 139.238281 128.9375 L 139.84375 130.074219 L 137.363281 131.457031 L 139.84375 132.839844 L 139.238281 133.980469 L 136.878906 132.378906 L 136.980469 135.363281 Z M 135.765625 135.363281 " fill-opacity="1" fill-rule="nonzero"/><path fill="#253036" d="M 146.179688 135.363281 L 146.28125 132.378906 L 143.925781 133.980469 L 143.316406 132.839844 L 145.800781 131.457031 L 143.316406 130.074219 L 143.925781 128.9375 L 146.28125 130.535156 L 146.179688 127.554688 L 147.394531 127.554688 L 147.292969 130.535156 L 149.652344 128.9375 L 150.257812 130.074219 L 147.777344 131.457031 L 150.257812 132.839844 L 149.652344 133.980469 L 147.292969 132.378906 L 147.394531 135.363281 Z M 146.179688 135.363281 " fill-opacity="1" fill-rule="nonzero"/><path fill="#253036" d="M 135.765625 159.660156 L 135.867188 156.675781 L 133.511719 158.277344 L 132.902344 157.140625 L 135.386719 155.757812 L 132.902344 154.371094 L 133.511719 153.234375 L 135.867188 154.832031 L 135.765625 151.851562 L 136.980469 151.851562 L 136.878906 154.832031 L 139.238281 153.234375 L 139.84375 154.371094 L 137.363281 155.757812 L 139.84375 157.140625 L 139.238281 158.277344 L 136.878906 156.675781 L 136.980469 159.660156 Z M 135.765625 159.660156 " fill-opacity="1" fill-rule="nonzero"/><path fill="#f5f5f5" d="M 232.699219 44.679688 C 232.699219 40.605469 236 37.300781 240.074219 37.300781 L 345.945312 37.300781 C 350.019531 37.300781 353.324219 40.605469 353.324219 44.679688 C 353.324219 48.753906 350.019531 52.054688 345.945312 52.054688 L 240.074219 52.054688 C 236 52.054688 232.699219 48.753906 232.699219 44.679688 Z M 232.699219 44.679688 " fill-opacity="1" fill-rule="nonzero"/><path fill="#253036" d="M 241.210938 41.207031 C 239.644531 41.207031 238.339844 42.546875 238.339844 44.246094 C 238.339844 45.941406 239.644531 47.28125 241.210938 47.28125 C 242.0625 47.28125 242.828125 46.890625 243.359375 46.261719 C 243.808594 45.726562 244.082031 45.019531 244.082031 44.246094 C 244.082031 42.546875 242.777344 41.207031 241.210938 41.207031 Z M 237.472656 44.246094 C 237.472656 42.109375 239.125 40.339844 241.210938 40.339844 C 243.296875 40.339844 244.953125 42.109375 244.953125 44.246094 C 244.953125 45.082031 244.699219 45.863281 244.265625 46.5 L 246.890625 49.144531 L 246.277344 49.757812 L 243.699219 47.164062 C 243.039062 47.773438 242.167969 48.148438 241.210938 48.148438 C 239.125 48.148438 237.472656 46.382812 237.472656 44.246094 Z M 237.472656 44.246094 " fill-opacity="1" fill-rule="evenodd"/><path fill="#2f5972" d="M 232.699219 75.484375 C 232.699219 74.046875 233.867188 72.882812 235.300781 72.882812 L 350.71875 72.882812 C 352.15625 72.882812 353.324219 74.046875 353.324219 75.484375 L 353.324219 111.066406 C 353.324219 112.503906 352.15625 113.667969 350.71875 113.667969 L 235.300781 113.667969 C 233.867188 113.667969 232.699219 112.503906 232.699219 111.066406 Z M 232.699219 75.484375 " fill-opacity="1" fill-rule="nonzero"/><path fill="#f5f5f5" d="M 232.699219 126.683594 C 232.699219 125.246094 233.867188 124.082031 235.300781 124.082031 L 281.296875 124.082031 C 282.734375 124.082031 283.898438 125.246094 283.898438 126.683594 L 283.898438 193.503906 C 283.898438 194.941406 282.734375 196.109375 281.296875 196.109375 L 235.300781 196.109375 C 233.867188 196.109375 232.699219 194.941406 232.699219 193.503906 Z M 232.699219 126.683594 " fill-opacity="1" fill-rule="nonzero"/><path fill="#f5f5f5" d="M 302.121094 126.683594 C 302.121094 125.246094 303.289062 124.082031 304.726562 124.082031 L 350.71875 124.082031 C 352.15625 124.082031 353.324219 125.246094 353.324219 126.683594 L 353.324219 193.503906 C 353.324219 194.941406 352.15625 196.109375 350.71875 196.109375 L 304.726562 196.109375 C 303.289062 196.109375 302.121094 194.941406 302.121094 193.503906 Z M 302.121094 126.683594 " fill-opacity="1" fill-rule="nonzero"/><path fill="#2f5972" d="M 232.699219 126.683594 C 232.699219 125.246094 233.867188 124.082031 235.300781 124.082031 L 281.296875 124.082031 C 282.734375 124.082031 283.898438 125.246094 283.898438 126.683594 L 283.898438 170.074219 L 232.699219 170.074219 Z M 232.699219 126.683594 " fill-opacity="1" fill-rule="nonzero"/><path fill="#2f5972" d="M 302.121094 126.683594 C 302.121094 125.246094 303.289062 124.082031 304.726562 124.082031 L 350.71875 124.082031 C 352.15625 124.082031 353.324219 125.246094 353.324219 126.683594 L 353.324219 170.074219 L 302.121094 170.074219 Z M 302.121094 126.683594 " fill-opacity="1" fill-rule="nonzero"/><path fill="#253036" d="M 253.960938 39.90625 L 254.828125 39.90625 L 254.828125 49.453125 L 253.960938 49.453125 Z M 253.960938 39.90625 " fill-opacity="1" fill-rule="evenodd"/><path fill="#fcbfbc" d="M 190.246094 358.074219 C 187.941406 355.585938 173.6875 357.203125 168.421875 356.175781 L 167.492188 338.410156 C 167.921875 338.386719 184.617188 341.859375 186.898438 335.65625 C 193.0625 340.546875 191.167969 353.535156 190.246094 358.074219 Z M 190.246094 358.074219 " fill-opacity="1" fill-rule="nonzero"/><path fill="#5dcad1" d="M 179.5 340.171875 C 180.785156 343.359375 182.40625 342.164062 185.128906 344.96875 C 190.296875 350.292969 180.539062 353.429688 183.609375 357.046875 C 185.527344 359.304688 195.628906 358.949219 200.675781 358.136719 C 202.035156 349.558594 203.390625 333.078125 203.417969 321.863281 C 203.425781 318.492188 203.589844 314.507812 201.011719 312.351562 C 197.167969 309.136719 191.296875 318.933594 188.359375 325.457031 C 187.542969 326.5625 186.710938 327.628906 185.929688 328.609375 L 185.707031 328.890625 C 185.183594 329.550781 184.652344 330.191406 184.128906 330.8125 C 183.332031 331.761719 182.558594 332.671875 181.871094 333.546875 C 179.941406 335.996094 178.691406 338.167969 179.5 340.171875 Z M 179.5 340.171875 " fill-opacity="1" fill-rule="nonzero"/><path fill="#253036" d="M 180.058594 337.191406 C 179.636719 338.222656 179.554688 339.144531 179.902344 340.007812 C 180.207031 340.765625 180.523438 341.238281 180.847656 341.566406 C 181.171875 341.894531 181.53125 342.109375 181.96875 342.324219 C 182.085938 342.382812 182.207031 342.441406 182.332031 342.5 C 183.167969 342.898438 184.203125 343.394531 185.441406 344.667969 C 186.800781 346.070312 187.230469 347.390625 187.070312 348.648438 C 186.914062 349.867188 186.210938 350.953125 185.503906 351.90625 C 185.332031 352.140625 185.164062 352.355469 185.003906 352.5625 C 184.820312 352.808594 184.636719 353.042969 184.453125 353.292969 C 184.128906 353.742188 183.855469 354.160156 183.671875 354.5625 C 183.492188 354.960938 183.410156 355.324219 183.4375 355.671875 C 183.464844 356.011719 183.605469 356.371094 183.941406 356.765625 L 183.28125 357.328125 C 182.847656 356.816406 182.621094 356.289062 182.574219 355.742188 C 182.527344 355.203125 182.664062 354.6875 182.882812 354.203125 C 183.101562 353.71875 183.417969 353.246094 183.753906 352.785156 C 183.929688 352.539062 184.132812 352.277344 184.332031 352.015625 C 184.496094 351.800781 184.660156 351.589844 184.808594 351.390625 C 185.507812 350.441406 186.085938 349.515625 186.210938 348.539062 C 186.328125 347.597656 186.039062 346.53125 184.816406 345.273438 C 183.691406 344.113281 182.785156 343.679688 181.960938 343.285156 C 181.832031 343.226562 181.707031 343.164062 181.582031 343.101562 C 181.113281 342.867188 180.652344 342.605469 180.230469 342.175781 C 179.804688 341.746094 179.433594 341.167969 179.097656 340.332031 C 178.636719 339.195312 178.777344 338.027344 179.257812 336.859375 C 179.734375 335.703125 180.558594 334.507812 181.527344 333.277344 C 182.113281 332.535156 182.757812 331.765625 183.421875 330.976562 C 183.546875 330.828125 183.671875 330.683594 183.796875 330.53125 C 184.316406 329.910156 184.847656 329.273438 185.367188 328.621094 L 185.589844 328.339844 M 185.867188 329.382812 C 185.449219 329.902344 185.027344 330.410156 184.617188 330.90625 C 184.632812 330.96875 184.652344 331.03125 184.667969 331.097656 C 184.691406 331.183594 184.714844 331.277344 184.742188 331.375 L 184.75 331.40625 C 184.78125 331.519531 184.8125 331.640625 184.847656 331.769531 C 184.984375 332.28125 185.164062 332.902344 185.398438 333.53125 C 185.628906 334.160156 185.910156 334.777344 186.246094 335.285156 C 186.585938 335.792969 186.953125 336.152344 187.351562 336.324219 L 187.011719 337.121094 C 186.394531 336.859375 185.90625 336.34375 185.523438 335.761719 C 185.136719 335.179688 184.828125 334.492188 184.585938 333.832031 C 184.339844 333.167969 184.152344 332.515625 184.007812 331.996094 C 183.984375 331.898438 183.957031 331.804688 183.933594 331.714844 C 183.382812 332.371094 182.851562 333.007812 182.363281 333.621094 C 182.371094 333.652344 182.382812 333.679688 182.394531 333.714844 C 182.574219 334.207031 182.894531 335.089844 183.335938 336.027344 C 183.621094 336.632812 183.949219 337.238281 184.304688 337.75 C 184.664062 338.265625 185.027344 338.648438 185.378906 338.847656 L 184.953125 339.601562 C 184.433594 339.308594 183.976562 338.800781 183.589844 338.246094 C 183.199219 337.679688 182.847656 337.023438 182.550781 336.398438 C 182.210938 335.671875 181.929688 334.949219 181.734375 334.433594 C 181 335.414062 180.414062 336.328125 180.058594 337.191406 M 186.460938 328.636719 C 186.609375 328.902344 186.753906 329.230469 186.898438 329.5625 C 186.945312 329.675781 186.992188 329.789062 187.042969 329.90625 C 187.210938 330.316406 187.394531 330.75 187.601562 331.1875 C 187.871094 331.753906 188.171875 332.292969 188.519531 332.742188 C 188.863281 333.191406 189.242188 333.527344 189.65625 333.703125 L 189.316406 334.5 C 188.714844 334.246094 188.230469 333.789062 187.832031 333.273438 C 187.429688 332.753906 187.101562 332.148438 186.820312 331.5625 C 186.601562 331.101562 186.410156 330.640625 186.238281 330.230469 C 186.1875 330.117188 186.144531 330.007812 186.097656 329.902344 C 186.015625 329.707031 185.9375 329.53125 185.867188 329.382812 M 186.460938 328.636719 C 187.011719 327.945312 187.582031 327.214844 188.152344 326.457031 C 188.367188 327.257812 188.675781 328.210938 189.0625 329.101562 C 189.339844 329.734375 189.660156 330.347656 190.027344 330.851562 C 190.390625 331.351562 190.820312 331.78125 191.332031 332 L 191.671875 331.199219 C 191.371094 331.070312 191.050781 330.785156 190.730469 330.339844 C 190.414062 329.902344 190.121094 329.355469 189.859375 328.753906 C 189.363281 327.621094 189.003906 326.363281 188.8125 325.503906 C 190.273438 322.28125 192.429688 318.308594 194.683594 315.523438 C 195.828125 314.109375 196.964844 313.039062 198.019531 312.511719 C 198.539062 312.253906 199.023438 312.132812 199.460938 312.15625 C 199.894531 312.179688 200.316406 312.335938 200.730469 312.683594 L 201.289062 312.015625 C 200.742188 311.558594 200.140625 311.320312 199.503906 311.289062 C 198.878906 311.257812 198.246094 311.429688 197.632812 311.738281 C 196.410156 312.347656 195.179688 313.53125 194.007812 314.980469 C 191.667969 317.871094 189.457031 321.964844 187.980469 325.238281 M 196.914062 336.042969 C 196.363281 343.605469 195.460938 351.144531 194.738281 356.144531 L 193.878906 356.019531 C 194.597656 351.039062 195.5 343.519531 196.046875 335.980469 C 196.597656 328.429688 196.796875 320.894531 196.125 315.871094 L 196.988281 315.753906 C 197.667969 320.878906 197.464844 328.488281 196.914062 336.042969 Z M 196.914062 336.042969 " fill-opacity="1" fill-rule="evenodd"/><path fill="#fcbfbc" d="M 189.433594 372.5625 C 187.75 369.621094 173.496094 367.988281 168.597656 365.804688 L 171.683594 348.285156 C 172.113281 348.359375 187.597656 355.496094 191.214844 349.964844 C 196.125 356.117188 191.351562 368.347656 189.433594 372.5625 Z M 189.433594 372.5625 " fill-opacity="1" fill-rule="nonzero"/><g clip-path="url(#d5923de4e2)"><path fill="#5dcad1" d="M 182.992188 352.703125 C 183.523438 356.097656 185.375 355.296875 187.398438 358.644531 C 191.234375 364.992188 181.019531 365.851562 183.199219 370.070312 C 184.5625 372.699219 194.480469 374.625 199.582031 374.972656 C 202.839844 366.917969 207.867188 351.164062 210.414062 340.242188 C 211.183594 336.960938 212.238281 333.113281 210.210938 330.433594 C 207.1875 326.4375 199.265625 334.660156 194.933594 340.359375 C 193.890625 341.25 192.839844 342.101562 191.855469 342.882812 L 191.578125 343.105469 C 190.917969 343.628906 190.253906 344.132812 189.605469 344.621094 C 188.617188 345.367188 187.65625 346.082031 186.792969 346.777344 C 184.363281 348.730469 182.65625 350.566406 182.992188 352.703125 Z M 182.992188 352.703125 " fill-opacity="1" fill-rule="nonzero"/></g><path fill="#253036" d="M 184.207031 349.921875 C 183.5625 350.832031 183.277344 351.710938 183.421875 352.632812 C 183.546875 353.441406 183.746094 353.96875 183.992188 354.363281 C 184.234375 354.757812 184.535156 355.046875 184.910156 355.355469 C 185.011719 355.4375 185.117188 355.519531 185.226562 355.609375 C 185.949219 356.183594 186.851562 356.898438 187.769531 358.417969 C 188.777344 360.089844 188.902344 361.472656 188.460938 362.664062 C 188.035156 363.816406 187.105469 364.714844 186.203125 365.484375 C 185.980469 365.675781 185.769531 365.847656 185.566406 366.015625 C 185.332031 366.210938 185.101562 366.398438 184.867188 366.601562 C 184.449219 366.964844 184.089844 367.308594 183.820312 367.660156 C 183.554688 368.011719 183.390625 368.347656 183.34375 368.6875 C 183.292969 369.027344 183.347656 369.410156 183.585938 369.871094 L 182.816406 370.269531 C 182.507812 369.671875 182.40625 369.109375 182.484375 368.566406 C 182.558594 368.03125 182.808594 367.558594 183.132812 367.132812 C 183.453125 366.710938 183.867188 366.320312 184.296875 365.945312 C 184.523438 365.75 184.78125 365.539062 185.035156 365.328125 C 185.242188 365.15625 185.449219 364.988281 185.640625 364.824219 C 186.539062 364.058594 187.304688 363.289062 187.648438 362.363281 C 187.972656 361.476562 187.933594 360.371094 187.023438 358.867188 C 186.191406 357.484375 185.402344 356.859375 184.691406 356.292969 C 184.578125 356.203125 184.46875 356.113281 184.359375 356.027344 C 183.957031 355.691406 183.570312 355.332031 183.25 354.820312 C 182.933594 354.304688 182.703125 353.660156 182.5625 352.769531 C 182.371094 351.554688 182.769531 350.449219 183.5 349.421875 C 184.226562 348.398438 185.300781 347.421875 186.519531 346.441406 C 187.253906 345.847656 188.058594 345.246094 188.882812 344.625 C 189.035156 344.507812 189.191406 344.394531 189.34375 344.277344 C 189.992188 343.785156 190.652344 343.285156 191.308594 342.765625 L 191.585938 342.542969 M 191.625 343.621094 C 191.097656 344.035156 190.574219 344.433594 190.058594 344.824219 C 190.0625 344.886719 190.066406 344.957031 190.070312 345.023438 C 190.070312 345.109375 190.074219 345.207031 190.078125 345.308594 L 190.078125 345.34375 C 190.082031 345.460938 190.085938 345.585938 190.09375 345.71875 C 190.113281 346.246094 190.148438 346.894531 190.230469 347.558594 C 190.316406 348.222656 190.453125 348.886719 190.664062 349.457031 C 190.878906 350.03125 191.160156 350.464844 191.507812 350.71875 L 190.996094 351.417969 C 190.453125 351.023438 190.097656 350.410156 189.851562 349.761719 C 189.605469 349.105469 189.460938 348.367188 189.371094 347.667969 C 189.28125 346.96875 189.246094 346.289062 189.226562 345.75 C 189.222656 345.648438 189.21875 345.550781 189.214844 345.460938 C 188.527344 345.976562 187.871094 346.472656 187.253906 346.964844 C 187.257812 346.996094 187.261719 347.027344 187.265625 347.0625 C 187.328125 347.582031 187.445312 348.515625 187.664062 349.527344 C 187.804688 350.179688 187.984375 350.84375 188.214844 351.421875 C 188.449219 352.007812 188.722656 352.460938 189.019531 352.730469 L 188.433594 353.371094 C 187.992188 352.972656 187.664062 352.375 187.410156 351.742188 C 187.15625 351.105469 186.960938 350.390625 186.8125 349.710938 C 186.644531 348.925781 186.53125 348.160156 186.460938 347.613281 C 185.523438 348.402344 184.75 349.164062 184.207031 349.921875 M 192.371094 343.03125 C 192.457031 343.320312 192.523438 343.671875 192.585938 344.03125 C 192.605469 344.148438 192.628906 344.273438 192.648438 344.398438 C 192.722656 344.832031 192.804688 345.296875 192.90625 345.773438 C 193.042969 346.382812 193.210938 346.976562 193.449219 347.492188 C 193.6875 348.007812 193.976562 348.417969 194.34375 348.683594 L 193.832031 349.386719 C 193.304688 349 192.933594 348.449219 192.660156 347.855469 C 192.386719 347.257812 192.199219 346.59375 192.0625 345.960938 C 191.949219 345.464844 191.867188 344.96875 191.792969 344.53125 C 191.769531 344.410156 191.75 344.292969 191.730469 344.179688 C 191.691406 343.96875 191.660156 343.78125 191.625 343.621094 M 192.371094 343.03125 C 193.058594 342.476562 193.78125 341.894531 194.507812 341.285156 C 194.535156 342.113281 194.621094 343.113281 194.800781 344.066406 C 194.925781 344.746094 195.101562 345.414062 195.34375 345.988281 C 195.585938 346.554688 195.910156 347.074219 196.359375 347.398438 L 196.871094 346.699219 C 196.605469 346.503906 196.359375 346.152344 196.144531 345.648438 C 195.933594 345.152344 195.773438 344.550781 195.652344 343.910156 C 195.425781 342.691406 195.355469 341.386719 195.363281 340.507812 C 197.515625 337.695312 200.511719 334.308594 203.328125 332.101562 C 204.765625 330.980469 206.113281 330.195312 207.257812 329.917969 C 207.824219 329.78125 208.320312 329.773438 208.746094 329.894531 C 209.160156 330.015625 209.539062 330.265625 209.863281 330.695312 L 210.554688 330.171875 C 210.125 329.601562 209.59375 329.234375 208.980469 329.0625 C 208.375 328.890625 207.722656 328.914062 207.054688 329.074219 C 205.730469 329.394531 204.261719 330.273438 202.792969 331.417969 C 199.867188 333.710938 196.789062 337.203125 194.613281 340.058594 M 200.886719 352.59375 C 198.648438 359.839844 196.074219 366.984375 194.246094 371.695312 L 193.4375 371.378906 C 195.257812 366.6875 197.828125 359.5625 200.058594 352.339844 C 202.292969 345.105469 204.179688 337.8125 204.660156 332.761719 L 205.523438 332.84375 C 205.035156 337.988281 203.125 345.359375 200.886719 352.59375 Z M 200.886719 352.59375 " fill-opacity="1" fill-rule="evenodd"/><path fill="#fcbfbc" d="M 81.582031 289.832031 C 80.714844 286.792969 80.195312 276.117188 79.847656 275.078125 C 75.796875 276.523438 69.519531 277.160156 68.132812 280.285156 C 68.132812 285.058594 67.855469 292.796875 70.300781 298.507812 C 71.601562 301.546875 90.839844 312.394531 97.203125 313.695312 L 107.617188 308.488281 C 104.144531 305.710938 89.246094 292.722656 81.582031 289.832031 Z M 81.582031 289.832031 " fill-opacity="1" fill-rule="nonzero"/><path fill="#253036" d="M 175.292969 338.425781 C 164.1875 337.039062 81.140625 336.257812 47.292969 334.085938 C 44.519531 338.601562 42.667969 351.296875 42.089844 357.085938 C 49.03125 357.085938 168.785156 364.460938 171.390625 362.726562 C 177.03125 357.085938 176.597656 346.238281 175.292969 338.425781 Z M 175.292969 338.425781 " fill-opacity="1" fill-rule="nonzero"/><path fill="#253036" d="M 22.5625 368.367188 C 0 367.324219 7.316406 329.171875 13.683594 313.261719 C 21.203125 318.890625 38.585938 329.921875 47.960938 329.015625 C 68.8125 326.925781 90.328125 321.554688 98.496094 322.371094 C 107.035156 323.226562 160.5 337.769531 178.332031 350.140625 C 179.027344 355.691406 170.667969 367.0625 167.484375 369.234375 C 147.089844 364.460938 111.945312 357.953125 100.664062 350.140625 C 86.433594 355.695312 45.125 369.40625 22.5625 368.367188 Z M 22.5625 368.367188 " fill-opacity="1" fill-rule="nonzero"/><path fill="#f5f5f5" d="M 151.890625 337.738281 C 151.976562 337.515625 152.226562 337.398438 152.449219 337.484375 C 161.605469 340.890625 170.046875 344.546875 175.953125 348.09375 C 176.15625 348.21875 176.222656 348.484375 176.101562 348.691406 C 175.976562 348.898438 175.710938 348.964844 175.503906 348.839844 C 169.667969 345.332031 161.289062 341.699219 152.148438 338.296875 C 151.921875 338.214844 151.808594 337.964844 151.890625 337.738281 Z M 151.890625 337.738281 " fill-opacity="1" fill-rule="evenodd"/><path fill="#f5f5f5" d="M 100.722656 349.652344 L 100.910156 349.785156 C 103.707031 351.722656 108.03125 353.59375 113.292969 355.390625 C 118.546875 357.183594 124.699219 358.890625 131.144531 360.5 C 131.375 360.558594 131.515625 360.796875 131.457031 361.027344 C 131.402344 361.257812 131.164062 361.402344 130.933594 361.34375 C 124.480469 359.730469 118.296875 358.015625 113.011719 356.210938 C 107.847656 354.449219 103.507812 352.589844 100.609375 350.628906 C 95.617188 352.570312 87.453125 355.457031 77.984375 358.367188 C 77.753906 358.4375 77.511719 358.308594 77.441406 358.078125 C 77.371094 357.851562 77.5 357.609375 77.726562 357.539062 C 87.316406 354.59375 95.558594 351.667969 100.507812 349.738281 Z M 100.722656 349.652344 " fill-opacity="1" fill-rule="evenodd"/><path fill="#2f5972" d="M 67.253906 239.5 C 64.476562 251.300781 51.632812 243.257812 44.691406 237.761719 C 38.039062 239.789062 22.390625 244.964844 19.960938 249.476562 C 17.53125 253.992188 10.558594 270.160156 7.375 277.679688 C 9.890625 279.175781 13.8125 281.21875 17.695312 282.675781 C 16.53125 300.84375 4.882812 323.0625 6.941406 344.5 C 28.203125 321.070312 32.109375 339.292969 73.328125 334.085938 C 76.800781 328.882812 57.910156 299.265625 70.726562 283.753906 C 70.847656 283.609375 70.964844 283.460938 71.078125 283.308594 C 75.609375 281.925781 80.578125 279.242188 83.078125 277.679688 C 80.039062 249.476562 73.964844 243.402344 67.253906 239.5 Z M 67.253906 239.5 " fill-opacity="1" fill-rule="nonzero"/><path fill="#253036" d="M 66.878906 239.28125 C 67 239.074219 67.265625 239.003906 67.472656 239.125 C 70.882812 241.109375 74.148438 243.660156 76.933594 249.285156 C 79.703125 254.886719 81.988281 263.515625 83.507812 277.636719 L 83.539062 277.90625 L 83.308594 278.050781 C 80.816406 279.605469 75.882812 282.273438 71.339844 283.683594 C 71.25 283.800781 71.15625 283.917969 71.058594 284.03125 C 67.9375 287.8125 66.734375 292.464844 66.648438 297.4375 C 66.5625 302.417969 67.605469 307.691406 68.941406 312.671875 C 69.75 315.679688 70.65625 318.542969 71.488281 321.171875 C 72.042969 322.921875 72.5625 324.570312 73 326.085938 C 73.542969 327.96875 73.957031 329.640625 74.121094 331.015625 C 74.28125 332.367188 74.214844 333.539062 73.691406 334.328125 C 73.558594 334.527344 73.289062 334.582031 73.089844 334.449219 C 72.886719 334.316406 72.835938 334.046875 72.96875 333.847656 C 73.308594 333.335938 73.414062 332.441406 73.257812 331.117188 C 73.101562 329.816406 72.707031 328.199219 72.167969 326.328125 C 71.742188 324.859375 71.226562 323.226562 70.675781 321.480469 C 69.835938 318.824219 68.914062 315.90625 68.105469 312.898438 C 66.757812 307.886719 65.695312 302.523438 65.78125 297.425781 C 65.867188 292.320312 67.105469 287.457031 70.390625 283.480469 C 70.507812 283.335938 70.625 283.191406 70.734375 283.046875 C 73.878906 278.929688 74.542969 273.480469 74.019531 267.566406 C 73.527344 261.988281 71.992188 256.070312 70.5625 250.578125 C 70.476562 250.246094 70.390625 249.914062 70.304688 249.585938 C 70.246094 249.355469 70.386719 249.117188 70.617188 249.058594 C 70.847656 248.996094 71.085938 249.136719 71.144531 249.371094 C 71.230469 249.703125 71.320312 250.039062 71.40625 250.378906 C 72.832031 255.855469 74.386719 261.835938 74.886719 267.488281 C 75.371094 273.007812 74.859375 278.28125 72.179688 282.492188 C 76.167969 281.101562 80.308594 278.875 82.617188 277.457031 C 81.101562 263.535156 78.839844 255.097656 76.15625 249.671875 C 73.464844 244.230469 70.335938 241.792969 67.035156 239.875 C 66.828125 239.753906 66.757812 239.488281 66.878906 239.28125 Z M 66.878906 239.28125 " fill-opacity="1" fill-rule="evenodd"/><path fill="#fcbfbc" d="M 52.933594 325.410156 C 25.167969 317.164062 9.113281 304.667969 7.375 298.074219 C 5.71875 291.777344 8.367188 283.457031 9.902344 279.101562 C 14.253906 281.429688 20.417969 284.15625 24.796875 284.46875 C 24.089844 287.929688 23.453125 293.117188 22.5625 294.601562 C 44.257812 306.753906 39.050781 309.355469 59.445312 318.902344 C 62.625 319.335938 69.335938 320.898438 70.726562 323.675781 C 69.132812 326.421875 66.210938 332.613281 60.3125 330.183594 C 58.230469 331.222656 53.949219 327 52.933594 325.410156 Z M 52.933594 325.410156 " fill-opacity="1" fill-rule="nonzero"/><path fill="#5dcad1" d="M 134.828125 282.890625 L 74.78125 287.074219 C 73.550781 287.160156 72.542969 288.0625 72.34375 289.253906 L 65.6875 329.101562 L 35.644531 331.191406 C 35.59375 331.195312 35.566406 331.25 35.585938 331.292969 C 36.765625 333.585938 38.984375 335.167969 41.542969 335.542969 L 43.390625 335.8125 C 43.46875 335.824219 43.546875 335.824219 43.628906 335.820312 L 121.234375 330.417969 C 124.519531 330.1875 127.429688 328.304688 128.992188 325.484375 C 129.285156 325.136719 129.492188 324.714844 129.570312 324.242188 L 136.226562 284.394531 C 136.363281 283.566406 135.679688 282.832031 134.828125 282.890625 Z M 134.828125 282.890625 " fill-opacity="1" fill-rule="nonzero"/><path fill="#fcbfbc" d="M 44.519531 237.765625 C 51.539062 235.726562 50.082031 224.746094 50.082031 218.238281 C 50.828125 220.703125 56.160156 232.820312 65.472656 233.796875 C 65.386719 235.300781 66.785156 238.136719 68.027344 240.25 C 68.757812 241.496094 69.007812 243.050781 68.230469 244.265625 C 62.921875 252.515625 50.460938 243.65625 44.519531 237.765625 Z M 44.519531 237.765625 " fill-opacity="1" fill-rule="nonzero"/><path fill="#fcbfbc" d="M 53.988281 209.503906 C 65.164062 209.257812 69.5 201.578125 70.363281 197.472656 C 72.796875 198.390625 77.6875 201.527344 77.792969 206.699219 C 77.921875 213.167969 79.027344 232.464844 68.09375 233.773438 C 67.1875 233.882812 66.3125 233.886719 65.472656 233.796875 C 56.160156 232.820312 50.824219 220.703125 50.082031 218.238281 C 44.765625 215.15625 44.761719 209.222656 47.023438 207.324219 C 48.832031 205.808594 52.417969 208.144531 53.988281 209.503906 Z M 53.988281 209.503906 " fill-opacity="1" fill-rule="nonzero"/><path fill="#253036" d="M 48.328125 209.722656 C 48.433594 209.507812 48.695312 209.421875 48.90625 209.527344 C 49.453125 209.796875 50.25 210.332031 50.914062 211.078125 C 51.574219 211.828125 52.132812 212.832031 52.109375 214.023438 C 52.101562 214.261719 51.90625 214.453125 51.664062 214.449219 C 51.425781 214.441406 51.234375 214.246094 51.238281 214.003906 C 51.257812 213.105469 50.839844 212.308594 50.261719 211.652344 C 49.683594 211 48.984375 210.53125 48.523438 210.304688 C 48.308594 210.199219 48.222656 209.9375 48.328125 209.722656 Z M 49.957031 217.824219 C 50.1875 217.753906 50.429688 217.882812 50.496094 218.113281 C 50.855469 219.296875 52.351562 222.898438 54.914062 226.316406 C 57.476562 229.738281 61.042969 232.894531 65.519531 233.367188 C 65.757812 233.390625 65.929688 233.605469 65.90625 233.84375 C 65.882812 234.082031 65.667969 234.253906 65.429688 234.230469 C 60.59375 233.722656 56.835938 230.332031 54.21875 226.835938 C 51.59375 223.332031 50.054688 219.640625 49.667969 218.363281 C 49.597656 218.132812 49.726562 217.890625 49.957031 217.824219 Z M 49.957031 217.824219 " fill-opacity="1" fill-rule="evenodd"/><path fill="#253036" d="M 53.988281 209.503906 C 65.164062 209.257812 69.5 201.578125 70.363281 197.472656 C 72.796875 198.390625 77.6875 201.527344 77.792969 206.699219 C 77.925781 213.167969 79.027344 232.464844 68.09375 233.773438 C 67.1875 233.882812 66.316406 233.886719 65.472656 233.796875 C 65.386719 235.277344 66.347656 237.394531 66.820312 239.5 C 71.898438 242.492188 75.507812 248.488281 77.234375 251.648438 C 78.019531 253.082031 79.070312 256.367188 80.105469 259.710938 L 85.371094 252.761719 C 88.523438 247.660156 86.226562 242.734375 83.234375 238.242188 C 80.148438 233.609375 83.683594 231.125 85.664062 226.410156 C 87.648438 221.699219 84.707031 217.425781 82.726562 214.113281 C 80.75 210.796875 81.777344 207.050781 81.855469 198.15625 C 81.917969 191.042969 71.203125 186.925781 65.835938 185.761719 C 59.714844 184.585938 46.480469 185.183594 42.515625 196.984375 C 39.402344 206.660156 42.820312 207.855469 35.132812 209.601562 C 25.695312 211.742188 34.191406 220.335938 27.734375 224.308594 C 23.960938 226.886719 16.910156 237.628906 24.734375 245.574219 C 35.132812 242.535156 44.257812 239.0625 44.257812 239.0625 C 51.277344 237.027344 50.285156 223.898438 50.082031 218.238281 C 44.765625 215.15625 44.761719 209.222656 47.023438 207.324219 C 48.832031 205.808594 52.417969 208.144531 53.988281 209.503906 Z M 53.988281 209.503906 " fill-opacity="1" fill-rule="nonzero"/><path fill="#253036" d="M 62.234375 209.789062 C 61.40625 210.835938 60.804688 212.355469 60.652344 214.101562 C 60.5 215.847656 60.828125 217.449219 61.460938 218.621094 C 62.097656 219.800781 63.007812 220.503906 64.011719 220.589844 C 65.015625 220.679688 66.03125 220.144531 66.863281 219.09375 C 67.691406 218.046875 68.292969 216.527344 68.445312 214.785156 C 68.597656 213.039062 68.269531 211.4375 67.636719 210.261719 C 67 209.082031 66.089844 208.378906 65.085938 208.292969 C 64.082031 208.207031 63.066406 208.738281 62.234375 209.789062 Z M 61.554688 209.253906 C 62.5 208.058594 63.773438 207.308594 65.164062 207.429688 C 66.550781 207.550781 67.675781 208.511719 68.398438 209.851562 C 69.046875 211.046875 69.394531 212.585938 69.347656 214.242188 C 69.632812 214.183594 69.949219 214.140625 70.273438 214.136719 C 70.597656 214.136719 70.960938 214.175781 71.296875 214.304688 C 71.503906 212.878906 72.023438 211.613281 72.738281 210.679688 C 73.542969 209.632812 74.636719 208.957031 75.839844 209.0625 C 77.042969 209.167969 78.003906 210.023438 78.613281 211.191406 C 79.222656 212.367188 79.515625 213.917969 79.371094 215.5625 C 79.226562 217.210938 78.671875 218.6875 77.863281 219.738281 C 77.0625 220.785156 75.96875 221.460938 74.765625 221.355469 C 73.582031 221.253906 72.636719 220.425781 72.027344 219.289062 C 71.4375 218.195312 71.136719 216.769531 71.207031 215.238281 C 71.003906 215.082031 70.6875 215.003906 70.28125 215.007812 C 69.925781 215.007812 69.566406 215.074219 69.28125 215.152344 C 69.078125 216.921875 68.441406 218.496094 67.542969 219.632812 C 66.597656 220.828125 65.324219 221.578125 63.9375 221.457031 C 62.546875 221.335938 61.421875 220.375 60.699219 219.035156 C 59.972656 217.691406 59.621094 215.914062 59.785156 214.027344 C 59.953125 212.136719 60.605469 210.449219 61.554688 209.253906 Z M 73.429688 211.207031 C 72.738281 212.109375 72.230469 213.417969 72.097656 214.929688 C 72.09375 214.984375 72.089844 215.039062 72.085938 215.09375 C 71.984375 216.566406 72.265625 217.902344 72.789062 218.878906 C 73.316406 219.859375 74.050781 220.421875 74.839844 220.492188 C 75.644531 220.5625 76.480469 220.117188 77.175781 219.210938 C 77.867188 218.308594 78.375 216.996094 78.507812 215.488281 C 78.636719 213.980469 78.367188 212.601562 77.84375 211.59375 C 77.316406 210.578125 76.570312 209.996094 75.765625 209.925781 C 74.960938 209.855469 74.125 210.300781 73.429688 211.207031 Z M 73.429688 211.207031 " fill-opacity="1" fill-rule="evenodd"/><path fill="#253036" d="M 67.917969 216.46875 C 67.839844 217.328125 67.316406 217.988281 66.742188 217.9375 C 66.167969 217.886719 65.761719 217.148438 65.835938 216.285156 C 65.914062 215.425781 66.441406 214.769531 67.011719 214.816406 C 67.585938 214.867188 67.992188 215.605469 67.917969 216.46875 Z M 67.917969 216.46875 " fill-opacity="1" fill-rule="nonzero"/><path fill="#253036" d="M 77.238281 217.632812 C 77.164062 218.492188 76.636719 219.148438 76.0625 219.101562 C 75.488281 219.050781 75.085938 218.3125 75.160156 217.449219 C 75.234375 216.589844 75.761719 215.933594 76.335938 215.984375 C 76.910156 216.03125 77.3125 216.773438 77.238281 217.632812 Z M 77.238281 217.632812 " fill-opacity="1" fill-rule="nonzero"/><path fill="#253036" d="M 60.75 211.402344 L 53.894531 209.929688 L 54.078125 209.082031 L 60.929688 210.550781 Z M 60.75 211.402344 " fill-opacity="1" fill-rule="evenodd"/><path fill="#253036" d="M 66.164062 226.882812 C 66.253906 226.660156 66.507812 226.550781 66.730469 226.640625 C 67.679688 227.023438 68.933594 227.214844 70.101562 226.652344 C 70.320312 226.546875 70.578125 226.640625 70.683594 226.855469 C 70.785156 227.070312 70.695312 227.328125 70.480469 227.433594 C 69.007812 228.140625 67.480469 227.878906 66.40625 227.445312 C 66.183594 227.355469 66.074219 227.101562 66.164062 226.882812 Z M 66.164062 226.882812 " fill-opacity="1" fill-rule="evenodd"/><path fill="#253036" d="M 33.964844 267.285156 C 34.195312 267.351562 34.328125 267.59375 34.261719 267.824219 C 33.609375 270.066406 32.566406 273.5625 31.558594 276.757812 C 30.550781 279.9375 29.566406 282.871094 29.023438 283.949219 L 28.972656 284.054688 L 28.878906 284.117188 C 27.707031 284.894531 26.066406 285.050781 24.265625 284.855469 C 22.445312 284.660156 20.386719 284.101562 18.304688 283.363281 C 14.148438 281.882812 9.847656 279.65625 7.15625 278.054688 C 6.949219 277.933594 6.882812 277.664062 7.003906 277.460938 C 7.125 277.253906 7.390625 277.1875 7.597656 277.308594 C 10.257812 278.890625 14.503906 281.089844 18.597656 282.542969 C 20.644531 283.273438 22.632812 283.808594 24.355469 283.996094 C 26.035156 284.175781 27.386719 284.015625 28.300781 283.457031 C 28.816406 282.371094 29.75 279.601562 30.730469 276.5 C 31.738281 273.308594 32.777344 269.820312 33.425781 267.582031 C 33.496094 267.351562 33.734375 267.21875 33.964844 267.285156 Z M 33.964844 267.285156 " fill-opacity="1" fill-rule="evenodd"/><path fill="#2f5972" d="M 330.179688 308.921875 C 333.535156 294.40625 338.226562 278.847656 341.042969 270.304688 C 342.757812 282.320312 339.234375 301.394531 335.488281 316.296875 C 343.558594 305.59375 360.742188 283.929688 364.90625 282.886719 C 358.070312 297.496094 341.992188 328.445312 332.363281 335.390625 L 315.441406 331.917969 C 309.890625 329.835938 292.011719 297.496094 283.769531 281.585938 C 288.628906 283.320312 304.058594 303.136719 311.164062 312.828125 C 309.292969 298.511719 307.871094 279.65625 307.199219 268.136719 C 310.671875 271.953125 317.398438 295.472656 320.328125 306.753906 C 322.035156 291.292969 325.5625 267.828125 327.59375 255.117188 C 331.0625 262.753906 330.761719 294.167969 330.179688 308.921875 Z M 330.179688 308.921875 " fill-opacity="1" fill-rule="nonzero"/><path fill="#5dcad1" d="M 323.238281 311.523438 C 326.59375 297.007812 331.28125 281.453125 334.101562 272.910156 C 335.816406 284.921875 332.292969 303.996094 328.546875 318.902344 C 336.617188 308.199219 353.800781 286.53125 357.964844 285.492188 C 351.128906 300.097656 335.050781 331.050781 325.421875 337.992188 L 308.5 334.523438 C 302.945312 332.4375 285.070312 300.097656 276.828125 284.191406 C 281.6875 285.925781 297.117188 305.738281 304.222656 315.429688 C 302.351562 301.113281 300.925781 282.257812 300.257812 270.738281 C 303.726562 274.558594 310.457031 298.074219 313.386719 309.355469 C 315.09375 293.894531 318.621094 270.429688 320.648438 257.722656 C 324.121094 265.359375 323.820312 296.773438 323.238281 311.523438 Z M 323.238281 311.523438 " fill-opacity="1" fill-rule="nonzero"/><path fill="#253036" d="M 300.257812 331.050781 L 343.644531 331.050781 L 335.578125 372.171875 C 335.417969 372.984375 334.703125 373.574219 333.875 373.574219 L 310.027344 373.574219 C 309.199219 373.574219 308.484375 372.984375 308.324219 372.171875 Z M 300.257812 331.050781 " fill-opacity="1" fill-rule="nonzero"/></svg>